<svg width="381" height="347" viewBox="0 0 381 347" fill="none" xmlns="http://www.w3.org/2000/svg">
<g clip-path="url(#clip0_1252_288)">
<rect width="381" height="347" rx="10" fill="#336BEC"/>
<path d="M190.5 253.941C259.386 253.941 321.676 262.075 366.68 275.181C389.195 281.738 407.269 289.507 419.67 298.045C432.133 306.626 438.446 315.678 438.446 324.731C438.446 333.784 432.133 342.836 419.67 351.417C407.269 359.955 389.194 367.725 366.68 374.281C321.676 387.388 259.386 395.521 190.5 395.521C121.613 395.521 59.3237 387.388 14.3202 374.281C-8.19465 367.725 -26.2694 359.955 -38.67 351.417C-51.1332 342.836 -57.4464 333.784 -57.4464 324.731C-57.4463 315.678 -51.1331 306.626 -38.67 298.045C-26.2694 289.507 -8.19474 281.738 14.3202 275.181C59.3237 262.075 121.613 253.941 190.5 253.941Z" fill="white" stroke="black" stroke-width="4"/>
<path d="M91.5702 66.5325C98.7632 66.5325 104.724 71.8035 105.804 78.6936C106.565 78.347 107.411 78.1526 108.303 78.1526C111.64 78.1526 114.345 80.8576 114.345 84.1946C114.345 85.0749 114.154 85.91 113.815 86.6643C114.442 86.5678 115.085 86.5188 115.739 86.5188C122.67 86.5188 128.289 92.137 128.289 99.0676C128.289 101.852 127.381 104.424 125.847 106.505H52.7753C48.4399 103.795 45.5556 98.98 45.5555 93.4905C45.5556 85.0196 52.4226 78.1528 60.8934 78.1526C60.9527 78.1526 61.0121 78.1539 61.0712 78.1545C61.9385 73.6522 65.8987 70.2513 70.6542 70.2512C73.988 70.2512 76.9305 71.9233 78.6913 74.4739C81.061 69.764 85.9382 66.5325 91.5702 66.5325Z" fill="white"/>
<path d="M304.241 154.916C312.658 154.916 319.507 161.63 319.724 169.995C321.517 169.181 323.51 168.727 325.608 168.727C333.477 168.727 339.856 175.107 339.857 182.976C339.857 188.396 336.83 193.11 332.375 195.519H279.049C276.538 193.408 274.941 190.243 274.941 186.706C274.941 180.348 280.094 175.195 286.451 175.195C287.567 175.195 288.646 175.356 289.666 175.652C289.076 174.013 288.754 172.246 288.754 170.404C288.754 161.85 295.688 154.916 304.241 154.916Z" fill="white"/>
<path d="M184.778 270.217C183.91 254.587 186.947 198.726 188.682 168.281H193.02C194.466 202.26 197.358 255.266 196.925 270.217H184.778Z" fill="black"/>
<path d="M189.67 228.302C185.202 231.775 154.282 249.106 137.081 213.458C161.518 219.149 171.103 205.067 189.67 228.302Z" fill="black"/>
<path d="M191.879 211.722C196.347 215.196 227.267 232.526 244.468 196.879C220.031 202.57 210.446 188.488 191.879 211.722Z" fill="black"/>
<path d="M163.234 135.131C168.746 130.079 176.532 131.071 182.268 132.846C185.224 133.761 187.857 134.95 189.743 135.904C190.566 136.32 191.251 136.697 191.767 136.989C192.236 136.714 192.85 136.362 193.578 135.964C195.325 135.01 197.752 133.776 200.453 132.667C203.142 131.562 206.171 130.552 209.109 130.09C212.011 129.633 215.074 129.669 217.649 130.936C220.929 132.549 223.002 134.455 223.999 136.626C225.019 138.845 224.762 141.003 224.078 142.753C223.629 143.903 222.981 144.915 222.342 145.743C226.831 147.218 231.154 149.902 234.277 153.202C238.171 157.317 240.584 162.875 238.15 168.379C235.992 173.26 230.562 174.878 225.819 175.106C223.271 175.228 220.629 174.968 218.286 174.445C219.153 176.698 219.717 179.205 219.773 181.651C219.878 186.168 218.225 190.952 213.051 193.108C207.937 195.24 202.456 193.093 198.215 190.11C195.039 187.876 192.221 184.946 190.265 182.195C188.147 185.083 185.122 188.219 181.708 190.628C177.229 193.79 171.511 196.083 166.123 193.998C160.932 191.988 158.799 187.635 158.641 183.247C158.553 180.774 159.079 178.233 160.037 175.963C157.322 176.351 154.505 176.307 151.933 175.642C147.646 174.534 143.97 171.651 142.927 166.333C142.418 163.738 143.243 161.209 144.644 159.024C146.049 156.835 148.127 154.828 150.472 153.145C153.792 150.759 157.888 148.856 161.811 148.032C161.489 147.608 161.174 147.146 160.893 146.648C160.074 145.2 159.46 143.356 159.72 141.271C159.982 139.163 161.101 137.085 163.234 135.131Z" fill="white" stroke="black" stroke-width="4"/>
<ellipse cx="191.37" cy="159.092" rx="10.7153" ry="7.83533" transform="rotate(-1.51201 191.37 159.092)" fill="black"/>
</g>
<rect x="2" y="2" width="377" height="343" rx="8" stroke="black" stroke-width="4"/>
<defs>
<clipPath id="clip0_1252_288">
<rect width="381" height="347" rx="10" fill="white"/>
</clipPath>
</defs>
</svg>
