<svg width="496" height="611" viewBox="0 0 496 611" fill="none" xmlns="http://www.w3.org/2000/svg">
<ellipse cx="254.771" cy="543.28" rx="118.978" ry="33.7847" transform="rotate(-4.5384 254.771 543.28)" fill="#E9E9E9"/>
<path d="M322.674 358.436C319.608 353.497 318.699 345.925 321.941 340.628C324.884 335.818 331.356 333.564 336.66 335.333C343.722 337.69 348.134 342.799 352.757 351.935C357.657 361.617 358.302 374.58 350.143 379.148C341.605 383.929 332.395 363.65 331.242 362.937C330.551 362.51 325.449 362.904 322.674 358.436Z" fill="white" stroke="black" stroke-width="4" stroke-linejoin="round"/>
<path d="M331.4 360.333C330.518 368.92 304.448 431.814 300.569 426.741C294.14 412.648 285.618 393.01 285.875 391.308C286.664 386.073 303.942 358.096 317.472 343.855C324.246 340.317 332.468 349.937 331.4 360.333Z" fill="black" stroke="black" stroke-width="4"/>
<path d="M255.986 97.1522C249.671 84.6895 236.223 79.307 223.118 80.4277C205.981 81.8933 192.241 91.0035 185.955 105.391C182.999 112.154 182.194 134.174 186.5 144.942C190.429 154.767 200.829 159.474 208.118 157.706C210.483 160.374 222.047 166.888 237.017 165.592C251.987 164.296 260.748 155.555 263.521 144.538C266.293 133.522 260.759 125.321 260.642 124.835C260.524 124.349 263.88 112.73 255.986 97.1522Z" fill="white" stroke="black" stroke-width="4"/>
<path d="M248.014 114.389C250.662 114.389 253.792 116.315 254.352 117.432" stroke="black" stroke-width="2.5" stroke-linecap="round"/>
<path d="M222.218 173.134L222.218 164.631C230.046 166.574 239.144 166.221 247.889 163.659C248.637 165.983 248.701 170.229 249.199 173.134C249.199 177.728 247.196 182.689 238.158 184.01C231.022 185.052 220.807 182.432 222.218 173.134Z" fill="white" stroke="black" stroke-width="4"/>
<ellipse cx="232.458" cy="127.406" rx="2.46463" ry="3.94341" transform="rotate(-5.31776 232.458 127.406)" fill="black"/>
<ellipse cx="250.939" cy="124.964" rx="2.46463" ry="3.94341" transform="rotate(-5.31776 250.939 124.964)" fill="black"/>
<path d="M262.275 116.721C261.684 97.3139 245.842 87.5734 244.794 84.9466C245.473 108.963 213.213 132.222 207.809 136.105C187.9 121.897 183.044 157.031 208.872 157.456C194.111 159.389 180.533 144.312 175.626 136.105C165.168 118.613 167.959 102.545 172.697 90.3058C182.738 64.367 213.565 58.1813 224.575 61.8566C275.131 17.0761 293.483 24.7756 296.547 37.4092C329.116 10.4742 359.788 18.4702 366.917 32.6905C374.047 46.9108 369.026 60.4764 359.5 69.9896C344.721 84.7487 333.85 78.783 320.48 83.0545C307.11 87.326 312.148 112.343 295.644 131.266C281.45 147.539 264.795 137.719 266.4 133.728C267.684 130.536 263.744 126.312 261.613 124.599L262.275 116.721Z" fill="black" stroke="black" stroke-width="4"/>
<path d="M289.999 431.943C277.056 432.477 246.803 351.513 237.464 322.903C236.505 317.931 244.722 321.878 246.468 307.147C248.652 288.733 282.886 303.126 284.79 305.567C286.694 308.008 305.398 407.095 305.199 413.494C304.999 419.893 303.619 431.382 289.999 431.943Z" fill="black" stroke="black" stroke-width="4"/>
<path d="M67.988 219.265L73.6708 220.767C76.1523 226.663 82.2169 235.348 82.2169 235.348C71.2917 241.571 58.8444 243.16 55.8441 244.412C53.9631 245.779 42.9919 250.605 40.0129 248.98C38.8859 248.366 38.0113 246.707 38.9132 244.315C39.5512 242.624 45.7588 243.558 50.7506 239.889C45.9473 242.244 36.3074 242.048 34.0485 241.841C31.1859 241.579 30.4865 237.678 32.397 236.59C36.1099 234.476 38.7899 235.647 47.6742 234.081C45.1553 234.525 33.2341 235.181 31.3443 234.28C28.1135 232.739 27.6284 229.369 29.5292 228.086C32.3857 226.158 42.5471 228.501 47.2829 228.112C42.0113 227.924 34.4175 225.622 32.6845 224.227C30.9515 222.832 30.4956 220.307 32.3845 219.231C35.7178 217.333 47.0754 221.976 53.6677 220.083C53.8228 217.113 52.2143 215.265 49.5078 214.645C45.7271 213.78 45.2341 210.766 46.5764 209.114C47.9186 207.462 54.1988 208.443 58.7684 210.255C63.338 212.068 66.132 215.19 67.988 219.265Z" fill="white" stroke="black" stroke-width="4" stroke-linejoin="round"/>
<path d="M186.797 427.797C186.542 422.869 187.653 340.646 191.248 318.599C200.879 295.946 229.518 300.088 240.911 305.379C244.824 307.196 221.385 406.314 222.045 422.327C222.621 436.315 227.368 511.765 227.368 527.169C213.802 513.716 202.946 531.953 201.797 527.168C200.648 522.383 187.117 433.956 186.797 427.797Z" fill="black" stroke="black" stroke-width="4"/>
<path d="M177.297 181.796C193.065 175.553 207.495 171.848 221.855 173.287C221.855 177.663 222.581 184.376 237.146 183.764C248.797 183.274 250.293 174.763 249.337 170.523C253.295 169.945 265.397 168.923 284.124 169.825C302.851 170.726 331.265 184.665 331.778 212.382C332.137 231.795 286.101 235.226 286.463 237.7C286.824 240.174 291.686 301.111 289.524 310.522C287.363 319.934 195.778 315.631 188.779 316.149C183.18 316.562 183.297 231.296 183.297 224.296C167.297 229.796 78.9721 240.702 74.7972 239.796C70.6224 238.89 67.1224 214.89 71.2972 215.796C75.4721 216.702 170.839 184.354 177.297 181.796Z" fill="#336BEC" stroke="black" stroke-width="4"/>
<path d="M212.342 523.509C198.425 527.981 194.69 540.622 194.539 549.031C194.428 555.198 195.053 558.689 202.072 559.299C207.86 559.802 228.568 555.12 232.903 551.677C237.237 548.235 234.547 540.552 233.683 538.462C229.6 528.576 223.332 519.978 212.342 523.509Z" fill="white" stroke="black" stroke-width="4"/>
<path d="M228.932 144.796C230.018 147.57 238.313 151.442 244.25 149.752" stroke="black" stroke-width="2.5" stroke-linecap="round"/>
<path d="M242.74 125.964C242.997 127.241 243.776 130.48 244.833 133.222C245.891 135.964 244.54 137.83 243.732 138.421" stroke="black" stroke-width="2.5" stroke-linecap="round"/>
<path d="M171.759 229.426L178.12 231.377C180.612 237.588 187.014 246.912 187.014 246.912C174.288 252.48 160.088 253.197 156.618 254.26C154.411 255.52 141.708 259.657 138.419 257.778C137.175 257.068 136.274 255.307 137.427 252.927C138.243 251.244 145.23 252.652 151.09 249.263C145.515 251.321 134.596 250.418 132.046 250.043C128.815 249.566 128.235 245.526 130.46 244.552C134.785 242.66 137.76 244.053 147.919 243.099C145.038 243.369 131.486 243.172 129.393 242.112C125.814 240.301 125.447 236.82 127.672 235.646C131.016 233.882 142.41 237.019 147.8 236.966C141.834 236.389 133.349 233.482 131.46 231.929C129.572 230.376 129.192 227.761 131.393 226.798C135.276 225.1 147.9 230.675 155.478 229.22C155.815 226.194 154.092 224.186 151.058 223.356C146.818 222.196 146.424 219.077 148.036 217.485C149.648 215.894 156.715 217.354 161.797 219.541C166.879 221.728 169.877 225.124 171.759 229.426Z" fill="white" stroke="black" stroke-width="4" stroke-linejoin="round"/>
<path d="M172.318 230.976C172.244 230.468 183.217 226.787 185.943 226.908L206.141 235.378L201.739 251.597C197.712 251.839 183.793 251.287 181.672 251.597C179.02 251.984 177.173 247.355 174.516 243.07C171.859 238.786 172.392 231.484 172.318 230.976Z" fill="#336BEC"/>
<path d="M278.605 190.844C283.225 198.254 287.704 201.24 262.891 207.794C245.765 212.318 184.888 227.277 173.159 230.002C170.407 231.92 173.876 250.817 181.01 252.604C188.143 254.392 255.615 246.756 287.875 236.988" stroke="black" stroke-width="4" stroke-linecap="round"/>
<path d="M419.125 274.478C421.223 272.739 423.831 271.745 426.541 271.651C429.251 271.556 431.91 272.367 434.102 273.956C434.82 274.481 434.344 274.372 435.118 267.897C435.713 262.939 436.737 255.503 436.846 254.615C436.97 253.587 437.81 254.566 419.577 252.692C404.103 251.102 405.206 251.148 405.192 251.886C404.861 268.029 404.577 273.661 404.061 275.959C402.177 284.337 385.741 284.854 383.569 275.637C382.073 269.286 388.809 264.995 395.445 265.724C402.549 266.502 400.127 273.922 401.342 248.958C401.58 244.079 400.888 241.593 403.424 241.389C415.083 241.051 426.737 241.918 438.204 243.975C440.787 244.45 440.671 246.049 440.644 250.25C440.597 257.099 439.678 263.102 437.7 277.207C437.111 281.421 436.314 285.192 432.168 287.268C421.535 292.598 410.788 281.401 419.125 274.478Z" fill="black"/>
<path d="M102.705 118.907C102.705 118.907 97.319 108.767 97.7631 109.701C90.734 113.554 90.5299 113.231 83.0112 117.985C80.9767 119.512 82.8899 121.244 85.2962 125.495C97.6096 147.245 95.6916 139.68 89.2711 142.818C83.2729 145.748 79.8723 152.975 84.5307 157.543C91.2925 164.173 104.908 154.953 102.024 146.864C101.232 144.646 98.4621 139.734 90.1151 125.913C89.7323 125.281 88.7758 125.832 102.705 118.907Z" fill="black"/>
</svg>
