<svg width="16" height="16" viewBox="0 0 16 16" fill="none" xmlns="http://www.w3.org/2000/svg">
<path d="M6.66434 7.34728C6.54001 7.43609 6.38015 7.48938 6.18476 7.48938H5.0835V6.33483H6.11371C6.22029 6.33483 6.3091 6.33483 6.39791 6.35259C6.48672 6.37035 6.55777 6.40588 6.62882 6.4414C6.69986 6.49469 6.75316 6.54798 6.78868 6.61902C6.8242 6.69007 6.84197 6.79665 6.84197 6.90322C6.84197 7.09861 6.78868 7.25847 6.66434 7.34728Z" fill="#9C9C9C"/>
<path d="M6.54001 9.5498C6.4512 9.56756 6.34462 9.58533 6.23805 9.58533H5.0835V8.21763H6.25581C6.48672 8.21763 6.68211 8.27092 6.8242 8.37749C6.9663 8.50183 7.03735 8.67945 7.03735 8.92812C7.03735 9.05246 7.00183 9.15903 6.9663 9.24784C6.91302 9.33666 6.85973 9.38994 6.78868 9.44323C6.71763 9.49652 6.62882 9.53204 6.54001 9.5498Z" fill="#9C9C9C"/>
<path d="M10.2346 7.50714C10.4655 7.50714 10.6609 7.57819 10.7852 7.70252C10.9095 7.82686 10.9983 8.00448 11.0339 8.27092H9.43526C9.43526 8.21206 9.44745 8.1532 9.46173 8.08424C9.46469 8.06996 9.46774 8.05525 9.47079 8.04001C9.48855 7.9512 9.52407 7.86238 9.59512 7.79134C9.66617 7.72029 9.73722 7.64924 9.84379 7.59595C9.95037 7.54266 10.0747 7.50714 10.2346 7.50714Z" fill="#9C9C9C"/>
<path fill-rule="evenodd" clip-rule="evenodd" d="M8 0C3.58172 0 0 3.58172 0 8C0 12.4183 3.58172 16 8 16C12.4183 16 16 12.4183 16 8C16 3.58172 12.4183 0 8 0ZM6.9663 5.57105C6.77092 5.51776 6.55777 5.5 6.32686 5.5H4V10.4024H6.38015C6.59329 10.4024 6.80644 10.3669 7.01959 10.3136C7.23274 10.2603 7.42812 10.1715 7.58798 10.0649C7.74784 9.95834 7.88994 9.79848 7.97875 9.62085C8.06756 9.44323 8.12085 9.23008 8.12085 8.98141C8.12085 8.67945 8.03204 8.41302 7.88994 8.19987C7.74784 7.98672 7.51693 7.82686 7.21497 7.73805C7.42812 7.63148 7.60575 7.48938 7.71232 7.32952C7.83666 7.16966 7.88994 6.95651 7.88994 6.70784C7.88994 6.49469 7.85442 6.2993 7.78337 6.13944C7.71232 5.97958 7.60575 5.85525 7.46365 5.76643C7.32155 5.67762 7.16169 5.60657 6.9663 5.57105ZM10.3056 9.78071C10.0214 9.78071 9.80827 9.70966 9.66617 9.56756C9.52407 9.42547 9.4175 9.15903 9.4175 8.87484H11.993C12.0108 8.59064 11.993 8.34197 11.9575 8.0933C11.8865 7.84462 11.7799 7.61371 11.6378 7.41833C11.4957 7.20518 11.3181 7.06308 11.0872 6.93875C10.8562 6.81441 10.5898 6.76112 10.2879 6.76112C10.0037 6.76112 9.77275 6.81441 9.54184 6.90322C9.32869 6.99203 9.1333 7.13413 8.97344 7.29399C8.81358 7.47161 8.68925 7.667 8.60043 7.89791C8.51162 8.12882 8.4761 8.37749 8.4761 8.64393C8.4761 8.92812 8.51162 9.1768 8.60043 9.4077C8.67148 9.63861 8.79582 9.834 8.95568 9.99386C9.11554 10.1715 9.29316 10.2958 9.52407 10.3846C9.75498 10.4734 10.0037 10.5267 10.2879 10.5267C10.6964 10.5267 11.0339 10.4202 11.3181 10.2425C11.6023 10.0471 11.8154 9.74519 11.9575 9.31889H11.0872C11.0516 9.42547 10.9628 9.53204 10.8207 9.63861C10.6786 9.72743 10.501 9.78071 10.3056 9.78071ZM11.2115 5.83748H9.22211V6.31707H11.2115V5.83748Z" fill="#9C9C9C"/>
</svg>
