<svg width="187" height="121" viewBox="0 0 187 121" fill="none" xmlns="http://www.w3.org/2000/svg">
<path d="M44.0825 34.3227L163.727 2.43944L168.39 18.9359C168.39 18.9359 155.111 26.8234 159.535 42.4762C163.945 58.0831 179.37 58.1164 179.461 58.1164L184.123 74.6129L61.5823 107.268L61.5802 107.26L22.8734 117.575L18.2113 101.079C18.2113 101.079 32.5814 92.9 28.158 77.2473C23.7344 61.5945 7.13861 61.8983 7.13861 61.8983L2.47656 45.4019L44.0804 34.3152L44.0825 34.3227Z" fill="#F5FE8E"/>
<path d="M44.0825 34.3227L42.1499 34.8377L42.6938 36.7623L44.6264 36.2473L44.0825 34.3227ZM163.727 2.43944L165.66 1.92444L165.116 -0.000173704L163.184 0.514819L163.727 2.43944ZM168.39 18.9359L169.437 20.6489L170.734 19.8784L170.322 18.4209L168.39 18.9359ZM159.535 42.4762L157.602 42.9912L157.602 42.9912L159.535 42.4762ZM179.461 58.1164L181.394 57.6014L180.977 56.1251L179.437 56.1241L179.461 58.1164ZM184.123 74.6129L184.667 76.5375L186.6 76.0225L186.056 74.0979L184.123 74.6129ZM61.5823 107.268L59.6498 107.783L60.1937 109.707L62.1262 109.193L61.5823 107.268ZM61.5802 107.26L63.5128 106.745L62.9689 104.821L61.0363 105.336L61.5802 107.26ZM22.8734 117.575L20.9408 118.09L21.4847 120.015L23.4173 119.5L22.8734 117.575ZM18.2113 101.079L17.1957 99.3471L15.8589 100.108L16.2788 101.594L18.2113 101.079ZM28.158 77.2473L30.0906 76.7323L30.0906 76.7323L28.158 77.2473ZM7.13861 61.8983L5.20605 62.4133L5.63159 63.919L7.20151 63.8903L7.13861 61.8983ZM2.47656 45.4019L1.93265 43.4772L8.91685e-05 43.9922L0.544004 45.9168L2.47656 45.4019ZM44.0804 34.3152L46.0129 33.8002L45.469 31.8756L43.5364 32.3906L44.0804 34.3152ZM44.0825 34.3227L44.6264 36.2473L164.271 4.36406L163.727 2.43944L163.184 0.514819L43.5386 32.3981L44.0825 34.3227ZM163.727 2.43944L161.795 2.95443L166.457 19.4509L168.39 18.9359L170.322 18.4209L165.66 1.92444L163.727 2.43944ZM168.39 18.9359C167.342 17.2229 167.341 17.2235 167.34 17.224C167.34 17.2243 167.339 17.2249 167.338 17.2253C167.337 17.2262 167.335 17.2273 167.333 17.2284C167.329 17.2308 167.324 17.2336 167.319 17.2369C167.308 17.2435 167.294 17.2522 167.277 17.2628C167.242 17.284 167.196 17.3131 167.138 17.3502C167.022 17.4244 166.861 17.5304 166.662 17.6684C166.265 17.9442 165.716 18.3489 165.078 18.883C163.805 19.9482 162.157 21.5455 160.653 23.6809C157.617 27.9913 155.197 34.48 157.602 42.9912L159.535 42.4762L161.467 41.9613C159.449 34.8197 161.456 29.5382 163.954 25.9916C165.217 24.1985 166.611 22.8457 167.69 21.9428C168.227 21.4928 168.681 21.1591 168.993 20.9423C169.149 20.8341 169.269 20.7554 169.345 20.7064C169.384 20.6819 169.411 20.6649 169.427 20.6553C169.434 20.6505 169.439 20.6475 169.441 20.6465C169.442 20.6459 169.442 20.6459 169.441 20.6463C169.441 20.6465 169.44 20.6468 169.44 20.6472C169.439 20.6474 169.439 20.6478 169.438 20.648C169.438 20.6484 169.437 20.6489 168.39 18.9359ZM159.535 42.4762L157.602 42.9912C160.001 51.4801 165.457 55.8108 170.319 57.9662C175.108 60.0894 179.309 60.1086 179.486 60.1088L179.461 58.1164L179.437 56.1241C179.523 56.1241 175.966 56.1267 171.917 54.3316C167.941 52.5687 163.479 49.0793 161.467 41.9613L159.535 42.4762ZM179.461 58.1164L177.529 58.6314L182.191 75.1279L184.123 74.6129L186.056 74.0979L181.394 57.6014L179.461 58.1164ZM184.123 74.6129L183.579 72.6883L61.0384 105.343L61.5823 107.268L62.1262 109.193L184.667 76.5375L184.123 74.6129ZM61.5823 107.268L63.5149 106.753L63.5128 106.745L61.5802 107.26L59.6477 107.775L59.6498 107.783L61.5823 107.268ZM61.5802 107.26L61.0363 105.336L22.3294 115.65L22.8734 117.575L23.4173 119.5L62.1241 109.185L61.5802 107.26ZM22.8734 117.575L24.8059 117.06L20.1439 100.564L18.2113 101.079L16.2788 101.594L20.9408 118.09L22.8734 117.575ZM18.2113 101.079C19.2269 102.81 19.2278 102.81 19.2287 102.809C19.2291 102.809 19.2301 102.808 19.2308 102.808C19.2323 102.807 19.2341 102.806 19.236 102.805C19.2399 102.803 19.2447 102.8 19.2503 102.797C19.2616 102.79 19.2763 102.781 19.2943 102.771C19.3303 102.75 19.3795 102.72 19.441 102.683C19.5639 102.607 19.7358 102.499 19.9485 102.359C20.3735 102.078 20.9635 101.664 21.6515 101.12C23.0231 100.035 24.8086 98.4087 26.4522 96.2451C29.7639 91.8856 32.5122 85.3017 30.0906 76.7323L28.158 77.2473L26.2254 77.7623C28.2272 84.8456 26.0021 90.1773 23.2347 93.8203C21.8387 95.6579 20.3081 97.0549 19.1236 97.9921C18.5335 98.4591 18.0353 98.8072 17.6918 99.0344C17.5202 99.1479 17.3877 99.2309 17.3022 99.2832C17.2595 99.3093 17.2286 99.3277 17.2105 99.3384C17.2015 99.3438 17.1956 99.3472 17.1931 99.3486C17.1918 99.3493 17.1914 99.3496 17.1919 99.3493C17.1921 99.3492 17.1925 99.349 17.1931 99.3486C17.1934 99.3484 17.1941 99.3481 17.1942 99.348C17.1949 99.3476 17.1957 99.3471 18.2113 101.079ZM28.158 77.2473L30.0906 76.7323C27.6677 68.1592 21.8536 63.9101 16.7192 61.8565C14.1728 60.838 11.7878 60.3529 10.0422 60.1208C9.16658 60.0044 8.44387 59.9505 7.93183 59.9258C7.67558 59.9135 7.47143 59.9085 7.32652 59.9066C7.25404 59.9056 7.19631 59.9055 7.15423 59.9056C7.13319 59.9057 7.11605 59.9058 7.10293 59.9059C7.09637 59.906 7.09081 59.9061 7.08627 59.9062C7.084 59.9062 7.08199 59.9062 7.08022 59.9062C7.07935 59.9063 7.07822 59.9063 7.07778 59.9063C7.07671 59.9063 7.07571 59.9063 7.13861 61.8983C7.20151 63.8903 7.20064 63.8903 7.19983 63.8903C7.19964 63.8903 7.19889 63.8904 7.19852 63.8904C7.19776 63.8904 7.19726 63.8904 7.197 63.8904C7.19649 63.8904 7.19695 63.8904 7.19838 63.8904C7.20125 63.8903 7.20798 63.8903 7.21848 63.8902C7.23947 63.8902 7.27547 63.8902 7.32563 63.8909C7.42598 63.8922 7.58269 63.8959 7.78888 63.9058C8.2017 63.9257 8.81008 63.9704 9.55942 64.07C11.0637 64.2701 13.1042 64.6874 15.2597 65.5496C19.529 67.2572 24.2246 70.6826 26.2254 77.7623L28.158 77.2473ZM7.13861 61.8983L9.07117 61.3833L4.40912 44.8869L2.47656 45.4019L0.544004 45.9168L5.20605 62.4133L7.13861 61.8983ZM2.47656 45.4019L3.02048 47.3265L44.6243 36.2398L44.0804 34.3152L43.5364 32.3906L1.93265 43.4772L2.47656 45.4019ZM44.0804 34.3152L42.1478 34.8302L42.1499 34.8377L44.0825 34.3227L46.015 33.8077L46.0129 33.8002L44.0804 34.3152Z" fill="black"/>
<path d="M54.3544 79.1828L49.5676 61.2197L53.2104 60.2489L55.085 67.2835L62.1446 65.4022L60.2701 58.3677L63.9129 57.3969L68.6998 75.36L65.0569 76.3308L62.948 68.417L55.8884 70.2982L57.9973 78.2121L54.3544 79.1828ZM85.0353 68.6391C83.9251 70.8005 82.0636 72.2294 79.4507 72.9256C76.8379 73.6219 74.5038 73.3111 72.4485 71.9932C70.4055 70.6541 69.0202 68.6196 68.2927 65.8895C67.5652 63.1595 67.7543 60.7053 68.8601 58.5272C69.9826 56.3445 71.8502 54.9051 74.463 54.2088C77.0759 53.5125 79.4038 53.8339 81.4468 55.173C83.4899 56.5121 84.8751 58.5467 85.6026 61.2767C86.3302 64.0068 86.141 66.4609 85.0353 68.6391ZM74.5107 69.1297C75.6985 70.0867 77.088 70.3533 78.6792 69.9293C80.2703 69.5053 81.3284 68.5955 81.8534 67.1999C82.3739 65.7875 82.3843 64.1434 81.8844 62.2676C81.3845 60.3917 80.5574 58.9708 79.4031 58.0048C78.2487 57.0388 76.876 56.7678 75.2849 57.1918C73.6937 57.6158 72.6211 58.5384 72.0671 59.9597C71.5298 61.3765 71.5111 63.0228 72.011 64.8987C72.5064 66.7578 73.3396 68.1681 74.5107 69.1297ZM89.9784 69.6897L85.1916 51.7265L93.231 49.5842C95.1571 49.0709 96.7219 49.1203 97.9255 49.7324C99.1078 50.3321 99.8842 51.3271 100.255 52.7173C100.723 54.4759 100.104 55.9234 98.3982 57.0597L98.4183 57.1351C99.5035 57.1688 100.453 57.4989 101.265 58.1254C102.095 58.7475 102.655 59.6028 102.945 60.6915C103.369 62.2826 103.174 63.671 102.359 64.8566C101.525 66.1014 100.145 66.9805 98.2188 67.4937L89.9784 69.6897ZM91.4789 60.6795L92.8179 65.7041L97.0135 64.5861C97.8844 64.354 98.5131 63.9533 98.8995 63.3839C99.2815 62.7978 99.3743 62.1362 99.1779 61.3993C98.9592 60.5786 98.5132 60.0158 97.84 59.7109C97.1835 59.4015 96.4282 59.3606 95.574 59.5882L91.4789 60.6795ZM90.7626 57.9913L94.7069 56.9402C95.5109 56.7259 96.1066 56.3699 96.4941 55.872C96.8772 55.3573 96.9772 54.7566 96.7942 54.0699C96.6157 53.4 96.2428 52.9432 95.6757 52.6997C95.1253 52.4518 94.4481 52.4349 93.6442 52.6491L89.6244 53.7203L90.7626 57.9913ZM106.466 65.2961L101.679 47.333L109.718 45.1906C111.644 44.6774 113.209 44.7268 114.413 45.3388C115.595 45.9386 116.371 46.9336 116.742 48.3237C117.21 50.0824 116.592 51.5299 114.885 52.6662L114.905 52.7416C115.991 52.7753 116.94 53.1054 117.752 53.7319C118.582 54.3539 119.142 55.2093 119.432 56.298C119.856 57.8891 119.661 59.2775 118.847 60.4631C118.012 61.7079 116.632 62.5869 114.706 63.1002L106.466 65.2961ZM107.966 56.2859L109.305 61.3106L113.501 60.1925C114.372 59.9605 115 59.5597 115.387 58.9904C115.769 58.4042 115.861 57.7427 115.665 57.0058C115.446 56.1851 115 55.6223 114.327 55.3173C113.671 55.0079 112.915 54.967 112.061 55.1947L107.966 56.2859ZM107.25 53.5977L111.194 52.5467C111.998 52.3324 112.594 51.9763 112.981 51.4784C113.364 50.9638 113.464 50.3631 113.281 49.6764C113.103 49.0064 112.73 48.5497 112.163 48.3062C111.612 48.0582 110.935 48.0414 110.131 48.2556L106.112 49.3268L107.25 53.5977ZM127.651 59.6507L125.803 52.7166L116.885 43.2809L120.854 42.2231L124.987 46.8262L126.85 49.0741L126.901 49.0607C127.089 47.952 127.264 46.9907 127.424 46.1768L128.667 40.141L132.486 39.1234L129.446 51.7459L131.294 58.6799L127.651 59.6507Z" fill="black"/>
</svg>
