<svg width="181" height="100" viewBox="0 0 181 100" fill="none" xmlns="http://www.w3.org/2000/svg">
<path d="M54.3886 7.51915L138.124 17.8006L138.124 17.8015L178.115 22.7118L176.026 39.7246C176.002 39.7282 160.6 42.0771 158.619 58.2079C156.637 74.3505 171.064 80.1312 171.064 80.1312L168.975 97.144L128.983 92.2335L128.983 92.2326L42.2205 81.5795L42.2214 81.5717L2.22879 76.6612L4.31783 59.6474C4.43 59.6323 20.8783 57.3915 22.8536 41.3038C24.8298 25.2088 9.37048 19.2768 9.279 19.2419L11.3679 2.229L54.3896 7.5114L54.3886 7.51915Z" fill="#79C475"/>
<path d="M54.3886 7.51915L52.4035 7.27541L52.1598 9.26051L54.1449 9.50424L54.3886 7.51915ZM138.124 17.8006L140.109 18.0443L140.353 16.0592L138.368 15.8155L138.124 17.8006ZM138.124 17.8015L136.139 17.5578L135.895 19.5429L137.88 19.7866L138.124 17.8015ZM178.115 22.7118L180.1 22.9555L180.343 20.9704L178.358 20.7267L178.115 22.7118ZM176.026 39.7246L176.326 41.7019L177.826 41.4738L178.011 39.9684L176.026 39.7246ZM158.619 58.2079L156.634 57.9641L156.634 57.9642L158.619 58.2079ZM171.064 80.1312L173.049 80.3749L173.237 78.8471L171.808 78.2746L171.064 80.1312ZM168.975 97.144L168.732 99.1291L170.717 99.3728L170.961 97.3878L168.975 97.144ZM128.983 92.2335L126.998 91.9898L126.754 93.9749L128.739 94.2186L128.983 92.2335ZM128.983 92.2326L130.968 92.4763L131.212 90.4912L129.227 90.2475L128.983 92.2326ZM42.2205 81.5795L40.2354 81.3357L39.9916 83.3208L41.9767 83.5646L42.2205 81.5795ZM42.2214 81.5717L44.2065 81.8155L44.4503 79.8304L42.4652 79.5866L42.2214 81.5717ZM2.22879 76.6612L0.243698 76.4175L-4.04647e-05 78.4026L1.98505 78.6463L2.22879 76.6612ZM4.31783 59.6474L4.05102 57.6653L2.52089 57.8712L2.33273 59.4037L4.31783 59.6474ZM22.8536 41.3038L24.8387 41.5475L24.8387 41.5475L22.8536 41.3038ZM9.279 19.2419L7.29391 18.9981L7.10318 20.5515L8.56516 21.1101L9.279 19.2419ZM11.3679 2.229L11.6117 0.243912L9.62657 0.000172943L9.38283 1.98527L11.3679 2.229ZM54.3896 7.5114L56.3747 7.75514L56.6184 5.77004L54.6333 5.5263L54.3896 7.5114ZM54.3886 7.51915L54.1449 9.50424L137.88 19.7857L138.124 17.8006L138.368 15.8155L54.6323 5.53406L54.3886 7.51915ZM138.124 17.8006L136.139 17.5568L136.139 17.5578L138.124 17.8015L140.109 18.0453L140.109 18.0443L138.124 17.8006ZM138.124 17.8015L137.88 19.7866L177.871 24.6969L178.115 22.7118L178.358 20.7267L138.368 15.8164L138.124 17.8015ZM178.115 22.7118L176.13 22.468L174.041 39.4809L176.026 39.7246L178.011 39.9684L180.1 22.9555L178.115 22.7118ZM176.026 39.7246L175.725 37.7474C175.586 37.7686 171.419 38.4144 166.984 41.2301C162.487 44.0857 157.712 49.1876 156.634 57.9641L158.619 58.2079L160.604 58.4516C161.507 51.0973 165.423 46.9594 169.128 44.6069C172.896 42.2147 176.443 41.6842 176.326 41.7019L176.026 39.7246ZM158.619 58.2079L156.634 57.9642C155.555 66.7504 158.97 72.8085 162.663 76.6155C164.491 78.5003 166.38 79.83 167.811 80.69C168.529 81.1212 169.137 81.4381 169.575 81.6505C169.794 81.7568 169.971 81.8372 170.097 81.8929C170.161 81.9208 170.212 81.9425 170.249 81.9583C170.268 81.9661 170.283 81.9725 170.295 81.9774C170.301 81.9798 170.306 81.9819 170.311 81.9836C170.313 81.9845 170.315 81.9853 170.316 81.9859C170.317 81.9863 170.318 81.9867 170.319 81.9869C170.32 81.9873 170.321 81.9877 171.064 80.1312C171.808 78.2746 171.809 78.275 171.81 78.2753C171.81 78.2754 171.811 78.2757 171.811 78.2758C171.812 78.2762 171.813 78.2764 171.813 78.2765C171.814 78.2768 171.814 78.2768 171.813 78.2764C171.811 78.2756 171.805 78.2734 171.797 78.2699C171.78 78.2628 171.75 78.2501 171.708 78.2317C171.625 78.1948 171.493 78.1353 171.322 78.052C170.978 77.8852 170.475 77.6243 169.871 77.2614C168.659 76.5331 167.065 75.4087 165.534 73.8305C162.509 70.7115 159.701 65.8079 160.604 58.4516L158.619 58.2079ZM171.064 80.1312L169.079 79.8874L166.99 96.9003L168.975 97.144L170.961 97.3878L173.049 80.3749L171.064 80.1312ZM168.975 97.144L169.219 95.1589L129.227 90.2484L128.983 92.2335L128.739 94.2186L168.732 99.1291L168.975 97.144ZM128.983 92.2335L130.968 92.4773L130.968 92.4763L128.983 92.2326L126.998 91.9888L126.998 91.9898L128.983 92.2335ZM128.983 92.2326L129.227 90.2475L42.4642 79.5944L42.2205 81.5795L41.9767 83.5646L128.739 94.2177L128.983 92.2326ZM42.2205 81.5795L44.2056 81.8232L44.2065 81.8155L42.2214 81.5717L40.2363 81.328L40.2354 81.3357L42.2205 81.5795ZM42.2214 81.5717L42.4652 79.5866L2.47253 74.6761L2.22879 76.6612L1.98505 78.6463L41.9777 83.5568L42.2214 81.5717ZM2.22879 76.6612L4.21388 76.905L6.30292 59.8911L4.31783 59.6474L2.33273 59.4037L0.243698 76.4175L2.22879 76.6612ZM4.31783 59.6474L4.58463 61.6295C4.75679 61.6064 9.19809 60.9939 13.9013 58.2266C18.6636 55.4245 23.7566 50.3604 24.8387 41.5475L22.8536 41.3038L20.8685 41.0601C19.9753 48.3349 15.8565 52.4351 11.8728 54.7791C7.82998 57.1579 3.99104 57.6734 4.05102 57.6653L4.31783 59.6474ZM22.8536 41.3038L24.8387 41.5475C25.9217 32.7268 22.1909 26.6297 18.2299 22.8106C14.3214 19.0421 10.1481 17.4329 9.99284 17.3736L9.279 19.2419L8.56516 21.1101C8.50143 21.0858 12.1035 22.4601 15.4535 25.6901C18.751 28.8695 21.7617 33.7858 20.8685 41.0601L22.8536 41.3038ZM9.279 19.2419L11.2641 19.4856L13.353 2.47274L11.3679 2.229L9.38283 1.98527L7.29391 18.9981L9.279 19.2419ZM11.3679 2.229L11.1242 4.2141L54.1458 9.49649L54.3896 7.5114L54.6333 5.5263L11.6117 0.243912L11.3679 2.229ZM54.3896 7.5114L52.4045 7.26766L52.4035 7.27541L54.3886 7.51915L56.3737 7.76289L56.3747 7.75514L54.3896 7.5114Z" fill="black"/>
<path d="M60.4056 54.5957L60.5808 52.1024L60.5291 52.0961C59.1592 53.8663 57.3129 54.6089 54.9904 54.3237C52.2893 53.992 50.2401 52.8323 48.8426 50.8445C47.4623 48.8588 46.9432 46.4725 47.2854 43.6854C47.6741 40.5198 48.989 38.1316 51.23 36.5207C52.9516 35.3001 55.0167 34.8376 57.4252 35.1334C59.679 35.4101 61.4082 36.19 62.6128 37.473C63.8346 38.7582 64.4852 40.3574 64.5646 42.2707L60.9002 41.8207C60.7906 40.8642 60.4169 40.0674 59.7791 39.4303C59.1435 38.7759 58.2579 38.3791 57.1224 38.2396C55.4536 38.0347 54.0883 38.487 53.0265 39.5966C51.9819 40.7082 51.3413 42.2275 51.1047 44.1544C50.8703 46.064 51.1426 47.6866 51.9216 49.0222C52.7178 50.3599 53.8988 51.1248 55.4643 51.317C56.8407 51.486 58.0279 51.204 59.026 50.4708C60.0262 49.7204 60.5929 48.8033 60.726 47.7195L60.7387 47.6162L56.3 47.0712L56.6549 44.1809L64.4225 45.1347L63.2185 54.941L60.4056 54.5957ZM65.8346 55.2623L68.1001 36.8108L81.6742 38.4775L81.2876 41.6259L71.4555 40.4186L70.9485 44.5476L79.5678 45.6059L79.1907 48.6769L70.5714 47.6186L69.9599 52.5992L79.8695 53.8159L79.4861 56.9385L65.8346 55.2623ZM89.464 58.5565C86.8662 58.2376 84.8427 57.081 83.3936 55.0869C81.9638 53.0776 81.419 50.6881 81.7591 47.9182C82.1013 45.1312 83.1929 42.9251 85.0341 41.3C86.8752 39.6749 89.129 39.0261 91.7957 39.3535C93.9978 39.6239 95.6894 40.4254 96.8705 41.7579C98.0709 43.0754 98.6623 44.6586 98.6449 46.5076L94.9288 46.0513C94.8729 45.0839 94.5347 44.2828 93.9141 43.6477C93.3108 43.0148 92.4758 42.6329 91.4091 42.5019C89.7747 42.3012 88.4535 42.7502 87.4454 43.8489C86.4373 44.9476 85.815 46.4603 85.5784 48.3872C85.3439 50.2968 85.6087 51.9098 86.3726 53.226C87.1538 54.5444 88.3099 55.2976 89.8411 55.4856C90.925 55.6187 91.8641 55.4371 92.6585 54.9409C93.455 54.4275 93.9737 53.6878 94.2145 52.722L97.879 53.1719C97.5624 54.8969 96.7043 56.2672 95.3048 57.2828C93.7507 58.4193 91.8038 58.8438 89.464 58.5565ZM99.0752 59.3437L101.341 40.8923L105.083 41.3517L104.18 48.7065L112.179 42.2231L116.824 42.7934L108.692 49.2868L115.023 61.3019L110.636 60.7632L105.759 51.4152L103.641 53.0935L102.817 59.8031L99.0752 59.3437ZM129.76 60.8062C127.923 62.3968 125.663 63.0274 122.979 62.6979C120.295 62.3683 118.246 61.2086 116.831 59.2187C115.436 57.2137 114.911 54.8091 115.255 52.0048C115.599 49.2005 116.691 46.9945 118.53 45.3866C120.386 43.7808 122.656 43.1427 125.34 43.4723C128.024 43.8018 130.063 44.9691 131.459 46.9741C132.854 48.9791 133.38 51.3837 133.035 54.188C132.691 56.9922 131.599 59.1983 129.76 60.8062ZM119.814 57.3321C120.558 58.6634 121.748 59.4294 123.382 59.6301C125.017 59.8308 126.338 59.3818 127.346 58.2831C128.356 57.1672 128.979 55.6459 129.216 53.719C129.453 51.7922 129.216 50.1652 128.506 48.8381C127.795 47.5109 126.623 46.747 124.989 46.5464C123.354 46.3457 122.015 46.8012 120.97 47.9128C119.943 49.0266 119.311 50.5469 119.074 52.4738C118.84 54.3834 119.086 56.0029 119.814 57.3321Z" fill="black"/>
</svg>
