<svg width="121" height="101" viewBox="0 0 121 101" fill="none" xmlns="http://www.w3.org/2000/svg">
<g clip-path="url(#clip0_1536_179)">
<path d="M100.837 4.41567L4.40454 25.9414L20.1286 96.3832L116.561 74.8575L100.837 4.41567Z" fill="white" stroke="black" stroke-width="4" stroke-linecap="round" stroke-linejoin="round"/>
<path d="M21.0929 22.2813C15.9052 23.2419 5.53003 25.2783 5.53003 25.7397C6.4907 31.1192 8.52731 42.1089 8.98844 43.0311C9.44956 43.9534 20.3243 40.7255 25.7041 38.9963L21.0929 22.2813Z" fill="black"/>
<path d="M99.4835 4.98926C94.2959 5.94993 83.9207 7.98636 83.9207 8.44766C84.8813 13.8272 86.9179 24.8169 87.3791 25.7391C87.8402 26.6614 98.7149 23.4335 104.095 21.7043L99.4835 4.98926Z" fill="black"/>
<path d="M108.706 40.7261C103.518 41.6867 93.1431 43.7232 93.1431 44.1845C94.1037 49.564 96.1404 60.5537 96.6015 61.4759C97.0626 62.3982 107.937 59.1703 113.317 57.4411L108.706 40.7261Z" fill="black"/>
<path d="M29.4361 58.2241C24.2485 59.1848 13.8733 61.2212 13.8733 61.6825C14.834 67.0621 16.8706 78.0518 17.3317 78.974C17.7928 79.8962 28.6676 76.6684 34.0473 74.9392L29.4361 58.2241Z" fill="black"/>
<path d="M21.856 22.0459L37.58 92.4877" stroke="black" stroke-width="4" stroke-linecap="round" stroke-linejoin="round"/>
<path d="M83.2058 8.35156L98.9299 78.7933" stroke="black" stroke-width="4" stroke-linecap="round" stroke-linejoin="round"/>
<path d="M8.31543 43.4614L25.7668 39.5659" stroke="black" stroke-width="4" stroke-linecap="round" stroke-linejoin="round"/>
<path d="M12.2666 61.1626L29.718 57.2671" stroke="black" stroke-width="4" stroke-linecap="round" stroke-linejoin="round"/>
<path d="M16.1775 78.6826L33.6289 74.7871" stroke="black" stroke-width="4" stroke-linecap="round" stroke-linejoin="round"/>
<path d="M87.1167 25.8716L104.748 21.9359" stroke="black" stroke-width="4" stroke-linecap="round" stroke-linejoin="round"/>
<path d="M91.0679 43.5723L108.699 39.6366" stroke="black" stroke-width="4" stroke-linecap="round" stroke-linejoin="round"/>
<path d="M94.9785 61.0923L112.61 57.1566" stroke="black" stroke-width="4" stroke-linecap="round" stroke-linejoin="round"/>
<path d="M75.7752 46.9858L53.0562 68.7437L45.9602 36.9546L75.7752 46.9858Z" fill="black" stroke="black" stroke-width="4" stroke-linecap="round" stroke-linejoin="round"/>
</g>
<defs>
<clipPath id="clip0_1536_179">
<rect width="106.179" height="79.578" fill="white" transform="translate(0 23.1323) rotate(-12.5833)"/>
</clipPath>
</defs>
</svg>
