<svg width="508" height="276" viewBox="0 0 508 276" fill="none" xmlns="http://www.w3.org/2000/svg">
<path d="M343.778 88.9299C327.322 112.584 269.158 118.01 265.071 121.166C275.447 128.122 284.274 137.582 289.706 147.753C308.151 142.654 349.917 132.872 367.455 117.483C384.994 102.094 392.595 64.415 395.934 44.057C387.617 49.8972 363.937 51.1603 359.081 43.2439C359.122 50.1105 356.942 70.007 343.778 88.9299Z" fill="black" stroke="black" stroke-width="3.18117" stroke-linejoin="round"/>
<path d="M61.119 203.902L66.2603 199.672C67.376 194.161 63.0129 187.068 63.0129 187.068C56.7555 187.576 49.191 187.959 46.1615 187.608C44.1457 186.902 35.8945 183.093 34.0372 182.638C32.8676 182.351 30.7313 183.108 31.8024 185.252C32.5048 186.659 37.0299 190.879 42.3879 192.789C37.468 191.936 30.8583 189.419 27.4479 188.835C24.7424 188.371 23.2157 190.557 24.8465 192.216C26.9071 194.313 40.8628 196.266 40.8628 196.266C40.8628 196.266 26.6389 195.881 24.6816 195.921C21.3115 195.99 21.3257 199.029 23.3431 199.661C24.6499 200.07 35.1915 200.866 41.6678 201.346C38.7661 202.221 32.7906 202.691 29.0908 202.846C24.8208 203.026 25.6441 206.608 28.3864 207.461C30.3836 208.082 43.003 207.489 49.487 207.54C50.226 209.989 49.1072 211.911 46.725 213.058C43.3975 214.661 43.7745 218.383 45.1196 218.369C46.4648 218.356 52.3414 216.684 54.7994 213.998L54.8982 213.874C57.465 210.654 60.7598 206.522 61.119 203.902Z" fill="white" stroke="black" stroke-width="3.36134" stroke-linejoin="round"/>
<path d="M66.5167 240.773L71.8269 242.524C73.8115 247.786 79.0268 255.732 79.0268 255.732C68.2368 260.186 56.2944 260.54 53.3603 261.372C51.4837 262.392 40.739 265.644 38.0088 264.008C36.9758 263.389 36.2496 261.894 37.2601 259.915C37.9749 258.515 43.8207 259.82 48.8033 257.076C44.0839 258.707 34.9259 257.757 32.7902 257.397C30.0837 256.94 29.6672 253.535 31.554 252.756C35.2209 251.242 37.6957 252.465 46.2472 251.842C43.8227 252.018 32.4402 251.614 30.6999 250.688C27.7248 249.103 27.4782 246.172 29.3683 245.225C32.2086 243.802 41.7257 246.637 46.2557 246.687C41.2528 246.098 34.1756 243.507 32.616 242.169C31.0565 240.831 30.7838 238.627 32.6493 237.857C35.9413 236.498 46.4497 241.404 52.8417 240.314C53.1786 237.778 51.7664 236.061 49.2311 235.31C45.6897 234.261 45.4131 231.633 46.7953 230.324C48.1775 229.015 54.0893 230.367 58.3207 232.293C62.5522 234.219 65.011 237.126 66.5167 240.773Z" fill="white" stroke="black" stroke-width="3.36134" stroke-linejoin="round"/>
<path d="M69.7198 238.427C99.9208 228.835 147.911 211.355 162.764 200.258C167.458 193.161 167.421 186.249 167.421 186.249C167.421 186.249 174.248 185.358 175.572 179.133C177.18 171.574 173.491 166.318 172.787 160.922C204.071 140.524 263.67 120.821 263.67 120.821C289.727 115.581 311.053 142.679 315.285 176.271C282.929 187.751 211.636 212.932 183.027 224.52C155.435 242.946 103.085 261.414 80.7611 259.102C69.9277 258.561 61.606 241.005 69.7198 238.427Z" fill="#336BEC" stroke="black" stroke-width="3.18117" stroke-linejoin="round"/>
<path d="M67.5894 208.039C87.4202 197.885 105.165 187.438 133.883 182.6C139.415 181.667 153.004 181.707 153.004 181.707L151.138 152.995C138.465 151.642 121.864 155.023 105.814 159.638C88.5615 164.598 68.2231 178.75 62.6203 184.721C56.7426 188.478 58.7061 207.093 67.5894 208.039Z" fill="#336BEC" stroke="black" stroke-width="2.79036" stroke-linejoin="round"/>
<path d="M116.256 193.806C110.649 189.271 108.09 186.929 107.012 177.404C103.9 149.904 137.685 149.517 150.795 156.015C159.509 160.335 162.752 168.716 162.752 168.716C162.752 168.716 164.197 166.483 166.367 165.243L169.696 162.045L173.059 166.241C173.643 166.81 174.233 167.533 174.82 168.438C176.139 171.559 178.947 185.459 167.84 186.476C168.127 190.962 165.439 197.776 162.595 200.349C157.29 204.236 146.405 209.522 139.623 212.617C122.69 213.249 117.152 197.037 116.256 193.806Z" fill="white"/>
<path d="M162.752 168.716C162.752 168.716 159.509 160.335 150.795 156.015C137.685 149.517 103.9 149.904 107.012 177.404C108.09 186.929 110.649 189.271 116.256 193.806C117.152 197.037 122.69 213.249 139.623 212.617C146.405 209.522 157.29 204.236 162.595 200.349C165.439 197.776 168.127 190.962 167.84 186.476C178.947 185.459 176.139 171.559 174.82 168.438M162.752 168.716C162.752 168.716 168.869 159.272 174.82 168.438M162.752 168.716L169.696 162.045L174.82 168.438" stroke="black" stroke-width="3.18117" stroke-linejoin="round"/>
<path d="M129.713 184.988C130.241 186.264 131.469 189.577 132.158 192.616C132.847 195.656 135.139 196.501 136.199 196.543" stroke="black" stroke-width="2.65098" stroke-linecap="round"/>
<path d="M167.273 170.011C159.06 172.372 127.607 182.941 111.344 161.558C104.446 165.242 104.283 178.856 109.949 188.703C106.25 187.306 99.0114 180.708 96.6124 173.153C92.2828 159.517 96.721 150.375 100.091 146.787C101.751 114.487 142.575 104.262 154.891 113.501C167.494 74.8628 192.279 74.6866 198.789 86.2082C216.683 44.6859 257.076 22.5863 263.194 51.8119C269.798 83.3588 216.107 139.367 194.621 155.405C188.253 160.159 175.487 167.65 167.273 170.011Z" fill="black" stroke="black" stroke-width="3.18117" stroke-linejoin="round"/>
<path d="M387.229 106.58C367.86 123.804 311.048 138.996 304.894 141.528C312.536 151.377 316.707 174.983 316.707 174.983C316.707 174.983 393.928 152.842 411.393 137.595C420.708 129.463 436.156 95.01 448.089 72.7027C439.809 75.5119 426.32 74.6775 419.279 70.4083C414.812 67.7002 414.956 63.6228 414.938 60.1668C412.036 64.436 401.954 93.4847 387.229 106.58Z" fill="black" stroke="black" stroke-width="3.18117" stroke-linejoin="round"/>
<path d="M304.951 128.552C316.983 121.363 330.234 123.525 336.832 124.394C336.832 124.394 371.089 121.426 387.478 102.095" stroke="white" stroke-width="3.18117" stroke-linecap="round"/>
<ellipse cx="122.979" cy="189.52" rx="1.95861" ry="3.13378" transform="rotate(-19.7902 122.979 189.52)" fill="black"/>
<ellipse cx="138.141" cy="182.208" rx="1.95861" ry="3.13378" transform="rotate(-19.7902 138.141 182.208)" fill="black"/>
<path d="M363.961 28.2432C356.336 31.9026 355.741 39.8836 360.426 44.03C364.445 47.5871 372.256 48.7102 378.854 48.2323C387.991 47.5706 394.707 45.3293 406.144 39.5894C418.403 33.4374 428.812 23.3497 421.717 17.0004C414.291 10.3551 388.643 24.2624 386.747 24.5098C385.609 24.6583 371.585 24.5839 363.961 28.2432Z" fill="white" stroke="black" stroke-width="3.18117" stroke-linejoin="round"/>
<path d="M421.176 51.4639C413.679 54.8852 413.772 61.5254 417.629 66.5393C421.078 71.0238 426.672 74.0505 434.895 74.1893C445.843 74.3741 455.23 71.2377 467.717 64.5686C480.95 57.5015 490.879 46.1189 483.338 39.387C475.444 32.3411 449.114 47.4851 447.098 47.7482C445.887 47.906 427.959 48.3688 421.176 51.4639Z" fill="white" stroke="black" stroke-width="3.18117" stroke-linejoin="round"/>
<path d="M140.91 204.214C143.449 204.316 148.509 199.23 148.786 194.868" stroke="black" stroke-width="2.65098" stroke-linecap="round"/>
<path d="M116.769 179.059C115.439 180.694 114.743 181.846 114.644 184.322" stroke="black" stroke-width="2.65098" stroke-linecap="round"/>
</svg>
