<svg width="202" height="198" viewBox="0 0 202 198" fill="none" xmlns="http://www.w3.org/2000/svg">
<mask id="path-1-inside-1_1537_3709" fill="white">
<path d="M184.293 0C194.033 0.000237014 201.928 7.8959 201.928 17.6357C201.928 27.3758 194.033 35.2722 184.293 35.2725H175.122L170.26 44.5L165.554 35.2725H155.564C145.824 35.2722 137.928 27.3758 137.928 17.6357C137.929 7.89589 145.824 0.000219491 155.564 0H184.293Z"/>
</mask>
<path d="M184.293 0C194.033 0.000237014 201.928 7.8959 201.928 17.6357C201.928 27.3758 194.033 35.2722 184.293 35.2725H175.122L170.26 44.5L165.554 35.2725H155.564C145.824 35.2722 137.928 27.3758 137.928 17.6357C137.929 7.89589 145.824 0.000219491 155.564 0H184.293Z" fill="white"/>
<path d="M184.293 0L184.293 -4H184.293V0ZM201.928 17.6357H205.928V17.6357L201.928 17.6357ZM184.293 35.2725V39.2725H184.293L184.293 35.2725ZM175.122 35.2725V31.2725H172.708L171.583 33.4078L175.122 35.2725ZM170.26 44.5L166.696 46.317L170.201 53.1912L173.798 46.3647L170.26 44.5ZM165.554 35.2725L169.118 33.4555L168.005 31.2725H165.554V35.2725ZM155.564 35.2725L155.564 39.2725H155.564V35.2725ZM137.928 17.6357L133.928 17.6357V17.6357H137.928ZM155.564 0V-4H155.564L155.564 0ZM184.293 0L184.293 4C191.823 4.00018 197.928 10.1051 197.928 17.6358L201.928 17.6357L205.928 17.6357C205.928 5.68673 196.242 -3.99971 184.293 -4L184.293 0ZM201.928 17.6357H197.928C197.928 25.1668 191.823 31.2723 184.293 31.2725L184.293 35.2725L184.293 39.2725C196.242 39.2722 205.928 29.5847 205.928 17.6357H201.928ZM184.293 35.2725V31.2725H175.122V35.2725V39.2725H184.293V35.2725ZM175.122 35.2725L171.583 33.4078L166.721 42.6353L170.26 44.5L173.798 46.3647L178.661 37.1372L175.122 35.2725ZM170.26 44.5L173.823 42.683L169.118 33.4555L165.554 35.2725L161.991 37.0895L166.696 46.317L170.26 44.5ZM165.554 35.2725V31.2725H155.564V35.2725V39.2725H165.554V35.2725ZM155.564 35.2725L155.564 31.2725C148.034 31.2723 141.928 25.1668 141.928 17.6357H137.928H133.928C133.928 29.5847 143.615 39.2722 155.564 39.2725L155.564 35.2725ZM137.928 17.6357L141.928 17.6358C141.929 10.105 148.034 4.00017 155.564 4L155.564 0L155.564 -4C143.615 -3.99973 133.929 5.68673 133.928 17.6357L137.928 17.6357ZM155.564 0V4H184.293V0V-4H155.564V0Z" fill="#1A181A" mask="url(#path-1-inside-1_1537_3709)"/>
<path d="M170.376 14.3075C167.235 10.3667 163.919 13.1668 163.876 16.1852C163.876 20.6789 169.133 24.3672 170.376 24.3672C171.618 24.3672 176.876 20.6789 176.876 16.1852C176.832 13.1668 173.516 10.3667 170.376 14.3075Z" fill="black"/>
<path d="M177.898 70.7441C177.751 68.1358 176.936 64.4392 173.547 62.2681C170.158 60.097 168.475 59.8724 163.307 57.093C157.129 53.7701 152.381 44.8693 138.463 45.3487C128.395 45.6956 114.878 51.2311 107.594 68.8756C97.2971 69.6805 78.8223 71.5567 63.1641 78.7352C48.1694 85.6096 16.1499 112.657 26.4572 141.552L26.4376 141.597C25.5844 143.542 23.9545 147.259 23.2714 150.102C22.5834 152.968 20.5667 159.859 25.7626 168.978C32.065 180.039 47.9257 182.195 52.5541 182.723C73.0112 185.055 104.943 175.889 123.78 163.006C138.608 152.866 143.898 145.389 140.789 141.407C138.677 137.427 105.787 165.53 64.6197 165.997C53.7971 166.12 37.4744 162.663 47.8795 145.608C53.2402 147.135 59.2341 149.489 68.0467 144.95C70.4812 144.812 75.2297 144.437 75.5243 144.006C75.5617 144.776 76.2627 150.377 78.3999 150.453C80.3105 150.522 82.9119 147.52 83.9738 146.01C85.5836 147.545 90.16 150.028 92.5908 148.919C94.4774 148.059 92.5095 145.283 92.3573 143.636C97.2541 144.374 103.611 143.615 104.504 142.241C105.844 140.18 99.8978 137.294 98.5233 136.402C99.9406 136.101 107.371 134.818 106.829 132.267C106.287 129.715 94.3636 130.767 92.5423 130.561C92.1986 130.338 91.3732 127.847 91.1323 126.713C95.9537 124.307 103.552 119.631 105.338 116.881C110.701 117.026 124.167 118.215 125.982 117.829C127.531 119.08 130.97 121.51 132.331 121.221C133.692 120.932 135.657 117.354 136.47 115.601C139.019 116.442 144.315 117.668 145.112 115.839C145.909 114.011 143.688 112.388 142.671 111.321C142.671 111.321 149.01 109.085 149.396 108.114C149.782 107.144 147.899 105.529 144.078 105.393C145.375 104.525 147.649 102.026 146.353 100.762C145.605 100.033 133.579 101.994 129.224 103.808L126.337 99.9782C128.066 98.8208 135.043 94.651 135.043 94.651C135.043 94.651 152.992 95.6676 169.897 83.5191C176.808 78.5517 178.045 73.3517 177.898 70.7441Z" fill="#FFEF98"/>
<path d="M47.8795 145.608C37.4744 162.663 53.7971 166.12 64.6197 165.997C105.787 165.53 138.677 137.427 140.789 141.407C143.898 145.389 138.608 152.866 123.78 163.006C104.943 175.889 73.0112 185.055 52.5541 182.723C47.9257 182.195 32.065 180.039 25.7626 168.978C20.5667 159.859 22.5834 152.968 23.2714 150.102C23.9598 147.238 25.6097 143.485 26.4572 141.552C16.1499 112.657 48.1694 85.6096 63.1641 78.7352C78.8223 71.5567 97.2971 69.6805 107.594 68.8756C114.878 51.2311 128.395 45.6956 138.463 45.3487C152.381 44.8693 157.129 53.7701 163.307 57.093C168.475 59.8724 170.158 60.097 173.547 62.2681C176.936 64.4392 177.751 68.1358 177.898 70.7441C178.045 73.3517 176.808 78.5517 169.897 83.5191C152.992 95.6676 135.043 94.651 135.043 94.651C135.043 94.651 128.066 98.8208 126.337 99.9782L129.224 103.808C133.579 101.994 145.605 100.033 146.353 100.762C147.649 102.026 145.375 104.525 144.078 105.393C147.899 105.529 149.782 107.144 149.396 108.114C149.01 109.085 142.671 111.321 142.671 111.321C143.688 112.388 145.909 114.011 145.112 115.839C144.315 117.668 139.019 116.442 136.47 115.601C135.657 117.354 133.692 120.932 132.331 121.221C130.97 121.51 127.531 119.08 125.982 117.829C124.167 118.215 110.701 117.026 105.338 116.881C103.552 119.631 95.9537 124.307 91.1323 126.713C91.3732 127.847 92.1986 130.338 92.5423 130.561C94.3636 130.767 106.287 129.715 106.829 132.267C107.371 134.818 99.9406 136.101 98.5233 136.402C99.8978 137.294 105.844 140.18 104.504 142.241C103.611 143.615 97.2541 144.374 92.3573 143.636C92.5095 145.283 94.4774 148.059 92.5908 148.919C90.16 150.028 85.5836 147.545 83.9738 146.01C82.9119 147.52 80.3105 150.522 78.3999 150.453C76.0117 150.368 75.4169 143.384 75.5373 143.951C75.6337 144.405 70.5837 144.806 68.0467 144.95C59.2341 149.489 53.2402 147.135 47.8795 145.608ZM47.8795 145.608C47.6386 144.474 48.3012 147.593 47.8795 145.608Z" stroke="black" stroke-width="4" stroke-linecap="round" stroke-linejoin="round"/>
<path d="M177.608 71.2222C175.188 68.733 172.864 69.3009 169.757 71.5516C165.875 74.3651 164.899 78.1907 155.535 82.1198C151.421 83.8459 144.313 84.7248 142.474 83.9791" stroke="black" stroke-width="4" stroke-linecap="round" stroke-linejoin="round"/>
<circle cx="3.47753" cy="3.47753" r="3.47753" transform="matrix(-0.978171 0.207801 0.207801 0.978171 142.605 67.7871)" fill="black"/>
<path d="M128.963 103.976C124.073 95.4511 114.404 92.2899 109.298 93.4532" stroke="black" stroke-width="4" stroke-linecap="round" stroke-linejoin="round"/>
<path d="M138.221 94.6907C134.425 95.0399 130.07 93.8531 128.695 92.9601" stroke="black" stroke-width="4" stroke-linecap="round" stroke-linejoin="round"/>
<path d="M106.814 116.863C97.9909 115.774 92.4316 111.919 89.9054 109.789" stroke="black" stroke-width="4" stroke-linecap="round" stroke-linejoin="round"/>
<path d="M58.0375 115.966C59.3344 115.098 66.5134 107.054 77.8199 111.466C86.865 114.995 90.2035 125.132 92.2581 130.62" stroke="black" stroke-width="4" stroke-linecap="round" stroke-linejoin="round"/>
</svg>
