<svg width="116" height="101" viewBox="0 0 116 101" fill="none" xmlns="http://www.w3.org/2000/svg">
<g clip-path="url(#clip0_1537_3725)">
<path d="M102.613 16.8615L24.3331 5.38234C19.4965 4.6731 15.0008 8.01828 14.2917 12.854L5.3825 73.6089C4.67338 78.4447 8.01935 82.9397 12.8559 83.649L91.1363 95.1282C95.9729 95.8374 100.469 92.4922 101.178 87.6565L110.087 26.9016C110.796 22.0658 107.45 17.5708 102.613 16.8615Z" fill="#336BEC" stroke="black" stroke-width="4" stroke-linecap="round" stroke-linejoin="round"/>
<path d="M25.2963 56.0836L6.22139 67.8891C5.95935 69.676 5.53539 73.8121 5.93584 76.0612C6.33629 78.3103 9.57412 82.3749 11.143 84.1261L93.3552 96.1819C95.4999 96.4964 98.1727 94.4545 99.241 93.3943L103.565 63.9103L82.7125 38.0358L37.2593 67.8772L25.2963 56.0836Z" fill="#79C475"/>
<path d="M104.348 66.0349L82.0806 36.1196L37.2018 69.5133L25.8893 54.5295L6.01144 69.3203" stroke="black" stroke-width="4" stroke-linecap="round" stroke-linejoin="round"/>
<path d="M36.5596 42.7691C41.3961 43.4783 45.8918 40.1331 46.6009 35.2974C47.3101 30.4617 43.9641 25.9666 39.1275 25.2573C34.2909 24.5481 29.7953 27.8933 29.0861 32.729C28.377 37.5647 31.723 42.0598 36.5596 42.7691Z" fill="#F5FE8E" stroke="black" stroke-width="4" stroke-miterlimit="10"/>
<path d="M102.613 16.8615L24.3331 5.38234C19.4965 4.6731 15.0008 8.01828 14.2917 12.854L5.3825 73.6089C4.67338 78.4447 8.01935 82.9397 12.8559 83.649L91.1363 95.1282C95.9729 95.8374 100.469 92.4922 101.178 87.6565L110.087 26.9016C110.796 22.0658 107.45 17.5708 102.613 16.8615Z" stroke="black" stroke-width="4" stroke-linecap="round" stroke-linejoin="round"/>
</g>
<defs>
<clipPath id="clip0_1537_3725">
<rect width="104.045" height="86.3278" fill="white" transform="translate(12.5254) rotate(8.34249)"/>
</clipPath>
</defs>
</svg>
