<svg width="104" height="93" viewBox="0 0 104 93" fill="none" xmlns="http://www.w3.org/2000/svg">
<g clip-path="url(#clip0_1537_3809)">
<path d="M74.2357 22.9767C69.8145 23.8523 64.0111 28.1188 59.0678 32.5856C61.2246 26.1996 62.9746 19.3523 61.9492 14.9365C59.8465 4.65147 49.5104 11.5263 45.3789 12.4205C41.2475 13.3146 29.0334 10.9339 31.1362 21.2189C33.2389 31.5039 36.3003 31.4109 40.7847 36.3392C34.3758 34.187 27.5043 32.4399 23.0738 33.4599C12.7545 35.5509 19.6574 45.8547 20.5565 49.9725C21.4555 54.0902 19.072 66.2615 29.3913 64.1705C33.8126 63.295 39.6159 59.0284 44.5592 54.5616C42.4024 60.9477 40.6524 67.7949 41.6778 72.2108C43.7805 82.4958 54.1166 75.6209 58.2481 74.7268C62.3795 73.8326 74.5936 76.2134 72.4909 65.9283C71.6104 61.5218 67.3267 55.7364 62.8423 50.808C69.2512 52.9603 76.1227 54.7073 80.5532 53.6874C90.8726 51.5964 83.9696 41.2925 83.0706 37.1748C82.1715 33.057 84.555 20.8857 74.2357 22.9767Z" fill="#79C475" stroke="black" stroke-width="4" stroke-linecap="round" stroke-linejoin="round"/>
<path d="M18.9195 82.2012C18.9195 82.2012 35.2279 72.9557 44.4143 54.5522" stroke="black" stroke-width="4" stroke-linecap="round" stroke-linejoin="round"/>
<path d="M48.704 28.5838L47.0693 20.0688" stroke="black" stroke-width="4" stroke-linecap="round" stroke-linejoin="round"/>
<path d="M56.5577 67.0779L54.9231 58.563" stroke="black" stroke-width="4" stroke-linecap="round" stroke-linejoin="round"/>
<path d="M36.7738 46.6657L28.2304 48.291" stroke="black" stroke-width="4" stroke-linecap="round" stroke-linejoin="round"/>
<path d="M75.3965 38.8556L66.8531 40.4809" stroke="black" stroke-width="4" stroke-linecap="round" stroke-linejoin="round"/>
</g>
<defs>
<clipPath id="clip0_1537_3809">
<rect width="74.9216" height="80.8856" fill="white" transform="translate(16.8268 3.91357) rotate(3.68108)"/>
</clipPath>
</defs>
</svg>
