<svg width="135" height="138" viewBox="0 0 135 138" fill="none" xmlns="http://www.w3.org/2000/svg">
<path d="M75.0212 75.2065L74.6265 76.4727C74.637 76.4388 74.6491 76.4002 74.6596 76.3663L75.0227 75.2017L75.0324 75.2047L75.0212 75.2065Z" fill="#2C2C2C"/>
<path d="M120.244 57.1085C121.977 51.4291 118.818 45.4175 113.158 43.653L113.105 43.6364C107.479 41.8825 101.503 44.988 99.6642 50.5814C99.6537 50.6152 99.6416 50.6539 99.6311 50.6877L99.268 51.8524L97.9346 56.1293C96.691 54.7819 95.0995 53.7343 93.2354 53.1531L93.1823 53.1366C91.3134 52.5539 89.4037 52.51 87.6228 52.9199C86.4788 53.173 85.3818 53.6158 84.3856 54.2278C83.9137 53.1581 83.2674 52.1718 82.4652 51.312C81.2279 49.9612 79.6364 48.9136 77.7675 48.3309L77.7095 48.3129C75.8406 47.7302 73.9358 47.6878 72.1564 48.0928L77.196 31.9274C78.3546 28.1261 77.3245 24.1729 74.8143 21.4496C73.881 20.4322 72.7462 19.5853 71.4419 18.9931C71.3353 18.944 71.224 18.8933 71.1174 18.8442C71.0401 18.8201 70.9707 18.7879 70.9046 18.762C70.6529 18.6517 70.3903 18.5592 70.115 18.4734L70.0571 18.4553C66.6187 17.3834 63.0475 18.1312 60.3746 20.1612C60.3273 20.1942 60.2862 20.2238 60.2452 20.2534C60.2325 20.2601 60.2247 20.2683 60.2169 20.2764C60.127 20.3438 60.0419 20.4128 59.9617 20.4832C59.927 20.5095 59.8971 20.5373 59.8609 20.5684C59.8389 20.5881 59.8169 20.6077 59.7948 20.6274C59.768 20.6455 59.7396 20.6685 59.7161 20.693C59.7161 20.693 59.7131 20.7026 59.7019 20.7045C59.7019 20.7045 59.6989 20.7141 59.6877 20.7159C59.5997 20.7945 59.5116 20.8731 59.422 20.9565C59.3529 21.0251 59.2838 21.0938 59.2099 21.1609C59.155 21.218 59.0938 21.2784 59.0389 21.3355C58.9792 21.3912 58.9228 21.4531 58.8727 21.5117C58.7801 21.6048 58.6972 21.7009 58.6112 21.8067C58.5376 21.8898 58.4752 21.9711 58.4064 22.0557C58.3189 22.1663 58.2393 22.2687 58.1567 22.3808C58.0928 22.4669 58.0288 22.553 57.9634 22.644C57.8418 22.8129 57.7284 22.9896 57.6199 23.1679C57.4492 23.4434 57.2915 23.7283 57.1565 24.0256C57.0732 24.1905 56.9997 24.3585 56.9261 24.5264C56.8878 24.6152 56.8574 24.6959 56.8206 24.7799C56.7935 24.8669 56.7519 24.9493 56.7248 25.0363C56.6962 25.1281 56.6609 25.2073 56.6274 25.2976C56.6078 25.3604 56.5852 25.4329 56.5672 25.4909L56.2041 26.6556L46.7952 56.8359L43.8074 52.7549C39.9274 47.4571 32.6716 46.1548 27.1776 49.7391C21.581 53.3975 19.7636 60.8588 23.0521 66.6774L41.2804 98.9995C41.3831 99.18 41.4873 99.3556 41.593 99.5265C45.186 107.937 52.3092 114.798 61.7406 117.738L66.8934 119.344C83.9743 124.669 102.144 115.132 107.474 98.0338L120.234 57.1054L120.244 57.1085ZM84.4754 62.9306L84.8159 61.8384C84.8385 61.7659 84.8611 61.6934 84.8822 61.6257C84.8973 61.5774 84.9108 61.5339 84.9355 61.4886C85.9504 58.8621 88.8381 57.4346 91.5569 58.2822L91.6197 58.3018C94.324 59.1449 95.8853 61.9382 95.2516 64.6676L90.1457 81.0457L90.1553 81.0487L90.1327 81.1212C89.2438 83.9725 86.2264 85.561 83.3917 84.6773L83.3289 84.6577C80.5328 83.786 78.9606 80.8409 79.756 78.0346L84.4642 62.9324L84.4754 62.9306ZM69.3576 57.0192C69.3998 56.8839 69.4405 56.7534 69.4956 56.6274C70.5238 54.0263 73.3991 52.6214 76.1035 53.4645L76.1662 53.4841C78.8851 54.3317 80.4499 57.1473 79.7924 59.8852C79.7774 59.9335 79.7638 59.977 79.7487 60.0254C79.7358 60.1009 79.7132 60.1733 79.6921 60.241L79.3516 61.3332C77.9098 65.9581 76.4583 70.58 75.0116 75.2034L73.7325 79.3064L73.5743 79.8138C72.6869 82.6603 69.668 84.2537 66.8284 83.3685L66.7657 83.3489C64.0178 82.4923 62.4439 79.6208 63.1633 76.8545L69.348 57.0162L69.3576 57.0192ZM102.339 96.4222C97.8976 110.669 82.7564 118.616 68.5248 114.179L63.372 112.573C55.3652 110.077 49.3522 104.194 46.4112 96.9881C46.2759 96.7763 46.1358 96.5629 46.0162 96.3347L27.7864 64.0174C25.8993 60.6719 26.9486 56.3541 30.1625 54.2541C33.2563 52.2334 37.3042 52.965 39.4769 55.9384L48.7901 68.6566L61.7245 27.1677C62.5848 24.4082 65.4567 22.8273 68.2225 23.5411C68.2998 23.5652 68.3771 23.5893 68.4495 23.6118L68.5123 23.6314C68.5944 23.657 68.6765 23.6826 68.7489 23.7052C71.4289 24.6945 72.8951 27.6225 72.0348 30.382L58.4677 73.9006L58.1061 75.0605C58.0835 75.133 58.0609 75.2055 58.0413 75.2683L57.7837 76.0947L57.8416 76.1127C56.7674 81.462 59.8798 86.8599 65.1822 88.5129L65.2354 88.5295C69.2339 89.7761 73.4091 88.5697 76.1531 85.7505C77.4661 87.6234 79.3922 89.0934 81.7392 89.8251L81.7971 89.8432C87.4569 91.6076 93.4648 88.4486 95.2692 82.7967L95.6323 81.632L95.6178 81.6275L99.9433 67.7528L99.9675 67.7603L104.792 52.2859C104.932 51.8365 105.122 51.4293 105.361 51.0531C105.392 50.9885 105.437 50.9283 105.476 50.8715C105.517 50.8099 105.561 50.7546 105.604 50.6993C105.688 50.5824 105.774 50.4766 105.867 50.3675C105.914 50.3186 105.962 50.2648 106.003 50.2191C106.103 50.1179 106.198 50.02 106.301 49.9251C106.339 49.8891 106.377 49.8531 106.413 49.822C106.652 49.6155 106.908 49.4248 107.173 49.269C107.233 49.2294 107.297 49.1962 107.36 49.1629L107.55 49.0631C107.614 49.0298 107.677 48.9965 107.744 48.9696C107.812 48.9378 107.879 48.9109 107.94 48.8824C108.231 48.7662 108.53 48.6739 108.837 48.6054C108.906 48.5896 108.978 48.5802 109.046 48.5644C109.185 48.5441 109.319 48.5222 109.461 48.5082C109.532 48.5036 109.597 48.4975 109.662 48.4914C110.287 48.4582 110.937 48.5334 111.57 48.7307C114.163 49.5391 115.72 52.1244 115.298 54.7343C115.286 54.8098 115.273 54.8853 115.256 54.9545C115.221 55.1345 115.175 55.3163 115.121 55.4902L102.361 96.4186L102.339 96.4222Z" fill="black"/>
<path d="M90.1698 81.053L90.1472 81.1255C89.2583 83.9768 86.2409 85.5654 83.4062 84.6816L83.3434 84.662C80.5473 83.7903 78.9751 80.8452 79.7705 78.039L84.4787 62.9367L84.8192 61.8445C84.8418 61.772 84.8644 61.6995 84.8855 61.6319C84.9005 61.5835 84.9141 61.54 84.9388 61.4947C85.9537 58.8683 88.8414 57.4408 91.5602 58.2884L91.623 58.3079C94.3273 59.151 95.8886 61.9443 95.2549 64.6737L90.1489 81.0518L90.1586 81.0548L90.1698 81.053Z" fill="#336BEC"/>
<path d="M75.0114 75.2032L74.6483 76.3679C74.6378 76.4017 74.6257 76.4404 74.6152 76.4742L73.7308 79.311L73.5726 79.8185C72.6852 82.6649 69.6663 84.2583 66.8268 83.3731L66.764 83.3535C64.0162 82.4969 62.4422 79.6254 63.1616 76.8591L69.3463 57.0208C69.3885 56.8855 69.4292 56.755 69.4843 56.629C70.5125 54.0279 73.3878 52.623 76.0921 53.4661L76.1549 53.4857C78.8738 54.3333 80.4386 57.1489 79.7811 59.8868C79.766 59.9351 79.7525 59.9786 79.7374 60.027C79.7245 60.1025 79.7019 60.1749 79.6808 60.2426L79.3403 61.3348C77.8984 65.9597 76.4469 70.5816 75.0003 75.205L74.9906 75.202L75.0114 75.2032Z" fill="#336BEC"/>
<path d="M115.097 55.4986L102.338 96.4269C97.896 110.674 82.7549 118.621 68.5232 114.184L63.3705 112.578C55.3637 110.082 49.3506 104.198 46.4097 96.9928C46.2744 96.7809 46.1343 96.5676 46.0146 96.3394L27.7848 64.0221C25.8977 60.6765 26.9471 56.3587 30.161 54.2588C33.2548 52.238 37.3026 52.9697 39.4753 55.943L48.7885 68.6612L61.7244 27.1675C62.5847 24.408 65.4566 22.8271 68.2225 23.5409C68.2998 23.565 68.377 23.5891 68.4495 23.6117L68.5122 23.6313C68.5943 23.6568 68.6764 23.6824 68.7489 23.705C71.4288 24.6943 72.8951 27.6223 72.0348 30.3818L58.4676 73.9005L58.106 75.0603C58.0834 75.1328 58.0608 75.2053 58.0412 75.2681L57.7836 76.0945L57.8416 76.1126C56.7673 81.4619 59.8797 86.8597 65.1822 88.5128L65.2353 88.5293C69.2339 89.7759 73.4091 88.5695 76.153 85.7504C77.4661 87.6232 79.3921 89.0932 81.7391 89.8249L81.7971 89.843C87.4569 91.6075 93.4648 88.4485 95.2692 82.7966L95.6323 81.6319L95.6178 81.6274L99.9433 67.7526L99.9674 67.7601L104.792 52.2858C104.932 51.8363 105.122 51.4291 105.361 51.053C105.392 50.9883 105.437 50.9282 105.476 50.8714C105.517 50.8097 105.56 50.7544 105.604 50.6991C105.688 50.5822 105.774 50.4764 105.867 50.3674C105.914 50.3184 105.962 50.2646 106.003 50.219C106.103 50.1177 106.197 50.0198 106.301 49.9249C106.339 49.8889 106.377 49.853 106.413 49.8218C106.652 49.6154 106.908 49.4246 107.173 49.2689C107.233 49.2293 107.297 49.196 107.36 49.1627L107.55 49.0629C107.614 49.0296 107.677 48.9964 107.744 48.9694C107.812 48.9377 107.878 48.9107 107.94 48.8823C108.231 48.7661 108.53 48.6737 108.837 48.6052C108.906 48.5894 108.978 48.58 109.046 48.5642C109.185 48.5439 109.319 48.522 109.461 48.508C109.531 48.5034 109.597 48.4973 109.662 48.4912C110.287 48.4581 110.937 48.5333 111.569 48.7305C114.163 49.539 115.72 52.1242 115.298 54.7341C115.285 54.8096 115.273 54.8851 115.256 54.9543C115.221 55.1343 115.175 55.3161 115.121 55.4901L115.097 55.4986Z" fill="#336BEC"/>
</svg>
