<svg width="577" height="254" viewBox="0 0 577 254" fill="none" xmlns="http://www.w3.org/2000/svg">
<path d="M400.815 83.9469C377.757 109.326 308.289 106.776 302.979 109.871C314.153 119.677 323.112 132.198 327.956 145.036C350.506 141.858 401.296 136.744 424.36 121.284C447.424 105.825 462.194 62.5329 469.266 39.0243C458.554 44.6357 430.417 42.4815 425.906 32.3927C424.897 40.5016 419.262 63.6439 400.815 83.9469Z" fill="black" stroke="black" stroke-width="3" stroke-linejoin="round"/>
<path d="M45.0484 179.795L52.8131 176.555C56.4408 169.736 54.3683 158.265 54.3683 158.265C46.8798 156.032 37.9246 153.026 34.5515 151.15C32.5069 149.273 24.5263 140.366 22.5598 138.897C21.3216 137.971 18.5183 137.985 18.8566 141.338C19.0784 143.537 22.5537 151.259 27.9743 156.293C22.6164 152.869 15.9974 146.446 12.2801 144.082C9.33135 142.208 6.63208 144.408 7.82623 147.375C9.33511 151.124 24.7312 160.213 24.7312 160.213C24.7312 160.213 8.36 153.088 6.06787 152.231C2.12151 150.755 0.852966 154.807 2.93088 156.586C4.2768 157.739 16.1936 163.7 23.5189 167.349C19.7758 167.166 12.6311 165.013 8.26489 163.5C3.22564 161.753 2.66776 166.905 5.49484 169.315C7.55382 171.07 22.4734 176.148 29.9887 179.231C29.812 182.835 27.6991 184.873 24.4448 185.293C19.899 185.88 18.7635 191.01 20.3327 191.617C21.902 192.225 29.4403 192.73 33.4331 190.298L33.6004 190.178C37.9454 187.086 43.5229 183.116 45.0484 179.795Z" fill="white" stroke="black" stroke-width="3" stroke-linejoin="round"/>
<path d="M48.359 219.182L54.6577 221.326C56.9585 227.61 63.0729 237.126 63.0729 237.126C50.1821 242.302 35.9671 242.585 32.4661 243.541C30.2213 244.733 17.3983 248.479 14.1683 246.501C12.9463 245.753 12.0994 243.965 13.3246 241.622C14.1913 239.964 21.1324 241.585 27.0931 238.377C21.4584 240.264 10.5719 239.028 8.03466 238.574C4.81931 237.999 4.36297 233.943 6.61714 233.038C10.9981 231.278 13.9289 232.762 24.1118 232.119C21.2247 232.301 7.68486 231.689 5.62473 230.566C2.10273 228.647 1.8431 225.155 4.10317 224.05C7.49936 222.39 18.7915 225.873 24.1813 225.985C18.235 225.226 9.84339 222.061 8.003 220.451C6.16261 218.841 5.86356 216.215 8.09226 215.321C12.0253 213.741 24.4731 219.7 32.0917 218.477C32.522 215.463 30.8612 213.404 27.8531 212.481C23.6511 211.192 23.3522 208.062 25.0121 206.521C26.6719 204.979 33.691 206.655 38.704 208.996C43.717 211.337 46.6093 214.824 48.359 219.182Z" fill="white" stroke="black" stroke-width="3" stroke-linejoin="round"/>
<path d="M54.4158 218.172C91.5296 211.501 150.849 198.261 170.083 187.453C176.715 179.801 177.735 171.639 177.735 171.639C177.735 171.639 185.927 171.639 188.448 164.497C191.509 155.825 187.965 149.055 187.965 142.579C228.02 123.324 301.379 109.248 301.379 109.248C332.934 107.076 353.928 142.334 353.751 182.623C313.804 191.191 225.801 209.93 190.26 219.201C154.865 236.698 90.2492 250.432 64.2625 244.267C51.5623 241.962 44.4448 219.965 54.4158 218.172Z" fill="#336BEC" stroke="black" stroke-width="3" stroke-linejoin="round"/>
<path d="M56.5793 181.985C81.5424 173.057 104.09 163.46 138.721 162.171C145.393 161.923 161.422 164.06 161.422 164.06L163.639 129.894C148.893 126.346 128.783 127.78 109.134 130.755C88.0125 133.954 61.8349 147.523 54.3046 153.706C46.7906 157.235 46.2423 179.503 56.5793 181.985Z" fill="#336BEC" stroke="black" stroke-width="3" stroke-linejoin="round"/>
<path d="M116.197 172.682C110.279 166.467 107.619 163.31 107.813 151.905C108.374 118.976 148.3 123.719 162.769 133.404C172.387 139.843 174.924 150.231 174.924 150.231C174.924 150.231 176.973 147.82 179.725 146.69L184.145 143.429L187.467 148.897C188.069 149.659 188.653 150.603 189.207 151.762C190.283 155.647 191.457 172.482 178.194 171.972C177.842 177.31 173.622 184.936 169.87 187.534C163.012 191.305 149.354 195.867 140.874 198.476C120.796 196.615 116.757 176.633 116.197 172.682Z" fill="white"/>
<path d="M174.924 150.231C174.924 150.231 172.387 139.843 162.769 133.404C148.3 123.719 108.374 118.976 107.813 151.905C107.619 163.31 110.279 166.467 116.197 172.682C116.757 176.633 120.796 196.615 140.874 198.476C149.354 195.867 163.012 191.305 169.87 187.534C173.622 184.936 177.842 177.31 178.194 171.972C191.457 172.482 190.283 155.647 189.207 151.762M174.924 150.231C174.924 150.231 183.596 140.029 189.207 151.762M174.924 150.231L184.145 143.429L189.207 151.762" stroke="black" stroke-width="3" stroke-linejoin="round"/>
<path d="M133.433 164.347C133.86 165.934 134.799 170.032 135.144 173.725C135.489 177.417 138.064 178.767 139.309 178.98" stroke="black" stroke-width="3" stroke-linecap="round"/>
<path d="M180.06 152.457C170.004 153.978 131.263 161.609 115.364 133.874C106.658 137.159 104.369 153.198 109.54 165.69C105.39 163.473 97.864 154.573 96.1961 145.288C93.186 128.531 99.83 118.427 104.359 114.712C111.289 76.8536 161.036 71.0711 174.146 83.8694C194.965 40.2154 224.239 43.8223 230.147 58.4199C257.653 12.1775 308.718 -7.68302 311.439 27.7451C314.377 65.987 242.401 123.813 214.578 139.431C206.332 144.061 190.115 150.935 180.06 152.457Z" fill="black" stroke="black" stroke-width="3" stroke-linejoin="round"/>
<path d="M449.372 111.462C423.865 128.806 354.488 137.988 346.836 140.029C354.338 152.826 355.627 181.324 355.627 181.324C355.627 181.324 450.156 167.083 473.112 151.779C485.355 143.617 508.886 105.34 526.401 80.8542C516.198 82.8947 500.41 79.834 492.758 73.7124C487.904 69.8293 488.702 65.0403 489.212 60.9593C485.131 65.5504 468.762 98.2761 449.372 111.462Z" fill="black" stroke="black" stroke-width="3" stroke-linejoin="round"/>
<path d="M348.902 124.725C364.205 118.093 379.509 122.684 387.161 124.725C387.161 124.725 410.488 123.787 429.631 117.805" stroke="white" stroke-width="3" stroke-linecap="round"/>
<ellipse cx="124.79" cy="168.659" rx="2.33075" ry="3.7292" transform="rotate(-12.3587 124.79 168.659)" fill="black"/>
<ellipse cx="143.807" cy="162.364" rx="2.33075" ry="3.7292" transform="rotate(-12.3587 143.807 162.364)" fill="black"/>
<path d="M433.972 15.4431C424.412 18.5876 422.482 27.9137 427.372 33.5275C431.567 38.3435 440.61 40.8709 448.47 41.3226C459.353 41.9481 467.623 40.3371 482.003 35.3244C497.415 29.9518 511.25 19.6503 503.855 11.0661C496.115 2.0816 463.71 14.5448 461.434 14.5448C460.069 14.5448 443.533 12.2986 433.972 15.4431Z" fill="white" stroke="black" stroke-width="3" stroke-linejoin="round"/>
<path d="M497.913 51.65C488.539 54.5331 487.627 62.383 491.406 68.893C494.786 74.7157 500.922 79.1482 510.603 80.5776C523.493 82.4806 535.053 80.2245 550.814 74.2769C567.517 67.9745 580.985 56.0712 573.122 46.9667C564.893 37.4377 531.492 51.2551 529.072 51.2551C527.62 51.2551 506.393 49.0417 497.913 51.65Z" fill="white" stroke="black" stroke-width="3" stroke-linejoin="round"/>
<path d="M143.687 188.757C146.667 189.268 153.421 184.046 154.419 178.942" stroke="black" stroke-width="3" stroke-linecap="round"/>
<path d="M119.072 155.359C117.251 157.082 116.253 158.336 115.754 161.241" stroke="black" stroke-width="3" stroke-linecap="round"/>
</svg>
