<svg width="1920" height="1842" viewBox="0 0 1920 1842" fill="none" xmlns="http://www.w3.org/2000/svg">
<path d="M1783 921C1783 1375.53 1414.53 1744 960 1744C505.47 1744 137 1375.53 137 921C137 466.47 505.47 98 960 98C1414.53 98 1783 466.47 1783 921ZM155.229 921C155.229 1365.46 515.537 1725.77 960 1725.77C1404.46 1725.77 1764.77 1365.46 1764.77 921C1764.77 476.537 1404.46 116.229 960 116.229C515.537 116.229 155.229 476.537 155.229 921Z" fill="#D2D2D2"/>
<rect x="1783" y="912.822" width="10.2365" height="64.4897" rx="5.11823" transform="rotate(90 1783 912.822)" fill="#D2D2D2"/>
<rect x="952.823" y="98" width="10.2365" height="64.4897" rx="5.11823" fill="#D2D2D2"/>
<rect x="1364.87" y="204.354" width="10.2365" height="64.347" rx="5.11823" transform="rotate(30 1364.87 204.354)" fill="#D2D2D2"/>
<rect x="1668.83" y="502.477" width="10.2365" height="64.347" rx="5.11823" transform="rotate(60 1668.83 502.477)" fill="#D2D2D2"/>
<rect x="1676.8" y="1324.94" width="10.2365" height="64.347" rx="5.11823" transform="rotate(120 1676.8 1324.94)" fill="#D2D2D2"/>
<rect x="1378.67" y="1628.89" width="10.2365" height="64.347" rx="5.11823" transform="rotate(150 1378.67 1628.89)" fill="#D2D2D2"/>
<rect x="968.177" y="1743" width="10.2365" height="64.4897" rx="5.11823" transform="rotate(180 968.177 1743)" fill="#D2D2D2"/>
<rect x="556.209" y="1636.86" width="10.2365" height="64.347" rx="5.11823" transform="rotate(-150 556.209 1636.86)" fill="#D2D2D2"/>
<rect x="252.25" y="1338.74" width="10.2365" height="64.347" rx="5.11823" transform="rotate(-120 252.25 1338.74)" fill="#D2D2D2"/>
<rect x="138" y="928.178" width="10.2365" height="64.4897" rx="5.11823" transform="rotate(-90 138 928.178)" fill="#D2D2D2"/>
<rect x="244.281" y="516.275" width="10.2365" height="64.347" rx="5.11823" transform="rotate(-60 244.281 516.275)" fill="#D2D2D2"/>
<rect x="542.407" y="212.316" width="10.2365" height="64.347" rx="5.11823" transform="rotate(-30 542.407 212.316)" fill="#D2D2D2"/>
</svg>
