<svg width="1920" height="1014" viewBox="0 0 1920 1014" fill="none" xmlns="http://www.w3.org/2000/svg">
<g clip-path="url(#clip0_1410_147)">
<mask id="path-1-outside-1_1410_147" maskUnits="userSpaceOnUse" x="-520.999" y="76.1338" width="1834" height="1176" fill="black">
<rect fill="white" x="-520.999" y="76.1338" width="1834" height="1176"/>
<path d="M-190.07 230.678C-173.54 131.996 -83.5252 66.8769 10.9841 85.2301C105.493 103.583 168.708 198.459 152.178 297.141C146.991 328.108 134.566 355.769 117.038 378.584C186.312 385.1 241.712 446.298 242.985 520.408C243.119 528.189 242.648 535.819 241.623 543.25C257.717 535.529 276.064 532.752 294.717 536.375C332.22 543.658 360.175 574.717 367.58 612.507C390.761 583.151 427.87 567.526 466.168 574.964C515.389 584.522 550.413 629.037 552.32 679.775C573.037 681.7 591.786 691.186 605.777 705.477C625.965 676.597 662.075 660.866 699.676 668.168C751.346 678.202 786.265 727.927 777.672 779.231C776.318 787.31 773.965 794.947 770.761 802.041C778.012 804.237 784.752 807.464 790.843 811.52C806.338 797 828.238 789.499 851.333 792.937C876.028 796.613 896.396 811.949 907.446 832.463C917.771 806.047 945.783 790.12 975.196 795.832C1008.85 802.366 1031.59 834.75 1025.99 868.162C1025.79 869.372 1025.55 870.567 1025.28 871.746C1032.45 870.049 1040.14 869.823 1047.94 871.338C1066.23 874.888 1080.82 887.174 1088.07 902.979C1102.66 896.708 1119.34 894.63 1136.37 897.937C1173.67 905.181 1201.02 936.004 1205.33 971.775C1213.33 968.802 1222.03 967.176 1231.15 967.176C1272.18 967.177 1306.28 1000.03 1307.33 1040.57C1308.38 1081.1 1275.97 1113.96 1234.95 1113.96C1229.61 1113.96 1224.39 1113.4 1219.35 1112.34C1163.79 1206.41 842.917 1263.6 457.591 1242.64C35.3419 1219.66 -304.405 1111.53 -301.256 1001.12C-300.353 969.467 -271.369 941.065 -220.53 917.191C-222.205 902.988 -221.928 888.273 -219.443 873.438C-218.847 869.88 -218.133 866.377 -217.309 862.931C-247.586 893.283 -290.7 908.424 -335.028 899.816C-409.051 885.441 -458.422 810.291 -445.302 731.963C-442.148 713.132 -435.668 695.833 -426.617 680.616C-487.707 657.481 -525.823 588.544 -513.782 516.658C-509.649 491.984 -500.09 469.859 -486.701 451.491C-500.476 423.399 -505.951 390.159 -500.274 356.264C-486.935 276.631 -417.097 223.537 -344.287 237.676C-271.478 251.816 -223.267 327.834 -236.606 407.467C-240.739 432.141 -250.298 454.265 -263.687 472.632C-262.625 474.799 -261.612 476.996 -260.65 479.221C-236.533 466.654 -208.663 461.561 -180.149 466.227C-154.83 439.889 -125.819 426.746 -97.5081 432.244C-75.2789 436.561 -56.3746 451.808 -41.9309 474.716C-34.9731 474.134 -27.9022 474.135 -20.7688 474.758C-17.7384 464.409 -13.5861 454.594 -8.45828 445.466C-21.699 446.144 -35.2403 445.237 -48.8753 442.589C-143.384 424.236 -206.599 329.36 -190.07 230.678ZM0.000700447 758.571C-14.4752 762.331 -29.7313 763.529 -45.2444 761.773C-45.3185 761.927 -45.3918 762.082 -45.4661 762.236C-30.0321 767.721 -16.0094 776.056 -3.82742 786.581C-3.79014 780.787 -3.29618 774.977 -2.32449 769.175C-1.72113 765.573 -0.943697 762.037 0.000700447 758.571Z"/>
</mask>
<path d="M-190.07 230.678C-173.54 131.996 -83.5252 66.8769 10.9841 85.2301C105.493 103.583 168.708 198.459 152.178 297.141C146.991 328.108 134.566 355.769 117.038 378.584C186.312 385.1 241.712 446.298 242.985 520.408C243.119 528.189 242.648 535.819 241.623 543.25C257.717 535.529 276.064 532.752 294.717 536.375C332.22 543.658 360.175 574.717 367.58 612.507C390.761 583.151 427.87 567.526 466.168 574.964C515.389 584.522 550.413 629.037 552.32 679.775C573.037 681.7 591.786 691.186 605.777 705.477C625.965 676.597 662.075 660.866 699.676 668.168C751.346 678.202 786.265 727.927 777.672 779.231C776.318 787.31 773.965 794.947 770.761 802.041C778.012 804.237 784.752 807.464 790.843 811.52C806.338 797 828.238 789.499 851.333 792.937C876.028 796.613 896.396 811.949 907.446 832.463C917.771 806.047 945.783 790.12 975.196 795.832C1008.85 802.366 1031.59 834.75 1025.99 868.162C1025.79 869.372 1025.55 870.567 1025.28 871.746C1032.45 870.049 1040.14 869.823 1047.94 871.338C1066.23 874.888 1080.82 887.174 1088.07 902.979C1102.66 896.708 1119.34 894.63 1136.37 897.937C1173.67 905.181 1201.02 936.004 1205.33 971.775C1213.33 968.802 1222.03 967.176 1231.15 967.176C1272.18 967.177 1306.28 1000.03 1307.33 1040.57C1308.38 1081.1 1275.97 1113.96 1234.95 1113.96C1229.61 1113.96 1224.39 1113.4 1219.35 1112.34C1163.79 1206.41 842.917 1263.6 457.591 1242.64C35.3419 1219.66 -304.405 1111.53 -301.256 1001.12C-300.353 969.467 -271.369 941.065 -220.53 917.191C-222.205 902.988 -221.928 888.273 -219.443 873.438C-218.847 869.88 -218.133 866.377 -217.309 862.931C-247.586 893.283 -290.7 908.424 -335.028 899.816C-409.051 885.441 -458.422 810.291 -445.302 731.963C-442.148 713.132 -435.668 695.833 -426.617 680.616C-487.707 657.481 -525.823 588.544 -513.782 516.658C-509.649 491.984 -500.09 469.859 -486.701 451.491C-500.476 423.399 -505.951 390.159 -500.274 356.264C-486.935 276.631 -417.097 223.537 -344.287 237.676C-271.478 251.816 -223.267 327.834 -236.606 407.467C-240.739 432.141 -250.298 454.265 -263.687 472.632C-262.625 474.799 -261.612 476.996 -260.65 479.221C-236.533 466.654 -208.663 461.561 -180.149 466.227C-154.83 439.889 -125.819 426.746 -97.5081 432.244C-75.2789 436.561 -56.3746 451.808 -41.9309 474.716C-34.9731 474.134 -27.9022 474.135 -20.7688 474.758C-17.7384 464.409 -13.5861 454.594 -8.45828 445.466C-21.699 446.144 -35.2403 445.237 -48.8753 442.589C-143.384 424.236 -206.599 329.36 -190.07 230.678ZM0.000700447 758.571C-14.4752 762.331 -29.7313 763.529 -45.2444 761.773C-45.3185 761.927 -45.3918 762.082 -45.4661 762.236C-30.0321 767.721 -16.0094 776.056 -3.82742 786.581C-3.79014 780.787 -3.29618 774.977 -2.32449 769.175C-1.72113 765.573 -0.943697 762.037 0.000700447 758.571Z" fill="#336BEC"/>
<path d="M-190.07 230.678L-195.001 229.852V229.852L-190.07 230.678ZM10.9841 85.2301L11.9373 80.3218V80.3218L10.9841 85.2301ZM152.178 297.141L157.11 297.967V297.967L152.178 297.141ZM117.038 378.584L113.073 375.537C111.964 376.981 111.727 378.913 112.454 380.581C113.181 382.25 114.758 383.391 116.57 383.562L117.038 378.584ZM242.985 520.408L247.984 520.322V520.322L242.985 520.408ZM241.623 543.25L236.67 542.566C236.418 544.39 237.189 546.204 238.676 547.289C240.163 548.374 242.126 548.554 243.785 547.758L241.623 543.25ZM294.716 536.375L295.67 531.466V531.466L294.716 536.375ZM367.58 612.507L362.673 613.469C363.049 615.385 364.506 616.908 366.404 617.367C368.302 617.827 370.294 617.139 371.504 615.606L367.58 612.507ZM466.168 574.964L467.121 570.055V570.055L466.168 574.964ZM552.32 679.775L547.324 679.963C547.418 682.471 549.358 684.521 551.857 684.754L552.32 679.775ZM605.777 705.477L602.204 708.975C603.245 710.038 604.706 710.583 606.188 710.46C607.671 710.338 609.023 709.561 609.875 708.342L605.777 705.477ZM699.677 668.168L700.63 663.259V663.259L699.677 668.168ZM777.672 779.231L782.603 780.057V780.057L777.672 779.231ZM770.761 802.041L766.205 799.983C765.612 801.294 765.614 802.797 766.209 804.108C766.804 805.418 767.934 806.409 769.312 806.826L770.761 802.041ZM790.844 811.52L788.072 815.682C790.004 816.969 792.568 816.756 794.262 815.169L790.844 811.52ZM851.333 792.937L852.069 787.992V787.992L851.333 792.937ZM907.446 832.463L903.044 834.834C903.968 836.549 905.805 837.572 907.75 837.453C909.694 837.335 911.394 836.098 912.103 834.283L907.446 832.463ZM975.196 795.832L976.149 790.923V790.923L975.196 795.832ZM1025.99 868.162L1030.92 868.988V868.988L1025.99 868.162ZM1025.28 871.746L1020.4 870.628C1020.02 872.312 1020.53 874.076 1021.75 875.293C1022.98 876.51 1024.75 877.009 1026.43 876.612L1025.28 871.746ZM1047.94 871.338L1048.89 866.429V866.429L1047.94 871.338ZM1088.07 902.979L1083.53 905.064C1084.66 907.531 1087.55 908.645 1090.05 907.573L1088.07 902.979ZM1136.37 897.937L1137.32 893.029V893.029L1136.37 897.937ZM1205.33 971.775L1200.37 972.374C1200.55 973.894 1201.42 975.247 1202.73 976.044C1204.04 976.842 1205.64 976.995 1207.08 976.462L1205.33 971.775ZM1231.15 967.176V962.176V962.176V967.176ZM1307.33 1040.57L1312.33 1040.44V1040.44L1307.33 1040.57ZM1234.95 1113.96V1118.96V1118.96V1113.96ZM1219.35 1112.34L1220.38 1107.45C1218.28 1107.01 1216.13 1107.96 1215.05 1109.8L1219.35 1112.34ZM457.591 1242.64L457.319 1247.63V1247.63L457.591 1242.64ZM-301.256 1001.12L-306.254 1000.98V1000.98L-301.256 1001.12ZM-220.53 917.191L-218.404 921.717C-216.456 920.802 -215.312 918.743 -215.564 916.605L-220.53 917.191ZM-219.443 873.438L-224.374 872.612V872.612L-219.443 873.438ZM-217.309 862.931L-212.446 864.095C-211.925 861.917 -212.915 859.658 -214.87 858.566C-216.825 857.474 -219.267 857.815 -220.849 859.4L-217.309 862.931ZM-335.028 899.816L-335.981 904.724V904.724L-335.028 899.816ZM-445.302 731.963L-450.233 731.137H-450.233L-445.302 731.963ZM-426.617 680.616L-422.32 683.172C-421.565 681.902 -421.41 680.362 -421.897 678.967C-422.385 677.572 -423.464 676.463 -424.847 675.94L-426.617 680.616ZM-513.782 516.658L-518.713 515.832H-518.713L-513.782 516.658ZM-486.701 451.491L-482.661 454.436C-481.568 452.937 -481.395 450.955 -482.212 449.29L-486.701 451.491ZM-500.274 356.264L-505.205 355.438L-505.205 355.438L-500.274 356.264ZM-344.287 237.676L-343.334 232.768V232.768L-344.287 237.676ZM-236.606 407.467L-231.674 408.293V408.293L-236.606 407.467ZM-263.687 472.632L-267.727 469.687C-268.82 471.187 -268.993 473.168 -268.176 474.834L-263.687 472.632ZM-260.65 479.221L-265.239 481.206C-264.688 482.48 -263.631 483.469 -262.323 483.933C-261.014 484.398 -259.571 484.297 -258.339 483.655L-260.65 479.221ZM-180.149 466.227L-180.956 471.162C-179.333 471.427 -177.684 470.878 -176.544 469.692L-180.149 466.227ZM-97.5081 432.244L-96.5549 427.335V427.335L-97.5081 432.244ZM-41.9309 474.716L-46.1604 477.383C-45.1651 478.962 -43.3736 479.855 -41.5139 479.699L-41.9309 474.716ZM-20.7688 474.758L-21.2039 479.739C-18.8301 479.947 -16.6399 478.45 -15.9703 476.164L-20.7688 474.758ZM-8.45828 445.466L-4.09909 447.915C-3.20691 446.327 -3.24896 444.38 -4.20883 442.832C-5.1687 441.284 -6.8945 440.38 -8.71365 440.473L-8.45828 445.466ZM-48.8753 442.589L-49.8285 447.498H-49.8284L-48.8753 442.589ZM0.000671387 758.571L4.82483 759.885C5.29364 758.165 4.81061 756.325 3.55719 755.057C2.30383 753.788 0.469788 753.283 -1.25616 753.732L0.000671387 758.571ZM-45.2444 761.773L-44.6821 756.805C-46.7967 756.565 -48.8311 757.691 -49.752 759.609L-45.2444 761.773ZM-45.4661 762.236L-49.97 760.065C-50.5865 761.343 -50.6304 762.824 -50.0905 764.137C-49.5507 765.45 -48.4781 766.472 -47.1403 766.947L-45.4661 762.236ZM-3.82745 786.581L-7.09628 790.364C-5.62045 791.639 -3.53784 791.94 -1.76172 791.134C0.0144043 790.328 1.15991 788.563 1.17249 786.613L-3.82745 786.581ZM-2.32452 769.175L-7.2558 768.349V768.349L-2.32452 769.175ZM-190.07 230.678L-185.138 231.504C-169.042 135.408 -81.5343 72.3569 10.0309 90.1384L10.9841 85.2301L11.9373 80.3218C-85.516 61.3969 -178.038 128.585 -195.001 229.852L-190.07 230.678ZM10.9841 85.2301L10.0309 90.1384C101.709 107.942 163.358 200.133 147.247 296.315L152.178 297.141L157.11 297.967C174.058 196.785 109.278 99.2249 11.9373 80.3218L10.9841 85.2301ZM152.178 297.141L147.247 296.315C142.196 326.47 130.104 353.369 113.073 375.537L117.038 378.584L121.003 381.63C139.027 358.169 151.787 329.747 157.11 297.967L152.178 297.141ZM117.038 378.584L116.57 383.562C183.149 389.824 236.754 448.768 237.986 520.494L242.985 520.408L247.984 520.322C246.671 443.828 189.476 380.375 117.506 373.606L117.038 378.584ZM242.985 520.408L237.986 520.494C238.115 528.017 237.66 535.389 236.67 542.566L241.623 543.25L246.576 543.933C247.636 536.248 248.122 528.361 247.984 520.322L242.985 520.408ZM241.623 543.25L243.785 547.758C258.953 540.482 276.211 537.874 293.763 541.283L294.716 536.375L295.67 531.466C275.918 527.631 256.481 530.577 239.46 538.741L241.623 543.25ZM294.716 536.375L293.763 541.283C329.026 548.131 355.61 577.423 362.673 613.469L367.58 612.507L372.487 611.546C364.74 572.012 335.414 539.184 295.67 531.466L294.716 536.375ZM367.58 612.507L371.504 615.606C393.615 587.605 428.891 572.818 465.215 579.872L466.168 574.964L467.121 570.055C426.85 562.235 387.908 578.697 363.656 609.409L367.58 612.507ZM466.168 574.964L465.215 579.872C511.937 588.945 545.495 631.317 547.324 679.963L552.32 679.775L557.317 679.587C555.331 626.757 518.842 580.099 467.121 570.055L466.168 574.964ZM552.32 679.775L551.857 684.754C571.331 686.563 588.996 695.483 602.204 708.975L605.777 705.477L609.35 701.979C594.576 686.889 574.743 676.837 552.783 674.796L552.32 679.775ZM605.777 705.477L609.875 708.342C628.944 681.062 663.084 666.155 698.723 673.076L699.677 668.168L700.63 663.259C661.066 655.576 622.985 672.132 601.679 702.613L605.777 705.477ZM699.677 668.168L698.723 673.076C747.784 682.603 780.877 729.827 772.74 778.405L777.672 779.231L782.603 780.057C791.653 726.026 754.908 673.8 700.63 663.259L699.677 668.168ZM777.672 779.231L772.74 778.405C771.458 786.058 769.232 793.28 766.205 799.983L770.761 802.041L775.318 804.099C778.699 796.614 781.178 788.563 782.603 780.057L777.672 779.231ZM770.761 802.041L769.312 806.826C776.084 808.878 782.38 811.891 788.072 815.682L790.844 811.52L793.615 807.359C787.125 803.036 779.941 799.597 772.211 797.255L770.761 802.041ZM790.844 811.52L794.262 815.169C808.664 801.672 829.042 794.674 850.597 797.883L851.333 792.937L852.069 787.992C827.435 784.324 804.011 792.328 787.424 807.872L790.844 811.52ZM851.333 792.937L850.597 797.883C873.659 801.316 892.706 815.642 903.044 834.834L907.446 832.463L911.848 830.091C900.086 808.257 878.396 791.911 852.069 787.992L851.333 792.937ZM907.446 832.463L912.103 834.283C921.545 810.127 947.19 795.486 974.243 800.74L975.196 795.832L976.149 790.923C944.377 784.753 913.997 801.968 902.789 830.642L907.446 832.463ZM975.196 795.832L974.243 800.74C1005.28 806.768 1026.2 836.65 1021.06 867.336L1025.99 868.162L1030.92 868.988C1036.97 832.849 1012.41 797.965 976.149 790.923L975.196 795.832ZM1025.99 868.162L1021.06 867.336C1020.87 868.444 1020.65 869.541 1020.4 870.628L1025.28 871.746L1030.15 872.863C1030.44 871.592 1030.7 870.3 1030.92 868.988L1025.99 868.162ZM1025.28 871.746L1026.43 876.612C1032.92 875.077 1039.89 874.867 1046.99 876.246L1047.94 871.338L1048.89 866.429C1040.39 864.778 1031.99 865.021 1024.13 866.88L1025.28 871.746ZM1047.94 871.338L1046.99 876.246C1063.62 879.475 1076.92 890.655 1083.53 905.064L1088.07 902.979L1092.62 900.895C1084.73 883.694 1068.83 870.302 1048.89 866.429L1047.94 871.338ZM1088.07 902.979L1090.05 907.573C1103.73 901.693 1119.39 899.732 1135.42 902.845L1136.37 897.937L1137.32 893.029C1119.3 889.528 1101.6 891.724 1086.1 898.385L1088.07 902.979ZM1136.37 897.937L1135.42 902.845C1170.54 909.667 1196.31 938.712 1200.37 972.374L1205.33 971.775L1210.3 971.176C1205.73 933.297 1176.8 900.695 1137.32 893.029L1136.37 897.937ZM1205.33 971.775L1207.08 976.462C1214.52 973.695 1222.63 972.176 1231.15 972.176V967.176V962.176C1221.43 962.176 1212.14 963.909 1203.59 967.088L1205.33 971.775ZM1231.15 967.176V972.176C1269.52 972.177 1301.36 1002.93 1302.33 1040.7L1307.33 1040.57L1312.33 1040.44C1311.21 997.142 1274.84 962.177 1231.15 962.176V967.176ZM1307.33 1040.57L1302.33 1040.7C1303.31 1078.36 1273.22 1108.96 1234.95 1108.96V1113.96V1118.96C1278.73 1118.96 1313.45 1083.84 1312.33 1040.44L1307.33 1040.57ZM1234.95 1113.96V1108.96C1229.96 1108.96 1225.09 1108.44 1220.38 1107.45L1219.35 1112.34L1218.33 1117.24C1223.7 1118.36 1229.26 1118.96 1234.95 1118.96V1113.96ZM1219.35 1112.34L1215.05 1109.8C1202 1131.88 1172.8 1152.57 1129.15 1170.72C1085.7 1188.79 1028.73 1204.02 961.278 1215.7C826.402 1239.06 650.241 1248.11 457.862 1237.64L457.591 1242.64L457.319 1247.63C650.266 1258.13 827.204 1249.07 962.985 1225.56C1030.86 1213.8 1088.61 1198.41 1132.99 1179.95C1177.17 1161.58 1208.91 1139.84 1223.66 1114.89L1219.35 1112.34ZM457.591 1242.64L457.862 1237.64C247.038 1226.17 56.9773 1193.45 -79.8406 1149.9C-148.285 1128.12 -203.134 1103.71 -240.569 1078.08C-278.279 1052.26 -296.968 1026.16 -296.258 1001.26L-301.256 1001.12L-306.254 1000.98C-307.119 1031.28 -284.521 1060.1 -246.218 1086.33C-207.641 1112.74 -151.754 1137.51 -82.8734 1159.43C54.9571 1203.3 245.895 1236.13 457.319 1247.63L457.591 1242.64ZM-301.256 1001.12L-296.258 1001.26C-295.852 987.034 -289.151 973.154 -276.042 959.732C-262.897 946.273 -243.519 933.511 -218.404 921.717L-220.53 917.191L-222.655 912.665C-248.379 924.746 -268.913 938.121 -283.196 952.745C-297.514 967.405 -305.757 983.552 -306.254 1000.98L-301.256 1001.12ZM-220.53 917.191L-215.564 916.605C-217.185 902.866 -216.917 888.627 -214.511 874.264L-219.443 873.438L-224.374 872.612C-226.938 887.92 -227.226 903.11 -225.495 917.777L-220.53 917.191ZM-219.443 873.438L-214.511 874.264C-213.934 870.82 -213.244 867.429 -212.446 864.095L-217.309 862.931L-222.172 861.768C-223.022 865.324 -223.759 868.94 -224.374 872.612L-219.443 873.438ZM-217.309 862.931L-220.849 859.4C-250.034 888.658 -291.493 903.177 -334.074 894.908L-335.028 899.816L-335.981 904.724C-289.906 913.672 -245.137 897.909 -213.769 866.462L-217.309 862.931ZM-335.028 899.816L-334.074 894.908C-405.208 881.094 -453.082 808.678 -440.371 732.789L-445.302 731.963L-450.233 731.137C-463.762 811.904 -412.893 889.788 -335.981 904.724L-335.028 899.816ZM-445.302 731.963L-440.371 732.789C-437.319 714.57 -431.055 697.857 -422.32 683.172L-426.617 680.616L-430.915 678.06C-440.282 693.809 -446.977 711.695 -450.233 731.137L-445.302 731.963ZM-426.617 680.616L-424.847 675.94C-483.484 653.734 -520.538 587.258 -508.85 517.484L-513.782 516.658L-518.713 515.832C-531.108 589.83 -491.93 661.228 -428.388 685.292L-426.617 680.616ZM-513.782 516.658L-508.85 517.484C-504.845 493.572 -495.59 472.173 -482.661 454.436L-486.701 451.491L-490.742 448.546C-504.59 467.544 -514.452 490.395 -518.713 515.832L-513.782 516.658ZM-486.701 451.491L-482.212 449.29C-495.534 422.121 -500.845 389.94 -495.342 357.09L-500.274 356.264L-505.205 355.438C-511.058 390.379 -505.419 424.676 -491.191 453.692L-486.701 451.491ZM-500.274 356.264L-495.342 357.09C-482.398 279.812 -414.891 229.059 -345.241 242.585L-344.287 237.676L-343.334 232.768C-419.304 218.015 -491.472 273.45 -505.205 355.438L-500.274 356.264ZM-344.287 237.676L-345.241 242.585C-275.462 256.136 -228.581 329.294 -241.537 406.641L-236.606 407.467L-231.674 408.293C-217.953 326.373 -267.494 247.496 -343.334 232.768L-344.287 237.676ZM-236.606 407.467L-241.537 406.641C-245.542 430.552 -254.798 451.95 -267.727 469.687L-263.687 472.632L-259.646 475.578C-245.798 456.58 -235.935 433.73 -231.674 408.293L-236.606 407.467ZM-263.687 472.632L-268.176 474.834C-267.149 476.928 -266.17 479.053 -265.239 481.206L-260.65 479.221L-256.06 477.237C-257.054 474.939 -258.1 472.67 -259.197 470.431L-263.687 472.632ZM-260.65 479.221L-258.339 483.655C-235.141 471.566 -208.361 466.677 -180.956 471.162L-180.149 466.227L-179.341 461.293C-208.965 456.445 -237.925 461.741 -262.96 474.787L-260.65 479.221ZM-180.149 466.227L-176.544 469.692C-151.873 444.028 -124.475 432.1 -98.4612 437.152L-97.5081 432.244L-96.5549 427.335C-127.163 421.392 -157.787 435.751 -183.753 462.762L-180.149 466.227ZM-97.5081 432.244L-98.4612 437.152C-77.98 441.129 -60.1133 455.254 -46.1604 477.383L-41.9309 474.716L-37.7014 472.05C-52.6359 448.363 -72.5777 431.992 -96.5549 427.335L-97.5081 432.244ZM-41.9309 474.716L-41.5139 479.699C-34.8378 479.14 -28.052 479.141 -21.2039 479.739L-20.7688 474.758L-20.3338 469.777C-27.7525 469.129 -35.1085 469.128 -42.348 469.734L-41.9309 474.716ZM-20.7688 474.758L-15.9703 476.164C-13.0465 466.178 -9.04172 456.713 -4.09909 447.915L-8.45828 445.466L-12.8175 443.017C-18.1305 452.475 -22.4303 462.64 -25.5674 473.353L-20.7688 474.758ZM-8.45828 445.466L-8.71365 440.473C-21.5519 441.129 -34.6874 440.251 -47.9221 437.681L-48.8753 442.589L-49.8284 447.498C-35.7932 450.223 -21.846 451.158 -8.20291 450.46L-8.45828 445.466ZM-48.8753 442.589L-47.9221 437.681C-139.6 419.878 -201.249 327.686 -185.138 231.504L-190.07 230.678L-195.001 229.852C-211.949 331.034 -147.169 428.595 -49.8285 447.498L-48.8753 442.589ZM0.000671387 758.571L-1.25616 753.732C-15.1513 757.34 -29.7909 758.49 -44.6821 756.805L-45.2444 761.773L-45.8068 766.741C-29.6717 768.568 -13.7991 767.321 1.25757 763.41L0.000671387 758.571ZM-45.2444 761.773L-49.752 759.609C-49.8441 759.801 -49.8929 759.905 -49.97 760.065L-45.4661 762.236L-40.9622 764.407C-40.8908 764.259 -40.7928 764.053 -40.7368 763.937L-45.2444 761.773ZM-45.4661 762.236L-47.1403 766.947C-32.3154 772.215 -18.8291 780.227 -7.09628 790.364L-3.82745 786.581L-0.558594 782.797C-13.1898 771.884 -27.7487 763.226 -43.7919 757.525L-45.4661 762.236ZM-3.82745 786.581L1.17249 786.613C1.20807 781.082 1.6795 775.538 2.60681 770.001L-2.32452 769.175L-7.2558 768.349C-8.27185 774.415 -8.78833 780.491 -8.82733 786.549L-3.82745 786.581ZM-2.32452 769.175L2.60681 770.001C3.18262 766.564 3.92426 763.191 4.82483 759.885L0.000671387 758.571L-4.82346 757.257C-5.81168 760.884 -6.62488 764.583 -7.2558 768.349L-2.32452 769.175Z" fill="black" mask="url(#path-1-outside-1_1410_147)"/>
<path d="M105.875 646.695C112.611 657.567 125.116 662.178 134.526 657.259C125.576 662.972 123.351 676.114 129.428 687.367C122.692 676.495 110.186 671.884 100.777 676.803C109.726 671.09 111.952 657.948 105.875 646.695Z" fill="#F5FE8E" stroke="black" stroke-width="4" stroke-linejoin="round"/>
<path d="M272.151 637.22L286.681 642.606" stroke="white" stroke-width="5" stroke-miterlimit="2" stroke-linecap="round" stroke-linejoin="round"/>
<path d="M282.107 632.646L276.721 647.176" stroke="white" stroke-width="5" stroke-miterlimit="2" stroke-linecap="round" stroke-linejoin="round"/>
<path fill-rule="evenodd" clip-rule="evenodd" d="M323.698 719.51C324.423 724.428 321.024 729.002 316.106 729.726C311.189 730.451 306.615 727.052 305.89 722.134C305.166 717.217 308.565 712.643 313.482 711.918C318.4 711.194 322.973 714.593 323.698 719.51Z" fill="white" stroke="black" stroke-width="5" stroke-miterlimit="2" stroke-linecap="round" stroke-linejoin="round"/>
<path d="M92.426 543.616L120.736 530.292" stroke="white" stroke-width="5" stroke-miterlimit="2" stroke-linecap="round" stroke-linejoin="round"/>
<path d="M98.1589 519.017L115.002 554.895" stroke="white" stroke-width="5" stroke-miterlimit="2" stroke-linecap="round" stroke-linejoin="round"/>
<path d="M92.4739 531.726L120.683 542.183" stroke="white" stroke-width="5" stroke-miterlimit="2" stroke-linecap="round" stroke-linejoin="round"/>
<path d="M101.351 551.06L111.807 522.849" stroke="white" stroke-width="5" stroke-miterlimit="2" stroke-linecap="round" stroke-linejoin="round"/>
</g>
<defs>
<clipPath id="clip0_1410_147">
<rect width="1920" height="1014" fill="white"/>
</clipPath>
</defs>
</svg>
