<svg width="1920" height="1014" viewBox="0 0 1920 1014" fill="none" xmlns="http://www.w3.org/2000/svg">
<g clip-path="url(#clip0_1410_316)">
<mask id="path-1-outside-1_1410_316" maskUnits="userSpaceOnUse" x="949.522" y="22.3545" width="1268" height="1151" fill="black">
<rect fill="white" x="949.522" y="22.3545" width="1268" height="1151"/>
<path d="M1890.51 30.1651C1972.43 15.4998 2050.92 59.5495 2079.65 131.409C2136.45 129.416 2187.74 169.773 2198.28 227.778C2203.2 254.826 2198.45 281.35 2186.53 303.767C2198.12 318.422 2206.39 336.076 2209.97 355.764C2220.39 413.119 2187.4 468.121 2134.53 486.583C2142.37 498.726 2147.98 512.53 2150.71 527.557C2162.06 590.055 2119.33 650.018 2055.26 661.488C2016.89 668.357 1979.57 656.276 1953.37 632.056C1954.08 634.805 1954.7 637.599 1955.21 640.438C1955.95 644.468 1956.45 648.488 1956.75 652.483C1991.21 663.127 2012.91 679.114 2016.66 699.736C2021.49 726.314 1995.66 756.019 1949.08 783.568C2060.65 797.133 2137.81 835.617 2148.14 892.519C2165.96 990.546 1978.73 1106.11 1729.97 1150.65C1481.2 1195.18 1265.1 1151.82 1247.29 1053.79C1246.21 1047.87 1245.89 1041.89 1246.28 1035.87C1138.06 1043.83 1047.87 1028.26 1006.93 994.938C984.743 983.899 966.577 963.065 958.632 936.179C944.276 887.594 968.729 837.646 1013.25 824.617C1035.44 818.122 1058.43 822.028 1077.69 833.597C1083.4 805.606 1104.49 781.443 1134.45 772.676C1149.03 768.408 1163.83 768.341 1177.49 771.755C1169.72 732.335 1193.99 692.568 1234.36 680.754C1258.32 673.741 1282.87 678.068 1301.98 690.55C1310.98 671.254 1327.8 655.711 1349.21 648.437C1342.64 592.345 1381.98 539.946 1439.85 529.587C1460.57 525.878 1480.95 528.042 1499.22 534.864C1506.35 492.911 1539.81 457.774 1585.18 449.652C1596.84 447.564 1608.4 447.422 1619.5 448.99C1622.44 431.731 1631.31 416.08 1644.31 404.612C1636.99 395.528 1631.21 385.014 1627.46 373.311C1610.65 320.844 1640.94 264.365 1695.11 247.161C1713.37 241.364 1732.01 240.767 1749.34 244.531C1751.02 241.872 1752.82 239.29 1754.74 236.794C1753.45 232.134 1752.35 227.377 1751.47 222.531C1735.2 132.951 1797.44 46.8255 1890.51 30.1651Z"/>
</mask>
<path d="M1890.51 30.1651C1972.43 15.4998 2050.92 59.5495 2079.65 131.409C2136.45 129.416 2187.74 169.773 2198.28 227.778C2203.2 254.826 2198.45 281.35 2186.53 303.767C2198.12 318.422 2206.39 336.076 2209.97 355.764C2220.39 413.119 2187.4 468.121 2134.53 486.583C2142.37 498.726 2147.98 512.53 2150.71 527.557C2162.06 590.055 2119.33 650.018 2055.26 661.488C2016.89 668.357 1979.57 656.276 1953.37 632.056C1954.08 634.805 1954.7 637.599 1955.21 640.438C1955.95 644.468 1956.45 648.488 1956.75 652.483C1991.21 663.127 2012.91 679.114 2016.66 699.736C2021.49 726.314 1995.66 756.019 1949.08 783.568C2060.65 797.133 2137.81 835.617 2148.14 892.519C2165.96 990.546 1978.73 1106.11 1729.97 1150.65C1481.2 1195.18 1265.1 1151.82 1247.29 1053.79C1246.21 1047.87 1245.89 1041.89 1246.28 1035.87C1138.06 1043.83 1047.87 1028.26 1006.93 994.938C984.743 983.899 966.577 963.065 958.632 936.179C944.276 887.594 968.729 837.646 1013.25 824.617C1035.44 818.122 1058.43 822.028 1077.69 833.597C1083.4 805.606 1104.49 781.443 1134.45 772.676C1149.03 768.408 1163.83 768.341 1177.49 771.755C1169.72 732.335 1193.99 692.568 1234.36 680.754C1258.32 673.741 1282.87 678.068 1301.98 690.55C1310.98 671.254 1327.8 655.711 1349.21 648.437C1342.64 592.345 1381.98 539.946 1439.85 529.587C1460.57 525.878 1480.95 528.042 1499.22 534.864C1506.35 492.911 1539.81 457.774 1585.18 449.652C1596.84 447.564 1608.4 447.422 1619.5 448.99C1622.44 431.731 1631.31 416.08 1644.31 404.612C1636.99 395.528 1631.21 385.014 1627.46 373.311C1610.65 320.844 1640.94 264.365 1695.11 247.161C1713.37 241.364 1732.01 240.767 1749.34 244.531C1751.02 241.872 1752.82 239.29 1754.74 236.794C1753.45 232.134 1752.35 227.377 1751.47 222.531C1735.2 132.951 1797.44 46.8255 1890.51 30.1651Z" fill="#336BEC"/>
<path d="M1890.51 30.1651L1889.63 25.2433V25.2433L1890.51 30.1651ZM2079.65 131.409L2075 133.265L2076.31 136.529L2079.82 136.406L2079.65 131.409ZM2198.28 227.778L2203.2 226.884V226.884L2198.28 227.778ZM2186.53 303.767L2182.12 301.418L2180.58 304.304L2182.61 306.868L2186.53 303.767ZM2209.97 355.764L2214.89 354.87V354.87L2209.97 355.764ZM2134.53 486.583L2132.88 481.863L2126.89 483.957L2130.33 489.294L2134.53 486.583ZM2150.71 527.557L2155.63 526.663V526.663L2150.71 527.557ZM2055.26 661.488L2056.14 666.41V666.41L2055.26 661.488ZM1953.37 632.056L1956.76 628.384L1944.25 616.819L1948.53 633.312L1953.37 632.056ZM1955.21 640.438L1960.13 639.544V639.544L1955.21 640.438ZM1956.75 652.483L1951.77 652.855L1952.02 656.255L1955.28 657.261L1956.75 652.483ZM2016.66 699.736L2021.58 698.843V698.843L2016.66 699.736ZM1949.08 783.568L1946.54 779.265L1933.87 786.756L1948.48 788.532L1949.08 783.568ZM2148.14 892.519L2153.06 891.625V891.625L2148.14 892.519ZM1729.97 1150.65L1730.85 1155.57V1155.57L1729.97 1150.65ZM1247.29 1053.79L1242.37 1054.68H1242.37L1247.29 1053.79ZM1246.28 1035.87L1251.27 1036.19L1251.63 1030.46L1245.91 1030.88L1246.28 1035.87ZM1006.93 994.938L1010.08 991.059L1009.65 990.709L1009.16 990.461L1006.93 994.938ZM958.632 936.179L953.837 937.596L953.837 937.596L958.632 936.179ZM1013.25 824.617L1011.84 819.819H1011.84L1013.25 824.617ZM1077.69 833.597L1075.11 837.883L1081.17 841.524L1082.59 834.596L1077.69 833.597ZM1134.45 772.676L1133.04 767.877H1133.04L1134.45 772.676ZM1177.49 771.755L1176.28 776.606L1183.92 778.515L1182.4 770.789L1177.49 771.755ZM1234.36 680.754L1232.95 675.955V675.955L1234.36 680.754ZM1301.98 690.55L1299.25 694.736L1304.08 697.889L1306.52 692.663L1301.98 690.55ZM1349.21 648.437L1350.82 653.171L1354.65 651.87L1354.18 647.855L1349.21 648.437ZM1439.85 529.587L1438.97 524.665H1438.97L1439.85 529.587ZM1499.22 534.864L1497.47 539.548L1503.13 541.664L1504.15 535.702L1499.22 534.864ZM1585.18 449.652L1584.3 444.731V444.731L1585.18 449.652ZM1619.5 448.99L1618.8 453.941L1623.61 454.621L1624.42 449.831L1619.5 448.99ZM1644.31 404.612L1647.61 408.361L1651.2 405.199L1648.2 401.477L1644.31 404.612ZM1627.46 373.311L1622.7 374.836V374.836L1627.46 373.311ZM1695.11 247.161L1693.6 242.396V242.396L1695.11 247.161ZM1749.34 244.531L1748.28 249.417L1751.7 250.16L1753.57 247.2L1749.34 244.531ZM1754.74 236.794L1758.71 239.839L1760.22 237.861L1759.56 235.457L1754.74 236.794ZM1751.47 222.531L1746.55 223.425V223.425L1751.47 222.531ZM1890.51 30.1651L1891.39 35.0869C1971.06 20.8254 2047.19 63.6825 2075 133.265L2079.65 131.409L2084.29 129.553C2054.65 55.4165 1973.81 10.1741 1889.63 25.2433L1890.51 30.1651ZM2079.65 131.409L2079.82 136.406C2134.14 134.5 2183.27 173.114 2193.36 228.672L2198.28 227.778L2203.2 226.884C2192.22 166.432 2138.75 124.332 2079.47 126.412L2079.65 131.409ZM2198.28 227.778L2193.36 228.672C2198.07 254.579 2193.53 279.964 2182.12 301.418L2186.53 303.767L2190.94 306.115C2203.38 282.736 2208.32 255.073 2203.2 226.884L2198.28 227.778ZM2186.53 303.767L2182.61 306.868C2193.7 320.896 2201.62 337.796 2205.05 356.658L2209.97 355.764L2214.89 354.87C2211.16 334.357 2202.54 315.949 2190.45 300.665L2186.53 303.767ZM2209.97 355.764L2205.05 356.658C2215.03 411.586 2183.44 464.21 2132.88 481.863L2134.53 486.583L2136.18 491.304C2191.37 472.032 2225.75 414.652 2214.89 354.87L2209.97 355.764ZM2134.53 486.583L2130.33 489.294C2137.82 500.897 2143.18 514.085 2145.79 528.451L2150.71 527.557L2155.63 526.663C2152.78 510.975 2146.92 496.555 2138.73 483.872L2134.53 486.583ZM2150.71 527.557L2145.79 528.451C2156.63 588.114 2115.84 645.564 2054.38 656.567L2055.26 661.488L2056.14 666.41C2122.82 654.473 2167.5 591.996 2155.63 526.663L2150.71 527.557ZM2055.26 661.488L2054.38 656.567C2017.59 663.152 1981.84 651.568 1956.76 628.384L1953.37 632.056L1949.97 635.728C1977.3 660.984 2016.19 673.562 2056.14 666.41L2055.26 661.488ZM1953.37 632.056L1948.53 633.312C1949.21 635.943 1949.8 638.617 1950.29 641.331L1955.21 640.438L1960.13 639.544C1959.59 636.581 1958.95 633.666 1958.21 630.8L1953.37 632.056ZM1955.21 640.438L1950.29 641.331C1950.99 645.187 1951.48 649.032 1951.77 652.855L1956.75 652.483L1961.74 652.111C1961.43 647.943 1960.9 643.749 1960.13 639.544L1955.21 640.438ZM1956.75 652.483L1955.28 657.261C1972.17 662.478 1985.59 668.909 1995.16 676.32C2004.69 683.707 2010.15 691.866 2011.74 700.63L2016.66 699.736L2021.58 698.843C2019.42 686.984 2012.15 676.839 2001.28 668.416C1990.44 660.016 1975.79 653.132 1958.23 647.706L1956.75 652.483ZM2016.66 699.736L2011.74 700.63C2013.79 711.904 2009.47 724.515 1998.29 738.112C1987.12 751.684 1969.56 765.648 1946.54 779.265L1949.08 783.568L1951.63 787.872C1975.18 773.94 1993.82 759.277 2006.01 744.465C2018.18 729.677 2024.36 714.147 2021.58 698.843L2016.66 699.736ZM1949.08 783.568L1948.48 788.532C2003.91 795.271 2050.43 808.166 2084.22 826.203C2118.06 844.268 2138.44 867.075 2143.23 893.412L2148.14 892.519L2153.06 891.625C2147.51 861.061 2124.14 836.175 2088.93 817.381C2053.67 798.56 2005.83 785.431 1949.69 778.605L1949.08 783.568ZM2148.14 892.519L2143.23 893.412C2147.35 916.102 2139.72 940.317 2121.3 964.949C2102.87 989.59 2073.92 1014.23 2036.4 1037.39C1961.38 1083.69 1853.01 1123.54 1729.09 1145.73L1729.97 1150.65L1730.85 1155.57C1855.69 1133.22 1965.32 1093.02 2041.65 1045.9C2079.8 1022.35 2109.87 996.928 2129.31 970.939C2148.75 944.939 2157.85 917.949 2153.06 891.625L2148.14 892.519ZM1729.97 1150.65L1729.09 1145.73C1605.16 1167.91 1489.6 1168.15 1403.01 1150.78C1359.69 1142.08 1323.89 1129.04 1297.95 1112.34C1272.01 1095.64 1256.33 1075.59 1252.21 1052.9L1247.29 1053.79L1242.37 1054.68C1247.15 1081 1265.17 1103.13 1292.53 1120.75C1319.89 1138.35 1357 1151.74 1401.04 1160.58C1489.14 1178.26 1606.01 1177.92 1730.85 1155.57L1729.97 1150.65ZM1247.29 1053.79L1252.21 1052.9C1251.21 1047.39 1250.9 1041.82 1251.27 1036.19L1246.28 1035.87L1241.29 1035.54C1240.87 1041.96 1241.22 1048.35 1242.37 1054.68L1247.29 1053.79ZM1246.28 1035.87L1245.91 1030.88C1192.12 1034.84 1142.93 1032.94 1102.22 1025.95C1061.39 1018.95 1029.59 1006.93 1010.08 991.059L1006.93 994.938L1003.77 998.816C1025.21 1016.26 1058.98 1028.69 1100.53 1035.81C1142.21 1042.96 1192.22 1044.86 1246.64 1040.85L1246.28 1035.87ZM1006.93 994.938L1009.16 990.461C988.23 980.049 970.983 960.333 963.427 934.762L958.632 936.179L953.837 937.596C962.17 965.797 981.255 987.748 1004.7 999.414L1006.93 994.938ZM958.632 936.179L963.427 934.762C949.735 888.422 973.18 841.554 1014.65 829.416L1013.25 824.617L1011.84 819.819C964.279 833.739 938.818 886.766 953.837 937.596L958.632 936.179ZM1013.25 824.617L1014.65 829.416C1035.38 823.35 1056.94 826.963 1075.11 837.883L1077.69 833.597L1080.26 829.311C1059.93 817.092 1035.5 812.895 1011.84 819.819L1013.25 824.617ZM1077.69 833.597L1082.59 834.596C1087.93 808.402 1107.69 785.715 1135.85 777.475L1134.45 772.676L1133.04 767.877C1101.29 777.171 1078.87 802.81 1072.79 832.597L1077.69 833.597ZM1134.45 772.676L1135.85 777.475C1149.56 773.462 1163.46 773.403 1176.28 776.606L1177.49 771.755L1178.7 766.904C1164.2 763.28 1148.5 763.355 1133.04 767.877L1134.45 772.676ZM1177.49 771.755L1182.4 770.789C1175.15 733.991 1197.79 696.664 1235.76 685.553L1234.36 680.754L1232.95 675.955C1190.19 688.471 1164.3 730.68 1172.58 772.721L1177.49 771.755ZM1234.36 680.754L1235.76 685.553C1258.29 678.961 1281.33 683.032 1299.25 694.736L1301.98 690.55L1304.72 686.363C1284.41 673.103 1258.35 668.522 1232.95 675.955L1234.36 680.754ZM1301.98 690.55L1306.52 692.663C1314.94 674.59 1330.71 660.002 1350.82 653.171L1349.21 648.437L1347.6 643.702C1324.89 651.42 1307.02 667.918 1297.45 688.437L1301.98 690.55ZM1349.21 648.437L1354.18 647.855C1347.93 594.486 1385.37 544.419 1440.73 534.509L1439.85 529.587L1438.97 524.665C1378.6 535.473 1337.36 590.203 1344.24 649.018L1349.21 648.437ZM1439.85 529.587L1440.73 534.509C1460.54 530.962 1480.03 533.033 1497.47 539.548L1499.22 534.864L1500.97 530.18C1481.88 523.051 1460.59 520.795 1438.97 524.665L1439.85 529.587ZM1499.22 534.864L1504.15 535.702C1510.92 495.832 1542.77 462.325 1586.06 454.574L1585.18 449.652L1584.3 444.731C1536.86 453.223 1501.77 489.99 1494.29 534.026L1499.22 534.864ZM1585.18 449.652L1586.06 454.574C1597.2 452.581 1608.22 452.447 1618.8 453.941L1619.5 448.99L1620.19 444.039C1608.58 442.398 1596.49 442.548 1584.3 444.731L1585.18 449.652ZM1619.5 448.99L1624.42 449.831C1627.17 433.719 1635.46 419.087 1647.61 408.361L1644.31 404.612L1641 400.863C1627.16 413.073 1617.71 429.744 1614.57 448.149L1619.5 448.99ZM1644.31 404.612L1648.2 401.477C1641.26 392.861 1635.78 382.891 1632.22 371.785L1627.46 373.311L1622.7 374.836C1626.64 387.138 1632.72 398.196 1640.41 407.748L1644.31 404.612ZM1627.46 373.311L1632.22 371.785C1616.3 322.092 1644.95 268.338 1696.63 251.927L1695.11 247.161L1693.6 242.396C1636.93 260.392 1605 319.596 1622.7 374.836L1627.46 373.311ZM1695.11 247.161L1696.63 251.927C1714.03 246.399 1731.78 245.835 1748.28 249.417L1749.34 244.531L1750.4 239.645C1732.23 235.699 1712.71 236.328 1693.6 242.396L1695.11 247.161ZM1749.34 244.531L1753.57 247.2C1755.17 244.671 1756.88 242.215 1758.71 239.839L1754.74 236.794L1750.77 233.749C1748.76 236.365 1746.88 239.072 1745.11 241.863L1749.34 244.531ZM1754.74 236.794L1759.56 235.457C1758.3 230.942 1757.25 226.333 1756.39 221.637L1751.47 222.531L1746.55 223.425C1747.46 228.421 1748.59 233.325 1749.92 238.131L1754.74 236.794ZM1751.47 222.531L1756.39 221.637C1740.64 134.953 1800.87 51.2915 1891.39 35.0868L1890.51 30.1651L1889.63 25.2433C1794.02 42.3596 1729.75 130.949 1746.55 223.425L1751.47 222.531Z" fill="black" mask="url(#path-1-outside-1_1410_316)"/>
<path d="M1679.17 537.163C1680.9 549.835 1690.45 559.134 1701.04 558.468C1690.54 560.046 1683.17 571.147 1684.14 583.899C1682.41 571.227 1672.86 561.928 1662.26 562.595C1672.76 561.016 1680.14 549.915 1679.17 537.163Z" fill="#F5FE8E" stroke="black" stroke-width="4" stroke-linejoin="round"/>
<path d="M1811.25 469.134L1796.71 470.278" stroke="white" stroke-width="5" stroke-miterlimit="10" stroke-linecap="round"/>
<path d="M1844.12 466.549L1829.57 467.693" stroke="white" stroke-width="5" stroke-miterlimit="10" stroke-linecap="round"/>
<path d="M1821.13 477.575L1822.28 492.117" stroke="white" stroke-width="5" stroke-miterlimit="10" stroke-linecap="round"/>
<path d="M1818.55 444.71L1819.69 459.253" stroke="white" stroke-width="5" stroke-miterlimit="10" stroke-linecap="round"/>
<path fill-rule="evenodd" clip-rule="evenodd" d="M1756.75 628.261C1757.46 633.181 1754.05 637.745 1749.13 638.457C1744.21 639.168 1739.65 635.757 1738.94 630.838C1738.23 625.919 1741.64 621.354 1746.56 620.642C1751.48 619.931 1756.04 623.342 1756.75 628.261Z" fill="white" stroke="black" stroke-width="5" stroke-miterlimit="2" stroke-linecap="round" stroke-linejoin="round"/>
<path d="M1586.06 681.241L1609.08 711.031" stroke="white" stroke-width="5" stroke-miterlimit="2" stroke-linecap="round" stroke-linejoin="round"/>
<path d="M1585 705.224L1609.01 685.66" stroke="white" stroke-width="5" stroke-miterlimit="2" stroke-linecap="round" stroke-linejoin="round"/>
</g>
<defs>
<clipPath id="clip0_1410_316">
<rect width="1920" height="1014" fill="white"/>
</clipPath>
</defs>
</svg>
