<svg width="104" height="98" viewBox="0 0 104 98" fill="none" xmlns="http://www.w3.org/2000/svg">
<path d="M52.5901 40.5254C55.7308 40.5126 57.6623 43.532 57.6366 45.7722C57.5649 52.3679 47.6668 52.7152 47.4885 45.4377C47.4168 42.501 49.7011 40.5365 52.5882 40.5254H52.5901Z" fill="black"/>
<path d="M72.1515 40.2378C74.9486 40.0889 77.3193 43.0808 77.3542 45.4809C77.3928 48.107 75.0515 50.588 72.4198 50.4704C66.3057 50.8857 64.7417 40.6329 72.1497 40.2378H72.1515Z" fill="black"/>
<path d="M33.6431 39.9964C36.3501 39.7502 38.6418 42.8045 38.64 45.2414C38.6363 47.8969 36.249 50.2106 33.6376 50.218C27.2128 50.2327 26.3068 39.8751 33.6449 39.9982L33.6431 39.9964Z" fill="black"/>
<mask id="path-4-inside-1_1280_648" fill="white">
<path d="M52 0C23.2812 0 0 19.0191 0 42.4795C0.000282288 65.9397 23.2814 84.958 52 84.958C55.2015 84.958 58.3353 84.7201 61.377 84.2676C68.1612 91.0382 80.0996 97.6633 85.6904 97.4092C81.4503 90.6748 78.9093 83.9404 77.7197 79.4043C93.4164 72.0926 104 58.2965 104 42.4795C104 19.0191 80.7188 0 52 0Z"/>
</mask>
<path d="M0 42.4795L-5 42.4796V42.4795H0ZM61.377 84.2676L60.6412 79.322L63.1288 78.9519L64.9089 80.7285L61.377 84.2676ZM85.6904 97.4092L89.9216 94.7451L94.4983 102.014L85.9175 102.404L85.6904 97.4092ZM77.7197 79.4043L72.8833 80.6727L71.8243 76.6346L75.6085 74.8719L77.7197 79.4043ZM104 42.4795H109V42.4796L104 42.4795ZM52 0V5C25.0499 5 5 22.6782 5 42.4795H0H-5C-5 15.3599 21.5125 -5 52 -5V0ZM0 42.4795L5 42.4794C5.00024 62.2805 25.05 79.958 52 79.958V84.958V89.958C21.5128 89.958 -4.99968 69.599 -5 42.4796L0 42.4795ZM52 84.958V79.958C54.9538 79.958 57.8416 79.7385 60.6412 79.322L61.377 84.2676L62.1127 89.2132C58.829 89.7017 55.4493 89.958 52 89.958V84.958ZM61.377 84.2676L64.9089 80.7285C67.9021 83.7157 72.1769 86.7939 76.3749 89.0828C78.4594 90.2194 80.4275 91.1078 82.1117 91.6865C83.8848 92.2958 84.9848 92.4361 85.4634 92.4143L85.6904 97.4092L85.9175 102.404C83.6007 102.509 81.1118 101.917 78.8621 101.144C76.5234 100.34 74.0346 99.1967 71.5877 97.8625C66.7226 95.2098 61.6361 91.5901 57.845 87.8067L61.377 84.2676ZM85.6904 97.4092L81.4593 100.073C76.9213 92.8659 74.1893 85.6526 72.8833 80.6727L77.7197 79.4043L82.5562 78.1359C83.6294 82.2282 85.9792 88.4836 89.9216 94.7451L85.6904 97.4092ZM77.7197 79.4043L75.6085 74.8719C90.0012 68.1676 98.9998 55.8934 99 42.4794L104 42.4795L109 42.4796C109 60.6996 96.8316 76.0176 79.831 83.9367L77.7197 79.4043ZM104 42.4795H99C99 22.6782 78.9501 5 52 5V0V-5C82.4875 -5 109 15.3599 109 42.4795H104Z" fill="black" mask="url(#path-4-inside-1_1280_648)"/>
</svg>
