<svg width="222" height="271" viewBox="0 0 222 271" fill="none" xmlns="http://www.w3.org/2000/svg">
<path d="M165.527 124.271C160.496 162.602 136.323 184.265 88.3121 195.869M88.3121 195.869C74.4428 201.36 54.4097 199.698 44.3598 193.079C34.3079 186.458 31.8744 175.907 38.7557 166.837C45.6371 157.767 57.4697 159.16 57.4697 159.16C57.4697 159.16 58.1372 147.265 68.2576 142.05C78.3779 136.835 88.3535 141.053 93.141 152.094C97.9305 163.137 94.936 179.272 88.3121 195.869ZM88.3121 195.869C81.6881 212.466 68.0857 226.709 43.4265 225.313" stroke="black" stroke-width="5" stroke-linecap="round"/>
<path d="M153.867 33.0223L156.615 45.9923L157.261 49.0453L160.277 49.8409C162.712 50.4705 164.694 51.3353 166.908 52.7931C176.144 58.8008 179.611 70.3659 175.73 80.244L175.663 80.4296L175.607 80.6233L164.171 117.9L137.659 87.4412L137.609 87.4089L137.576 87.3518C130.721 79.8548 129.515 68.3995 135.304 59.498C136.681 57.3546 138.097 55.8022 139.977 54.2692L142.366 52.3073L141.724 49.2749L138.951 36.182L153.847 33.0267L153.867 33.0223ZM180.467 82.0881C185.198 70.0068 180.975 55.8829 169.677 48.5348C167.12 46.8714 164.383 45.6742 161.581 44.9296L158.834 31.9596L157.783 27.0011L152.825 28.0514L137.929 31.2067L132.97 32.257L134.021 37.2155L136.794 50.3084C134.613 52.0872 132.677 54.2205 131.07 56.6911C123.989 67.579 125.474 81.5656 133.847 90.7214L162.448 123.563L166.369 128.074L168.124 122.361L180.483 82.0632L180.467 82.0881Z" fill="black"/>
<path d="M162.383 121.596L162.908 124.075L167.866 123.025L167.341 120.546L156.929 71.3911L156.404 68.9119L151.446 69.9622L151.971 72.4414L162.383 121.596Z" fill="black"/>
<path d="M148.069 67.765C150.362 64.2392 155.075 63.2409 158.601 65.5342C162.127 67.8274 163.125 72.5401 160.832 76.0659C158.538 79.5917 153.826 80.59 150.3 78.2967C146.774 76.0035 145.776 71.2908 148.069 67.765Z" fill="black"/>
</svg>
