<svg width="70" height="58" viewBox="0 0 70 58" fill="none" xmlns="http://www.w3.org/2000/svg">
<path d="M41.0902 40.0413C43.7281 38.3406 46.8551 37.5623 49.9825 37.8279C53.1099 38.0935 56.061 39.388 58.3743 41.5093C59.1316 42.2097 58.5985 42.0191 60.3302 34.7144C61.6581 29.1226 63.8019 20.7528 64.0426 19.751C64.3188 18.5924 65.1576 19.8286 44.4418 15.1691C26.8603 11.2153 28.1221 11.4194 28.0102 12.2627C25.5312 30.6932 24.4727 37.0996 23.5811 39.6589C20.3255 48.9879 1.36528 47.313 0.0664931 36.4637C-0.827995 28.989 7.47303 25.0071 15.0063 26.7562C23.0715 28.6267 19.3231 36.7846 23.9655 8.37992C24.8727 2.82888 24.4007 -0.111745 27.3426 0.00424018C40.7881 1.22591 54.0726 3.82528 66.987 7.76157C69.8939 8.66126 69.5534 10.4745 68.9758 15.2798C68.0315 23.1115 66.1948 29.8551 62.0877 45.726C60.8623 50.4686 59.4565 54.6738 54.4209 56.479C41.5052 61.1118 30.6059 46.8149 41.0902 40.0413Z" fill="black"/>
</svg>
