<svg width="99" height="117" viewBox="0 0 99 117" fill="none" xmlns="http://www.w3.org/2000/svg">
<path d="M25.8942 91.7496C30.8746 96.391 31.1371 102.916 28.5431 107.604C25.9217 112.341 20.2702 115.347 13.8257 112.772V112.773C10.8578 111.615 7.53107 109.471 5.25687 106.618C2.94396 103.717 1.53903 99.7923 3.28678 95.5372L3.28954 95.5303L3.29299 95.5227C5.18388 91.0012 9.32005 88.5508 13.5958 87.9737C17.8447 87.4004 22.5205 88.6191 25.89 91.7454L25.8942 91.7496ZM70.3003 6.3036C79.696 11.0214 87.9686 18.8242 92.3194 28.0837C96.6428 37.2852 97.0745 47.9357 90.8568 58.1095L90.5558 58.5943L90.5523 58.5991C80.6049 74.2341 59.6761 79.4913 43.3315 71.8829C43.2979 71.9742 43.2643 72.0674 43.2293 72.1619C42.7414 73.4825 42.1495 75.0659 41.5341 76.6234C40.9219 78.1727 40.2713 79.7359 39.6655 81.0042C39.3639 81.6355 39.0537 82.2361 38.7471 82.7416C38.491 83.1635 38.068 83.8127 37.4848 84.2649C36.6306 84.927 35.6729 85.0036 35.0368 84.963C34.3873 84.9216 33.7685 84.7426 33.2566 84.5528C32.2248 84.1703 31.127 83.5536 30.1644 82.9536C28.2863 81.7828 26.3429 80.2903 25.8652 79.9484C25.7322 79.8606 25.6033 79.7912 25.2078 79.5465C24.8801 79.3437 24.4415 79.0601 24.0242 78.7137C23.6291 78.3857 23.09 77.8709 22.726 77.1558C22.3167 76.3517 22.1391 75.2933 22.5858 74.1955L22.5934 74.1783L22.6003 74.1603C25.2764 67.8617 27.9219 61.5426 30.5366 55.2031C30.9087 54.2942 31.2324 53.4923 31.5124 52.8628C31.7767 52.2684 32.0981 51.5998 32.5178 51.0606C32.988 50.4564 33.799 49.745 35.0272 49.674C36.036 49.6158 36.8623 50.0409 37.2935 50.2816L37.2997 50.2851C41.4388 52.6105 45.6726 55.0687 50.0615 56.5351C54.3932 57.9823 58.6213 58.3698 62.7583 56.7706C70.4866 53.7724 74.4096 46.7729 74.2184 39.9727C74.0301 33.2779 69.8436 26.6443 60.8096 24.2741C55.8711 23.2262 50.724 23.9098 46.2332 26.2082L46.2228 26.2131L46.2117 26.2186C45.9435 26.3526 45.4141 26.5953 44.7761 26.6916C44.148 26.7864 42.9294 26.7963 41.9436 25.8105L41.7854 25.6524L41.657 25.4673C39.0619 21.7253 36.8978 17.7023 35.2067 13.4748H35.2081C35.1321 13.2868 34.9777 12.9105 34.9029 12.5094C34.7985 11.9494 34.8213 11.2433 35.2109 10.5414C35.4849 10.0477 35.88 9.70456 35.958 9.63266C36.1204 9.48296 36.2184 9.39852 36.3744 9.24251L36.3979 9.21903C45.6236 0.236819 60.3313 1.31496 70.2976 6.30222L70.3003 6.3036Z" fill="#E3775C" stroke="black" stroke-width="5"/>
</svg>
