<svg width="139" height="47" viewBox="0 0 139 47" fill="none" xmlns="http://www.w3.org/2000/svg">
<path d="M34.5 1.50098L103.5 1.50098V1.5L137.5 1.5V11.5576C137.461 11.5653 124.822 14.0376 124.822 23.5654C124.822 33.0938 137.462 35.4354 137.5 35.4424V45.5L103.5 45.5V45.4355H34.5V45.5H1.5L1.5 35.4424C1.53862 35.4346 13.8047 32.9623 13.8047 23.4346C13.8047 13.9065 1.5377 11.5648 1.5 11.5576L1.5 1.5L34.5 1.5V1.50098Z" fill="#E3775C"/>
<path d="M34.5 1.50098H33V3.00098H34.5V1.50098ZM103.5 1.50098V3.00098H105V1.50098H103.5ZM103.5 1.5V0H102V1.5H103.5ZM137.5 1.5H139V0H137.5V1.5ZM137.5 11.5576L137.787 13.0299L139 12.7933V11.5576H137.5ZM124.822 23.5654L123.322 23.5654V23.5654H124.822ZM137.5 35.4424H139V34.1941L137.772 33.9673L137.5 35.4424ZM137.5 45.5V47H139V45.5H137.5ZM103.5 45.5H102V47H103.5V45.5ZM103.5 45.4355H105V43.9355H103.5V45.4355ZM34.5 45.4355V43.9355H33V45.4355H34.5ZM34.5 45.5V47H36V45.5H34.5ZM1.5 45.5H0V47H1.5V45.5ZM1.5 35.4424L1.20444 33.9718L0 34.2139V35.4424H1.5ZM13.8047 23.4346L15.3047 23.4346V23.4346H13.8047ZM1.5 11.5576H0V12.799L1.21954 13.0312L1.5 11.5576ZM1.5 1.5V0H0V1.5H1.5ZM34.5 1.5H36V0H34.5V1.5ZM34.5 1.50098V3.00098L103.5 3.00098V1.50098V0.000976562L34.5 0.000976562V1.50098ZM103.5 1.50098H105V1.5H103.5H102V1.50098H103.5ZM103.5 1.5V3L137.5 3V1.5V0L103.5 0V1.5ZM137.5 1.5H136V11.5576H137.5H139V1.5H137.5ZM137.5 11.5576L137.213 10.0854C137.136 10.1004 133.778 10.7584 130.402 12.6894C127.037 14.6141 123.322 18.0143 123.322 23.5654L124.822 23.5654L126.322 23.5654C126.322 19.5888 128.927 16.9889 131.891 15.2935C134.844 13.6045 137.825 13.0226 137.787 13.0299L137.5 11.5576ZM124.822 23.5654H123.322C123.322 29.1217 127.043 32.4898 130.412 34.3823C133.791 36.2799 137.151 36.9034 137.228 36.9174L137.5 35.4424L137.772 33.9673C137.811 33.9744 134.832 33.4236 131.881 31.7666C128.922 30.1044 126.322 27.5376 126.322 23.5654H124.822ZM137.5 35.4424H136V45.5H137.5H139V35.4424H137.5ZM137.5 45.5V44L103.5 44V45.5V47L137.5 47V45.5ZM103.5 45.5H105V45.4355H103.5H102V45.5H103.5ZM103.5 45.4355V43.9355H34.5V45.4355V46.9355H103.5V45.4355ZM34.5 45.4355H33V45.5H34.5H36V45.4355H34.5ZM34.5 45.5V44H1.5L1.5 45.5V47H34.5V45.5ZM1.5 45.5H3L3 35.4424H1.5H0L0 45.5H1.5ZM1.5 35.4424L1.79556 36.913C1.87436 36.8971 5.14296 36.2369 8.4284 34.3007C11.7119 32.3657 15.3047 28.9631 15.3047 23.4346L13.8047 23.4346L12.3047 23.4346C12.3047 27.4337 9.76438 30.0312 6.90524 31.7162C4.04799 33.4 1.16426 33.9799 1.20444 33.9718L1.5 35.4424ZM13.8047 23.4346H15.3047C15.3047 17.9012 11.7063 14.5304 8.41776 12.6275C5.12943 10.7246 1.85877 10.099 1.78046 10.0841L1.5 11.5576L1.21954 13.0312C1.17892 13.0234 4.06061 13.5722 6.9152 15.2241C9.76961 16.8758 12.3047 19.4399 12.3047 23.4346H13.8047ZM1.5 11.5576H3V1.5H1.5H0L0 11.5576H1.5ZM1.5 1.5V3L34.5 3V1.5V0L1.5 0V1.5ZM34.5 1.5H33V1.50098H34.5H36V1.5H34.5Z" fill="black"/>
<path d="M29.004 28.708C27.4253 28.708 26.2307 28.34 25.42 27.604C24.6093 26.868 24.204 25.8227 24.204 24.468V17.06H27.036V24.564C27.036 25.812 27.692 26.436 29.004 26.436C29.6333 26.436 30.1133 26.2653 30.444 25.924C30.7747 25.572 30.94 25.1027 30.94 24.516V17.06H33.772V24.468C33.772 25.812 33.3667 26.8573 32.556 27.604C31.756 28.34 30.572 28.708 29.004 28.708ZM34.3605 28.5L38.1525 22.5L34.6805 17.06H37.9125L39.8485 20.388H39.8805L41.8485 17.06H44.9205L41.5285 22.468L45.3205 28.5H41.9765L39.8325 24.628H39.8005L37.5765 28.5H34.3605ZM50.7228 28.708C49.1441 28.708 47.9494 28.34 47.1388 27.604C46.3281 26.868 45.9228 25.8227 45.9228 24.468V17.06H48.7548V24.564C48.7548 25.812 49.4108 26.436 50.7228 26.436C51.3521 26.436 51.8321 26.2653 52.1628 25.924C52.4934 25.572 52.6588 25.1027 52.6588 24.516V17.06H55.4908V24.468C55.4908 25.812 55.0854 26.8573 54.2748 27.604C53.4748 28.34 52.2908 28.708 50.7228 28.708ZM56.9875 28.5V17.06H59.8195V28.5H56.9875ZM66.7098 26.116H68.3738C69.2911 26.116 69.9898 25.8387 70.4698 25.284C70.9498 24.7187 71.1898 23.908 71.1898 22.852C71.1898 21.796 70.9444 20.964 70.4538 20.356C69.9631 19.7373 69.2804 19.428 68.4058 19.428H66.7098V26.116ZM63.8778 28.5V17.06H68.7578C70.3471 17.06 71.6271 17.588 72.5978 18.644C73.5684 19.7 74.0538 21.1027 74.0538 22.852C74.0538 24.9107 73.3924 26.4467 72.0698 27.46C71.1418 28.1533 69.9791 28.5 68.5818 28.5H63.8778ZM78.999 28.74C77.6763 28.74 76.615 28.3347 75.815 27.524C75.0257 26.7027 74.631 25.6573 74.631 24.388C74.631 23.1507 75.0203 22.1213 75.799 21.3C76.5883 20.4787 77.6017 20.068 78.839 20.068C79.959 20.068 80.8923 20.4093 81.639 21.092C82.6203 21.988 83.1003 23.316 83.079 25.076H77.191C77.2763 25.6413 77.4737 26.084 77.783 26.404C78.0923 26.7133 78.5083 26.868 79.031 26.868C79.703 26.868 80.1563 26.596 80.391 26.052H82.935C82.743 26.8413 82.2843 27.4867 81.559 27.988C80.8443 28.4893 79.991 28.74 78.999 28.74ZM77.207 23.524H80.439C80.3963 23.0333 80.231 22.644 79.943 22.356C79.6657 22.068 79.3137 21.924 78.887 21.924C77.959 21.924 77.399 22.4573 77.207 23.524ZM87.4401 28.756C86.2455 28.756 85.2908 28.5 84.5761 27.988C83.8721 27.4653 83.4988 26.7507 83.4561 25.844H85.9201C86.0161 26.6547 86.5175 27.06 87.4241 27.06C87.8188 27.06 88.1281 26.9907 88.3521 26.852C88.5868 26.7027 88.7041 26.5 88.7041 26.244C88.7041 26.1587 88.6935 26.084 88.6721 26.02C88.6508 25.956 88.6135 25.8973 88.5601 25.844C88.5068 25.7907 88.4535 25.7427 88.4001 25.7C88.3575 25.6573 88.2881 25.62 88.1921 25.588C88.0961 25.5453 88.0108 25.5133 87.9361 25.492C87.8721 25.4707 87.7708 25.4493 87.6321 25.428C87.5041 25.396 87.4028 25.3747 87.3281 25.364C87.2535 25.3427 87.1361 25.3213 86.9761 25.3C86.8161 25.268 86.6988 25.2467 86.6241 25.236C86.2828 25.1827 85.9948 25.1293 85.7601 25.076C85.5255 25.012 85.2641 24.916 84.9761 24.788C84.6988 24.66 84.4695 24.516 84.2881 24.356C84.1175 24.1853 83.9735 23.9613 83.8561 23.684C83.7388 23.396 83.6801 23.0653 83.6801 22.692C83.6801 21.86 84.0161 21.2147 84.6881 20.756C85.3601 20.2973 86.2028 20.068 87.2161 20.068C88.3575 20.068 89.2428 20.3027 89.8721 20.772C90.5015 21.2307 90.8481 21.8707 90.9121 22.692H88.5121C88.4268 22.052 87.9895 21.732 87.2001 21.732C86.8588 21.732 86.5815 21.796 86.3681 21.924C86.1655 22.052 86.0641 22.2387 86.0641 22.484C86.0641 22.548 86.0748 22.6067 86.0961 22.66C86.1175 22.7133 86.1495 22.7613 86.1921 22.804C86.2455 22.8467 86.2935 22.884 86.3361 22.916C86.3895 22.948 86.4588 22.98 86.5441 23.012C86.6295 23.044 86.7041 23.0707 86.7681 23.092C86.8428 23.1133 86.9388 23.1347 87.0561 23.156C87.1841 23.1773 87.2855 23.1987 87.3601 23.22C87.4455 23.2307 87.5575 23.252 87.6961 23.284C87.8348 23.3053 87.9468 23.3213 88.0321 23.332C88.3948 23.396 88.6935 23.4547 88.9281 23.508C89.1628 23.5613 89.4348 23.6573 89.7441 23.796C90.0641 23.924 90.3148 24.0787 90.4961 24.26C90.6775 24.4307 90.8321 24.6707 90.9601 24.98C91.0988 25.2787 91.1681 25.6307 91.1681 26.036C91.1681 26.9107 90.8215 27.5827 90.1281 28.052C89.4455 28.5213 88.5495 28.756 87.4401 28.756ZM92.0146 28.5V20.308H94.6226V28.5H92.0146ZM92.0146 19.172V17.06H94.6226V19.172H92.0146ZM99.682 31.332C98.5407 31.332 97.618 31.1027 96.914 30.644C96.2207 30.196 95.81 29.5453 95.682 28.692H98.21C98.3913 29.2253 98.8713 29.492 99.65 29.492C100.695 29.492 101.218 28.9693 101.218 27.924V27.108H101.154C100.599 27.7373 99.9007 28.052 99.058 28.052C98.0767 28.052 97.2393 27.7053 96.546 27.012C95.8527 26.3187 95.506 25.3693 95.506 24.164C95.506 22.9587 95.826 21.9773 96.466 21.22C97.106 20.452 97.9327 20.068 98.946 20.068C99.9593 20.068 100.727 20.4413 101.25 21.188H101.282V20.308H103.778V27.7C103.778 28.8627 103.415 29.7693 102.69 30.42C102.007 31.028 101.005 31.332 99.682 31.332ZM99.666 26.116C100.21 26.116 100.621 25.9293 100.898 25.556C101.186 25.172 101.33 24.676 101.33 24.068C101.33 23.492 101.181 23.012 100.882 22.628C100.594 22.2333 100.189 22.036 99.666 22.036C99.1753 22.036 98.7807 22.2227 98.482 22.596C98.194 22.9693 98.05 23.4653 98.05 24.084C98.05 24.7027 98.194 25.1987 98.482 25.572C98.7807 25.9347 99.1753 26.116 99.666 26.116ZM105.03 28.5V20.308H107.542V21.428H107.59C108.22 20.5213 109.062 20.068 110.118 20.068C111.004 20.068 111.697 20.356 112.198 20.932C112.71 21.4973 112.966 22.244 112.966 23.172V28.5H110.358V23.7C110.358 23.252 110.246 22.9 110.022 22.644C109.809 22.3773 109.494 22.244 109.078 22.244C108.652 22.244 108.305 22.404 108.038 22.724C107.772 23.044 107.638 23.46 107.638 23.972V28.5H105.03Z" fill="black"/>
</svg>
