<svg width="110" height="46" viewBox="0 0 110 46" fill="none" xmlns="http://www.w3.org/2000/svg">
<path d="M30.5 1.50488H78.5V1.5H108.5V11.3281C108.5 11.3281 97.3139 13.738 97.3135 23.0635C97.3135 32.3893 108.5 34.6719 108.5 34.6719V44.5H1.5V34.6719C1.5 34.6719 12.3131 32.262 12.3135 22.9365C12.3135 13.6107 1.5 11.3281 1.5 11.3281V1.5H30.5V1.50488Z" fill="#F5FE8E"/>
<path d="M30.5 1.50488H29V3.00488H30.5V1.50488ZM78.5 1.50488V3.00488H80V1.50488H78.5ZM78.5 1.5V0H77V1.5H78.5ZM108.5 1.5H110V0H108.5V1.5ZM108.5 11.3281L108.816 12.7945L110 12.5394V11.3281H108.5ZM97.3135 23.0635L95.8135 23.0634V23.0635H97.3135ZM108.5 34.6719H110V33.447L108.8 33.2022L108.5 34.6719ZM108.5 44.5V46H110V44.5H108.5ZM1.5 44.5H0V46H1.5V44.5ZM1.5 34.6719L1.1737 33.2078L0 33.4694V34.6719H1.5ZM12.3135 22.9365L13.8135 22.9366V22.9365H12.3135ZM1.5 11.3281H0V12.5446L1.1902 12.7958L1.5 11.3281ZM1.5 1.5V0H0V1.5H1.5ZM30.5 1.5H32V0H30.5V1.5ZM30.5 1.50488V3.00488H78.5V1.50488V0.00488281H30.5V1.50488ZM78.5 1.50488H80V1.5H78.5H77V1.50488H78.5ZM78.5 1.5V3H108.5V1.5V0H78.5V1.5ZM108.5 1.5H107V11.3281H108.5H110V1.5H108.5ZM108.5 11.3281C108.184 9.86177 108.183 9.8619 108.183 9.86204C108.183 9.8621 108.182 9.86225 108.181 9.86237C108.18 9.86261 108.179 9.86289 108.177 9.86321C108.175 9.86384 108.171 9.86463 108.167 9.86557C108.158 9.86746 108.147 9.86998 108.133 9.87313C108.106 9.87945 108.068 9.88834 108.02 9.89996C107.924 9.92318 107.79 9.95734 107.622 10.0036C107.286 10.096 106.814 10.2371 106.251 10.4365C105.131 10.8336 103.624 11.4707 102.105 12.4309C99.0732 14.348 95.8137 17.6881 95.8135 23.0634L97.3135 23.0635L98.8135 23.0635C98.8136 19.1134 101.147 16.5858 103.708 14.9666C104.986 14.1587 106.276 13.6104 107.253 13.2642C107.739 13.092 108.141 12.972 108.417 12.8962C108.555 12.8583 108.661 12.8316 108.729 12.815C108.763 12.8067 108.788 12.8009 108.803 12.7975C108.81 12.7958 108.815 12.7947 108.817 12.7942C108.818 12.794 108.819 12.7939 108.818 12.7939C108.818 12.7939 108.818 12.794 108.818 12.7941C108.817 12.7941 108.817 12.7942 108.817 12.7943C108.816 12.7944 108.816 12.7945 108.5 11.3281ZM97.3135 23.0635H95.8135C95.8135 28.4431 99.0777 31.7531 102.116 33.6392C103.636 34.5833 105.144 35.2038 106.265 35.5884C106.829 35.7815 107.301 35.9174 107.637 36.006C107.805 36.0504 107.94 36.083 108.036 36.1052C108.083 36.1163 108.121 36.1248 108.149 36.1308C108.163 36.1338 108.174 36.1362 108.183 36.138C108.187 36.1389 108.191 36.1396 108.193 36.1402C108.195 36.1405 108.196 36.1408 108.197 36.141C108.198 36.1411 108.199 36.1413 108.199 36.1413C108.199 36.1415 108.2 36.1416 108.5 34.6719C108.8 33.2022 108.8 33.2023 108.801 33.2024C108.801 33.2024 108.801 33.2025 108.802 33.2025C108.802 33.2026 108.802 33.2027 108.802 33.2027C108.803 33.2027 108.802 33.2026 108.801 33.2024C108.799 33.2019 108.794 33.2009 108.787 33.1993C108.772 33.1961 108.747 33.1906 108.713 33.1827C108.645 33.1669 108.539 33.1414 108.402 33.1051C108.126 33.0325 107.724 32.9172 107.239 32.7506C106.262 32.4158 104.974 31.8828 103.698 31.0905C101.143 29.5039 98.8135 27.0097 98.8135 23.0635H97.3135ZM108.5 34.6719H107V44.5H108.5H110V34.6719H108.5ZM108.5 44.5V43H1.5V44.5V46H108.5V44.5ZM1.5 44.5H3V34.6719H1.5H0V44.5H1.5ZM1.5 34.6719C1.8263 36.136 1.82693 36.1358 1.8276 36.1357C1.82788 36.1356 1.82859 36.1354 1.82915 36.1353C1.83027 36.1351 1.83155 36.1348 1.833 36.1344C1.8359 36.1338 1.83945 36.133 1.84366 36.132C1.85208 36.1301 1.8631 36.1275 1.87663 36.1243C1.9037 36.1179 1.94087 36.1089 1.98745 36.0972C2.0806 36.0738 2.21159 36.0394 2.37505 35.9929C2.70164 35.9 3.15975 35.7582 3.70586 35.558C4.79324 35.1593 6.25478 34.5199 7.72767 33.5566C10.6755 31.6285 13.8133 28.2875 13.8135 22.9366L12.3135 22.9365L10.8135 22.9365C10.8133 26.911 8.5443 29.4377 6.08553 31.0459C4.8551 31.8507 3.61334 32.3966 2.67325 32.7413C2.20562 32.9127 1.81896 33.032 1.5542 33.1074C1.42199 33.145 1.32067 33.1715 1.25542 33.1879C1.22281 33.1961 1.19925 33.2018 1.18541 33.205C1.17848 33.2067 1.17399 33.2077 1.17201 33.2082C1.17102 33.2084 1.17066 33.2085 1.17094 33.2084C1.17108 33.2084 1.17138 33.2083 1.17184 33.2082C1.17207 33.2082 1.17253 33.2081 1.17265 33.208C1.17315 33.2079 1.1737 33.2078 1.5 34.6719ZM12.3135 22.9365H13.8135C13.8135 17.5815 10.6713 14.2704 7.71738 12.373C6.24252 11.4258 4.77938 10.803 3.6912 10.4168C3.14464 10.2229 2.68614 10.0864 2.35926 9.99726C2.19566 9.95264 2.06453 9.91977 1.97127 9.8974C1.92462 9.88621 1.8874 9.87764 1.86028 9.87154C1.84672 9.86849 1.83567 9.86605 1.82723 9.86421C1.82301 9.86329 1.81944 9.86252 1.81654 9.8619C1.81508 9.86159 1.81379 9.86131 1.81267 9.86107C1.81211 9.86095 1.81139 9.8608 1.81111 9.86074C1.81043 9.8606 1.8098 9.86047 1.5 11.3281C1.1902 12.7958 1.18965 12.7957 1.18914 12.7956C1.18902 12.7955 1.18855 12.7954 1.18832 12.7954C1.18785 12.7953 1.18755 12.7952 1.1874 12.7952C1.18711 12.7951 1.18746 12.7952 1.18844 12.7954C1.1904 12.7958 1.19486 12.7968 1.20176 12.7984C1.21556 12.8015 1.23906 12.8069 1.27161 12.8147C1.33675 12.8303 1.43795 12.8556 1.57002 12.8916C1.8345 12.9637 2.22081 13.0784 2.68801 13.2441C3.62736 13.5774 4.86758 14.1081 6.0961 14.8972C8.5489 16.4727 10.8135 18.9657 10.8135 22.9365H12.3135ZM1.5 11.3281H3V1.5H1.5H0V11.3281H1.5ZM1.5 1.5V3H30.5V1.5V0H1.5V1.5ZM30.5 1.5H29V1.50488H30.5H32V1.5H30.5Z" fill="black"/>
<path d="M28.844 28.772C27.2973 28.772 26.0653 28.4413 25.148 27.78C24.2413 27.108 23.772 26.148 23.74 24.9H26.588C26.7053 25.988 27.452 26.532 28.828 26.532C29.34 26.532 29.772 26.436 30.124 26.244C30.4867 26.0413 30.668 25.7373 30.668 25.332C30.668 25.0547 30.556 24.8253 30.332 24.644C30.108 24.452 29.8787 24.3187 29.644 24.244C29.42 24.1693 28.988 24.052 28.348 23.892C28.316 23.8813 28.2947 23.876 28.284 23.876C28.2733 23.8653 28.2573 23.86 28.236 23.86C28.2147 23.8493 28.1933 23.844 28.172 23.844C27.6813 23.7267 27.276 23.6253 26.956 23.54C26.6467 23.444 26.2893 23.3053 25.884 23.124C25.4893 22.932 25.1747 22.724 24.94 22.5C24.7053 22.276 24.5027 21.9827 24.332 21.62C24.172 21.2467 24.092 20.8307 24.092 20.372C24.092 19.1987 24.508 18.3187 25.34 17.732C26.1827 17.1453 27.2813 16.852 28.636 16.852C29.9373 16.852 30.9987 17.1507 31.82 17.748C32.652 18.3453 33.0947 19.22 33.148 20.372H30.38C30.3267 19.9347 30.14 19.5987 29.82 19.364C29.5 19.1187 29.0733 18.996 28.54 18.996C28.0493 18.996 27.6493 19.0973 27.34 19.3C27.0413 19.492 26.892 19.748 26.892 20.068C26.892 20.4307 27.0733 20.6973 27.436 20.868C27.7987 21.028 28.4813 21.22 29.484 21.444C30.1133 21.5933 30.6307 21.7427 31.036 21.892C31.4413 22.0307 31.852 22.2333 32.268 22.5C32.6947 22.7667 33.0093 23.1133 33.212 23.54C33.4253 23.956 33.532 24.4573 33.532 25.044C33.532 26.2067 33.0893 27.1187 32.204 27.78C31.3293 28.4413 30.2093 28.772 28.844 28.772ZM37.622 28.596C36.79 28.596 36.1447 28.4307 35.686 28.1C35.238 27.7587 35.014 27.172 35.014 26.34V21.94H33.926V20.308H35.014V17.716H37.558V20.308H39.046V21.94H37.558V25.78C37.558 26.0787 37.6327 26.2867 37.782 26.404C37.942 26.5213 38.1713 26.58 38.47 26.58C38.5553 26.58 38.6673 26.58 38.806 26.58C38.9447 26.5693 39.0247 26.564 39.046 26.564V28.468C38.7473 28.5533 38.2727 28.596 37.622 28.596ZM39.9834 28.5V20.308H42.4794V21.588H42.5274C43.082 20.6493 43.8287 20.18 44.7674 20.18C45.0127 20.18 45.1834 20.2013 45.2794 20.244V22.484H45.2154C44.4047 22.3667 43.7647 22.5107 43.2954 22.916C42.826 23.3107 42.5914 23.9453 42.5914 24.82V28.5H39.9834ZM48.29 28.708C47.4473 28.708 46.77 28.4893 46.258 28.052C45.746 27.6147 45.49 27.0013 45.49 26.212C45.49 25.38 45.7673 24.7773 46.322 24.404C46.8767 24.02 47.6447 23.764 48.626 23.636C49.426 23.54 49.97 23.4333 50.258 23.316C50.5567 23.188 50.706 22.9907 50.706 22.724C50.706 22.1373 50.3327 21.844 49.586 21.844C48.786 21.844 48.3433 22.196 48.258 22.9H45.858C45.89 22.0893 46.2207 21.4173 46.85 20.884C47.49 20.3507 48.3967 20.084 49.57 20.084C50.7433 20.084 51.6287 20.308 52.226 20.756C52.9193 21.2573 53.266 22.036 53.266 23.092V27.22C53.266 27.8707 53.362 28.26 53.554 28.388V28.5H51.026C50.9193 28.3507 50.8287 28.0467 50.754 27.588H50.722C50.1993 28.3347 49.3887 28.708 48.29 28.708ZM49.122 27.044C49.6127 27.044 50.0073 26.9107 50.306 26.644C50.6153 26.3667 50.77 26.0093 50.77 25.572V24.596C50.514 24.724 50.066 24.868 49.426 25.028C48.9033 25.1453 48.5353 25.284 48.322 25.444C48.1087 25.604 48.002 25.8333 48.002 26.132C48.002 26.74 48.3753 27.044 49.122 27.044ZM57.622 28.596C56.79 28.596 56.1447 28.4307 55.686 28.1C55.238 27.7587 55.014 27.172 55.014 26.34V21.94H53.926V20.308H55.014V17.716H57.558V20.308H59.046V21.94H57.558V25.78C57.558 26.0787 57.6327 26.2867 57.782 26.404C57.942 26.5213 58.1713 26.58 58.47 26.58C58.5553 26.58 58.6673 26.58 58.806 26.58C58.9447 26.5693 59.0247 26.564 59.046 26.564V28.468C58.7473 28.5533 58.2727 28.596 57.622 28.596ZM63.9053 28.74C62.5826 28.74 61.5213 28.3347 60.7213 27.524C59.9319 26.7027 59.5373 25.6573 59.5373 24.388C59.5373 23.1507 59.9266 22.1213 60.7053 21.3C61.4946 20.4787 62.5079 20.068 63.7453 20.068C64.8653 20.068 65.7986 20.4093 66.5453 21.092C67.5266 21.988 68.0066 23.316 67.9853 25.076H62.0973C62.1826 25.6413 62.3799 26.084 62.6893 26.404C62.9986 26.7133 63.4146 26.868 63.9373 26.868C64.6093 26.868 65.0626 26.596 65.2973 26.052H67.8413C67.6493 26.8413 67.1906 27.4867 66.4653 27.988C65.7506 28.4893 64.8973 28.74 63.9053 28.74ZM62.1133 23.524H65.3453C65.3026 23.0333 65.1373 22.644 64.8493 22.356C64.5719 22.068 64.2199 21.924 63.7933 21.924C62.8653 21.924 62.3053 22.4573 62.1133 23.524ZM72.6664 31.332C71.525 31.332 70.6024 31.1027 69.8984 30.644C69.205 30.196 68.7944 29.5453 68.6664 28.692H71.1944C71.3757 29.2253 71.8557 29.492 72.6344 29.492C73.6797 29.492 74.2024 28.9693 74.2024 27.924V27.108H74.1384C73.5837 27.7373 72.885 28.052 72.0424 28.052C71.061 28.052 70.2237 27.7053 69.5304 27.012C68.837 26.3187 68.4904 25.3693 68.4904 24.164C68.4904 22.9587 68.8104 21.9773 69.4504 21.22C70.0904 20.452 70.917 20.068 71.9304 20.068C72.9437 20.068 73.7117 20.4413 74.2344 21.188H74.2664V20.308H76.7624V27.7C76.7624 28.8627 76.3997 29.7693 75.6744 30.42C74.9917 31.028 73.989 31.332 72.6664 31.332ZM72.6504 26.116C73.1944 26.116 73.605 25.9293 73.8824 25.556C74.1704 25.172 74.3144 24.676 74.3144 24.068C74.3144 23.492 74.165 23.012 73.8664 22.628C73.5784 22.2333 73.173 22.036 72.6504 22.036C72.1597 22.036 71.765 22.2227 71.4664 22.596C71.1784 22.9693 71.0344 23.4653 71.0344 24.084C71.0344 24.7027 71.1784 25.1987 71.4664 25.572C71.765 25.9347 72.1597 26.116 72.6504 26.116ZM78.2866 31.204V29.172H79.1826C79.8973 29.172 80.2546 28.884 80.2546 28.308C80.2546 28.0307 80.0893 27.4653 79.7586 26.612L77.3426 20.308H80.0946L81.1986 23.796L81.7106 25.684H81.7426C81.892 24.9587 82.052 24.3293 82.2226 23.796L83.2946 20.308H85.9026L83.0706 28.612C82.74 29.572 82.3453 30.244 81.8866 30.628C81.4386 31.012 80.804 31.204 79.9826 31.204H78.2866Z" fill="black"/>
</svg>
