<svg width="65" height="41" viewBox="0 0 65 41" fill="none" xmlns="http://www.w3.org/2000/svg">
<path d="M35.6152 0C27.1985 6.79344e-05 20.3498 6.71469 20.1328 15.0791C18.3393 14.265 16.3469 13.8115 14.249 13.8115C6.37965 13.8118 0.000268348 20.1912 0 28.0605C0 33.4807 3.02648 38.1943 7.48145 40.6035H60.8076C63.319 38.492 64.916 35.3279 64.916 31.79C64.9158 25.4329 59.7624 20.2796 53.4053 20.2793C52.2894 20.2793 51.2108 20.4401 50.1904 20.7363C50.7806 19.0975 51.1025 17.3304 51.1025 15.4883C51.1024 6.93493 44.1686 0.00018864 35.6152 0Z" fill="white"/>
</svg>
