<svg width="680" height="685" viewBox="0 0 680 685" fill="none" xmlns="http://www.w3.org/2000/svg">
<g clip-path="url(#clip0_1328_136)">
<path fill-rule="evenodd" clip-rule="evenodd" d="M-424.68 14.0375C-394.649 -71.3242 -309.441 -123.963 -220.467 -106.685C-138.019 -90.674 -78.0836 -19.625 -69.3819 63.3422C-41.7281 37.8058 -4.16205 25.3822 34.3183 32.8549C102.497 46.095 147.725 116.777 135.338 190.729C130.602 219.001 118.13 243.658 100.721 262.592C126.202 276.881 144.48 303.807 147.673 335.194C167.35 323.744 191.176 319.149 215.582 323.888C269.94 334.444 306.584 387.307 297.43 441.961C295.231 455.09 290.587 467.127 284.05 477.694C284.47 477.771 284.891 477.848 285.311 477.93C328.052 486.23 361.21 517.542 374.437 556.79C397.296 532.63 431.375 520.418 466.585 527.255C516.714 536.99 552.167 582.043 552.309 632.261C567.108 624.633 584.612 621.771 602.527 625.25C645.141 633.526 673.941 674.537 666.854 716.85C659.766 759.163 619.475 786.755 576.861 778.48C543.748 772.049 518.976 745.853 512.902 714.638C490.828 731.887 461.799 739.777 431.958 733.982C425.613 732.75 419.504 730.949 413.671 728.647C413.521 729.763 413.354 730.88 413.167 731.998C404.167 785.727 355.621 821.272 304.735 811.39C263.858 803.452 233.907 768.613 228.372 727.363C186.428 751.404 129.392 760.632 69.5165 749.004C19.8965 739.368 -23.2477 717.045 -54.501 687.88C-53.8066 699.88 -54.4287 712.161 -56.4991 724.522C-70.382 807.403 -144.091 862.464 -221.133 847.502C-298.174 832.541 -349.375 753.224 -335.492 670.343C-334.862 666.579 -334.107 662.872 -333.234 659.226C-365.271 691.342 -410.891 707.362 -457.795 698.253C-536.121 683.043 -588.361 603.524 -574.479 520.643C-571.141 500.716 -564.284 482.41 -554.705 466.307C-619.343 441.826 -659.671 368.884 -646.931 292.822C-642.558 266.714 -632.443 243.303 -618.276 223.868C-632.852 194.142 -638.645 158.971 -632.638 123.106C-618.523 38.8436 -544.627 -17.3357 -467.585 -2.3746C-452.13 0.626671 -437.724 6.26427 -424.68 14.0375ZM-108.792 204.419C-120.742 219.823 -134.899 233.114 -150.673 243.864C-130.653 273.077 -118.008 315.516 -115.143 364.258C-103.386 368.905 -92.452 375.134 -82.5196 382.673C-73.2578 352.247 -50.8113 328.972 -22.8292 318.215C-21.2383 311.626 -18.9497 305.34 -16.0528 299.446C-61.9174 288.254 -96.5528 250.763 -108.792 204.419ZM-370.811 227.936C-374.254 234.364 -378.099 240.475 -382.3 246.238C-381.176 248.529 -380.106 250.852 -379.088 253.205C-370.541 248.752 -361.55 245.184 -352.235 242.596C-358.74 238.102 -364.941 233.202 -370.811 227.936Z" fill="white"/>
</g>
<defs>
<clipPath id="clip0_1328_136">
<rect width="680" height="685" fill="white"/>
</clipPath>
</defs>
</svg>
