<svg width="669" height="685" viewBox="0 0 669 685" fill="none" xmlns="http://www.w3.org/2000/svg">
<g clip-path="url(#clip0_1328_136)">
<path d="M718.949 26.4627C794.259 12.9808 866.271 55.9503 888.391 124.296C901.719 114.888 917.256 108.187 934.361 105.125C997.381 93.843 1057.83 136.207 1069.38 199.747C1074.29 226.794 1069.55 253.318 1057.62 275.734C1069.21 290.39 1077.49 308.043 1081.06 327.731C1091.49 385.087 1058.5 440.089 1005.63 458.551C1013.46 470.693 1019.07 484.498 1021.8 499.524C1033.16 562.023 990.425 621.986 926.355 633.456C887.984 640.325 850.664 628.243 824.458 604.022C825.172 606.772 825.791 609.568 826.307 612.407C837.663 674.905 795.781 734.716 732.761 745.998C688.622 753.9 645.822 735.899 620.235 702.931C597.435 727.432 562.698 746.345 521.772 753.672C463.001 764.193 407.782 747.904 378.31 715.536C364.069 727.098 346.682 735.357 327.192 738.847C298.383 744.004 270.209 737.805 247.501 723.513C239.518 751.927 215.449 774.899 183.758 780.572C139.91 788.422 98.0774 760.186 90.3223 717.506C82.5674 674.826 111.827 633.863 155.675 626.014C170.19 623.415 184.485 624.772 197.396 629.298C199.367 579.703 236.488 536.175 288.669 526.834C305.914 523.747 322.932 524.73 338.687 529.081C348.843 503.032 369.588 481.437 396.69 470.216C388.021 460.395 381.224 448.72 377 435.537C360.188 383.071 390.476 326.591 444.65 309.388C476.877 299.153 510.297 305.124 535.625 322.685C536.437 279.561 564.851 241.071 606.61 227.574C602.136 217.524 598.786 206.81 596.739 195.548C582.432 116.809 637.148 41.107 718.949 26.4627ZM786.833 514.261C784.529 522.749 781.703 530.826 778.392 538.404C783.005 541.584 787.387 545.095 791.498 548.91C790.839 546.333 790.265 543.716 789.782 541.06C788.156 532.108 787.64 523.208 788.137 514.495C787.702 514.419 787.267 514.341 786.833 514.261ZM850.924 270.726C844.507 276.961 837.495 282.663 829.954 287.738C841.176 289.6 851.947 293.041 861.969 297.854C862.802 296.079 863.678 294.326 864.598 292.598C859.304 285.902 854.702 278.581 850.924 270.726Z" fill="white"/>
</g>
<defs>
<clipPath id="clip0_1328_136">
<rect width="669" height="685" fill="white"/>
</clipPath>
</defs>
</svg>
