<svg width="178" height="86" viewBox="0 0 178 86" fill="none" xmlns="http://www.w3.org/2000/svg">
<path d="M99 0C114.475 0 127.299 11.3388 129.622 26.1611C131.261 25.4154 133.082 25 135 25C142.18 25 148 30.8203 148 38C148 39.8935 147.594 41.6919 146.866 43.3145C148.214 43.1074 149.594 43 151 43C165.912 43 178 55.0883 178 70C178 75.9894 176.048 81.522 172.748 86H15.5322C6.20541 80.1692 0 69.8102 0 58C0 39.7746 14.7746 25 33 25C33.1271 25 33.2541 25.0025 33.3809 25.0039C35.2471 15.3172 43.7685 8 54 8C61.1727 8 67.5036 11.5974 71.292 17.085C76.3907 6.95221 86.8831 0 99 0Z" fill="white"/>
</svg>
