<svg width="181" height="98" viewBox="0 0 181 98" fill="none" xmlns="http://www.w3.org/2000/svg">
<path d="M116 0C102.476 0.000106618 90.6484 7.25754 84.1943 18.0889C79.7478 15.49 74.5737 14 69.0518 14C53.6277 14.0002 40.9208 25.6206 39.2012 40.584C37.1926 40.2021 35.1197 40 33 40C14.7747 40.0002 0 54.7747 0 73C1.76068e-05 82.6527 4.14547 91.3367 10.752 97.3711H171.231C177.212 92.3277 181 84.8487 181 76.5C181 61.3122 168.464 49.0001 153 49C152.322 49 151.65 49.0248 150.984 49.0713C152.29 45.2879 153 41.2269 153 37C153 16.5655 136.434 0.000131952 116 0Z" fill="white"/>
</svg>
