<svg width="166" height="46" viewBox="0 0 166 46" fill="none" xmlns="http://www.w3.org/2000/svg">
<path d="M164.5 1.5V11.3281C164.5 11.3281 154.433 13.738 154.433 23.0635C154.433 32.3893 164.5 34.6719 164.5 34.6719V44.5H1.5L1.5 34.6719C1.5 34.6719 11.9401 32.262 11.9404 22.9365C11.9404 13.6107 1.5 11.3281 1.5 11.3281L1.5 1.5L164.5 1.5Z" fill="#79C475"/>
<path d="M164.5 1.5H166V0H164.5V1.5ZM164.5 11.3281L164.849 12.7869L166 12.5114V11.3281H164.5ZM154.433 23.0635L152.933 23.0634V23.0635H154.433ZM164.5 34.6719H166V33.4739L164.832 33.209L164.5 34.6719ZM164.5 44.5V46H166V44.5H164.5ZM1.5 44.5H0V46H1.5V44.5ZM1.5 34.6719L1.16262 33.2103L0 33.4787V34.6719H1.5ZM11.9404 22.9365L13.4404 22.9366V22.9365H11.9404ZM1.5 11.3281H0V12.5356L1.17963 12.7935L1.5 11.3281ZM1.5 1.5V0H0V1.5H1.5ZM164.5 1.5H163V11.3281H164.5H166V1.5H164.5ZM164.5 11.3281C164.151 9.86934 164.15 9.8695 164.149 9.86967C164.149 9.86974 164.148 9.86992 164.148 9.87005C164.147 9.87033 164.145 9.87064 164.144 9.871C164.141 9.8717 164.137 9.87256 164.133 9.87358C164.125 9.87562 164.114 9.87829 164.101 9.8816C164.075 9.88823 164.04 9.89745 163.996 9.90942C163.907 9.93334 163.783 9.96827 163.629 10.0154C163.321 10.1095 162.89 10.2527 162.377 10.4547C161.356 10.8569 159.985 11.5013 158.604 12.4714C155.828 14.4216 152.933 17.7624 152.933 23.0634L154.433 23.0635L155.933 23.0635C155.933 19.0391 158.071 16.5123 160.329 14.9261C161.465 14.128 162.611 13.5871 163.477 13.2461C163.907 13.0764 164.263 12.9585 164.506 12.8844C164.627 12.8474 164.719 12.8214 164.778 12.8055C164.808 12.7976 164.829 12.7921 164.841 12.789C164.847 12.7875 164.851 12.7866 164.852 12.7862C164.853 12.7861 164.853 12.786 164.852 12.7861C164.852 12.7862 164.852 12.7863 164.851 12.7864C164.851 12.7865 164.85 12.7866 164.85 12.7866C164.85 12.7868 164.849 12.7869 164.5 11.3281ZM154.433 23.0635H152.933C152.933 28.3682 155.832 31.6798 158.615 33.5995C159.997 34.5536 161.37 35.1815 162.393 35.5712C162.906 35.7669 163.337 35.9048 163.646 35.9951C163.8 36.0403 163.924 36.0737 164.013 36.0965C164.057 36.108 164.093 36.1168 164.119 36.1231C164.132 36.1262 164.143 36.1288 164.151 36.1307C164.155 36.1317 164.159 36.1325 164.161 36.1332C164.163 36.1335 164.164 36.1338 164.165 36.1341C164.166 36.1342 164.167 36.1344 164.167 36.1344C164.168 36.1346 164.168 36.1347 164.5 34.6719C164.832 33.209 164.832 33.2091 164.833 33.2093C164.833 33.2093 164.833 33.2094 164.834 33.2095C164.834 33.2096 164.835 33.2097 164.835 33.2097C164.835 33.2099 164.835 33.2098 164.835 33.2097C164.833 33.2093 164.829 33.2085 164.823 33.207C164.812 33.2041 164.791 33.199 164.761 33.1914C164.702 33.1762 164.61 33.1515 164.489 33.1161C164.247 33.0451 163.891 32.9319 163.461 32.7679C162.596 32.4381 161.452 31.9125 160.318 31.1302C158.067 29.5772 155.933 27.0846 155.933 23.0635H154.433ZM164.5 34.6719H163V44.5H164.5H166V34.6719H164.5ZM164.5 44.5V43H1.5V44.5V46H164.5V44.5ZM1.5 44.5H3L3 34.6719H1.5H0L0 44.5H1.5ZM1.5 34.6719C1.83738 36.1334 1.83802 36.1333 1.83871 36.1331C1.83899 36.1331 1.83972 36.1329 1.84028 36.1328C1.84141 36.1325 1.8427 36.1322 1.84415 36.1319C1.84705 36.1312 1.85059 36.1304 1.85476 36.1294C1.86309 36.1274 1.87394 36.1248 1.88722 36.1215C1.91378 36.115 1.9501 36.1059 1.99552 36.0941C2.08634 36.0704 2.21375 36.0357 2.37253 35.989C2.68978 35.8955 3.13421 35.753 3.66373 35.5519C4.71812 35.1516 6.13445 34.5098 7.56137 33.5431C10.4239 31.6039 13.4402 28.2627 13.4404 22.9366L11.9404 22.9365L10.4404 22.9365C10.4403 26.9358 8.23641 29.4622 5.87879 31.0594C4.69565 31.8609 3.50193 32.4044 2.5988 32.7473C2.14956 32.9179 1.77836 33.0365 1.52466 33.1113C1.39798 33.1486 1.30108 33.1748 1.23897 33.191C1.20793 33.1991 1.18562 33.2047 1.17268 33.2078C1.1662 33.2094 1.16208 33.2104 1.16037 33.2108C1.15952 33.211 1.15928 33.2111 1.15965 33.211C1.15984 33.211 1.16017 33.2109 1.16067 33.2108C1.16092 33.2107 1.16141 33.2106 1.16153 33.2106C1.16206 33.2104 1.16262 33.2103 1.5 34.6719ZM11.9404 22.9365H13.4404C13.4404 17.6065 10.4199 14.2948 7.55104 12.3862C6.12205 11.4356 4.704 10.8104 3.64873 10.4226C3.11872 10.2278 2.67387 10.0906 2.35631 10.0009C2.19736 9.95599 2.06981 9.92287 1.97886 9.90028C1.93338 9.88898 1.897 9.8803 1.87038 9.8741C1.85707 9.871 1.84619 9.86851 1.83783 9.86662C1.83365 9.86568 1.8301 9.86489 1.82719 9.86424C1.82573 9.86392 1.82443 9.86363 1.8233 9.86338C1.82273 9.86325 1.822 9.86309 1.82171 9.86303C1.82102 9.86288 1.82037 9.86274 1.5 11.3281C1.17963 12.7935 1.17906 12.7934 1.17852 12.7933C1.1784 12.7932 1.17791 12.7931 1.17766 12.7931C1.17715 12.793 1.17681 12.7929 1.17662 12.7929C1.17623 12.7928 1.17646 12.7928 1.1773 12.793C1.17898 12.7934 1.18308 12.7943 1.18952 12.7958C1.20241 12.7988 1.22466 12.8041 1.25564 12.8118C1.31763 12.8272 1.41438 12.8522 1.54092 12.8879C1.79431 12.9595 2.16512 13.0735 2.6139 13.2384C3.51622 13.57 4.70827 14.0983 5.88939 14.884C8.2407 16.4482 10.4404 18.9407 10.4404 22.9365H11.9404ZM1.5 11.3281H3V1.5H1.5H0L0 11.3281H1.5ZM1.5 1.5V3L164.5 3V1.5V0L1.5 0V1.5Z" fill="black"/>
<path d="M24.284 28.5V17.06H29.436C30.78 17.06 31.82 17.412 32.556 18.116C33.324 18.8307 33.708 19.7693 33.708 20.932C33.708 22.0413 33.3507 22.9427 32.636 23.636C31.932 24.3293 30.9987 24.676 29.836 24.676H27.164V28.5H24.284ZM27.164 22.436H29.26C29.7613 22.436 30.1507 22.2973 30.428 22.02C30.716 21.7427 30.86 21.3747 30.86 20.916C30.86 20.4573 30.716 20.1 30.428 19.844C30.1507 19.5773 29.7613 19.444 29.26 19.444H27.164V22.436ZM34.5615 28.5V20.308H37.0575V21.588H37.1055C37.6602 20.6493 38.4068 20.18 39.3455 20.18C39.5908 20.18 39.7615 20.2013 39.8575 20.244V22.484H39.7935C38.9828 22.3667 38.3428 22.5107 37.8735 22.916C37.4042 23.3107 37.1695 23.9453 37.1695 24.82V28.5H34.5615ZM43.2503 26.228C43.5489 26.676 43.9756 26.9 44.5303 26.9C45.0849 26.9 45.5116 26.676 45.8103 26.228C46.1196 25.78 46.2743 25.1773 46.2743 24.42C46.2743 23.6627 46.1196 23.06 45.8103 22.612C45.5116 22.1533 45.0849 21.924 44.5303 21.924C43.9756 21.924 43.5489 22.148 43.2503 22.596C42.9516 23.044 42.8023 23.652 42.8023 24.42C42.8023 25.1773 42.9516 25.78 43.2503 26.228ZM47.6983 27.524C46.8983 28.3453 45.8476 28.756 44.5463 28.756C43.2449 28.756 42.1889 28.3453 41.3783 27.524C40.5676 26.7027 40.1623 25.668 40.1623 24.42C40.1623 23.172 40.5676 22.1373 41.3783 21.316C42.1889 20.4947 43.2449 20.084 44.5463 20.084C45.8476 20.084 46.8983 20.4947 47.6983 21.316C48.5089 22.1373 48.9143 23.172 48.9143 24.42C48.9143 25.668 48.5089 26.7027 47.6983 27.524ZM54.8039 28.756C53.6732 28.756 52.8465 28.324 52.3239 27.46H52.2919V28.5H49.7959V17.06H52.4039V21.236H52.4519C53.0172 20.4573 53.7959 20.068 54.7879 20.068C55.8332 20.068 56.6759 20.4787 57.3159 21.3C57.9665 22.1213 58.2919 23.156 58.2919 24.404C58.2919 25.7587 57.9772 26.8253 57.3479 27.604C56.7185 28.372 55.8705 28.756 54.8039 28.756ZM54.0679 26.692C54.5692 26.692 54.9585 26.4893 55.2359 26.084C55.5132 25.6787 55.6519 25.1133 55.6519 24.388C55.6519 23.6733 55.5132 23.108 55.2359 22.692C54.9585 22.2653 54.5585 22.052 54.0359 22.052C53.4812 22.052 53.0545 22.2707 52.7559 22.708C52.4679 23.1347 52.3239 23.7 52.3239 24.404C52.3239 25.0867 52.4785 25.6413 52.7879 26.068C53.1079 26.484 53.5345 26.692 54.0679 26.692ZM59.1869 28.5V17.06H61.8269V28.5H59.1869ZM67.0928 28.74C65.7701 28.74 64.7088 28.3347 63.9088 27.524C63.1194 26.7027 62.7248 25.6573 62.7248 24.388C62.7248 23.1507 63.1141 22.1213 63.8928 21.3C64.6821 20.4787 65.6954 20.068 66.9328 20.068C68.0528 20.068 68.9861 20.4093 69.7328 21.092C70.7141 21.988 71.1941 23.316 71.1728 25.076H65.2848C65.3701 25.6413 65.5674 26.084 65.8768 26.404C66.1861 26.7133 66.6021 26.868 67.1248 26.868C67.7968 26.868 68.2501 26.596 68.4848 26.052H71.0288C70.8368 26.8413 70.3781 27.4867 69.6528 27.988C68.9381 28.4893 68.0848 28.74 67.0928 28.74ZM65.3008 23.524H68.5328C68.4901 23.0333 68.3248 22.644 68.0368 22.356C67.7594 22.068 67.4074 21.924 66.9808 21.924C66.0528 21.924 65.4928 22.4573 65.3008 23.524ZM72.0459 28.5V20.308H74.5419V21.476H74.5899C75.1552 20.5373 75.9819 20.068 77.0699 20.068C78.1472 20.068 78.9152 20.548 79.3739 21.508H79.4059C80.0245 20.548 80.8832 20.068 81.9819 20.068C82.8885 20.068 83.5765 20.3507 84.0459 20.916C84.5259 21.4707 84.7659 22.2227 84.7659 23.172V28.5H82.1579V23.636C82.1579 22.708 81.7739 22.244 81.0059 22.244C80.6005 22.244 80.2805 22.3987 80.0459 22.708C79.8219 23.0067 79.7099 23.4067 79.7099 23.908V28.5H77.1019V23.636C77.1019 22.708 76.7179 22.244 75.9499 22.244C75.5445 22.244 75.2245 22.3987 74.9899 22.708C74.7659 23.0067 74.6539 23.4067 74.6539 23.908V28.5H72.0459ZM93.1565 28.772C91.6098 28.772 90.3778 28.4413 89.4605 27.78C88.5538 27.108 88.0845 26.148 88.0525 24.9H90.9005C91.0178 25.988 91.7645 26.532 93.1405 26.532C93.6525 26.532 94.0845 26.436 94.4365 26.244C94.7992 26.0413 94.9805 25.7373 94.9805 25.332C94.9805 25.0547 94.8685 24.8253 94.6445 24.644C94.4205 24.452 94.1912 24.3187 93.9565 24.244C93.7325 24.1693 93.3005 24.052 92.6605 23.892C92.6285 23.8813 92.6072 23.876 92.5965 23.876C92.5858 23.8653 92.5698 23.86 92.5485 23.86C92.5272 23.8493 92.5058 23.844 92.4845 23.844C91.9938 23.7267 91.5885 23.6253 91.2685 23.54C90.9592 23.444 90.6018 23.3053 90.1965 23.124C89.8018 22.932 89.4872 22.724 89.2525 22.5C89.0178 22.276 88.8152 21.9827 88.6445 21.62C88.4845 21.2467 88.4045 20.8307 88.4045 20.372C88.4045 19.1987 88.8205 18.3187 89.6525 17.732C90.4952 17.1453 91.5938 16.852 92.9485 16.852C94.2498 16.852 95.3112 17.1507 96.1325 17.748C96.9645 18.3453 97.4072 19.22 97.4605 20.372H94.6925C94.6392 19.9347 94.4525 19.5987 94.1325 19.364C93.8125 19.1187 93.3858 18.996 92.8525 18.996C92.3618 18.996 91.9618 19.0973 91.6525 19.3C91.3538 19.492 91.2045 19.748 91.2045 20.068C91.2045 20.4307 91.3858 20.6973 91.7485 20.868C92.1112 21.028 92.7938 21.22 93.7965 21.444C94.4258 21.5933 94.9432 21.7427 95.3485 21.892C95.7538 22.0307 96.1645 22.2333 96.5805 22.5C97.0072 22.7667 97.3218 23.1133 97.5245 23.54C97.7378 23.956 97.8445 24.4573 97.8445 25.044C97.8445 26.2067 97.4018 27.1187 96.5165 27.78C95.6418 28.4413 94.5218 28.772 93.1565 28.772ZM101.641 26.228C101.94 26.676 102.366 26.9 102.921 26.9C103.476 26.9 103.902 26.676 104.201 26.228C104.51 25.78 104.665 25.1773 104.665 24.42C104.665 23.6627 104.51 23.06 104.201 22.612C103.902 22.1533 103.476 21.924 102.921 21.924C102.366 21.924 101.94 22.148 101.641 22.596C101.342 23.044 101.193 23.652 101.193 24.42C101.193 25.1773 101.342 25.78 101.641 26.228ZM106.089 27.524C105.289 28.3453 104.238 28.756 102.937 28.756C101.636 28.756 100.58 28.3453 99.7689 27.524C98.9582 26.7027 98.5529 25.668 98.5529 24.42C98.5529 23.172 98.9582 22.1373 99.7689 21.316C100.58 20.4947 101.636 20.084 102.937 20.084C104.238 20.084 105.289 20.4947 106.089 21.316C106.9 22.1373 107.305 23.172 107.305 24.42C107.305 25.668 106.9 26.7027 106.089 27.524ZM108.203 28.5V17.06H110.843V28.5H108.203ZM114.268 28.5L111.436 20.308H114.124L115.244 24.004L115.692 25.652H115.724C115.863 25.0973 116.012 24.548 116.172 24.004L117.308 20.308H119.916L117.084 28.5H114.268ZM120.499 28.5V20.308H123.107V28.5H120.499ZM120.499 19.172V17.06H123.107V19.172H120.499ZM124.358 28.5V20.308H126.87V21.428H126.918C127.548 20.5213 128.39 20.068 129.446 20.068C130.332 20.068 131.025 20.356 131.526 20.932C132.038 21.4973 132.294 22.244 132.294 23.172V28.5H129.686V23.7C129.686 23.252 129.574 22.9 129.35 22.644C129.137 22.3773 128.822 22.244 128.406 22.244C127.98 22.244 127.633 22.404 127.366 22.724C127.1 23.044 126.966 23.46 126.966 23.972V28.5H124.358ZM137.291 31.332C136.15 31.332 135.227 31.1027 134.523 30.644C133.83 30.196 133.419 29.5453 133.291 28.692H135.819C136.001 29.2253 136.481 29.492 137.259 29.492C138.305 29.492 138.827 28.9693 138.827 27.924V27.108H138.763C138.209 27.7373 137.51 28.052 136.667 28.052C135.686 28.052 134.849 27.7053 134.155 27.012C133.462 26.3187 133.115 25.3693 133.115 24.164C133.115 22.9587 133.435 21.9773 134.075 21.22C134.715 20.452 135.542 20.068 136.555 20.068C137.569 20.068 138.337 20.4413 138.859 21.188H138.891V20.308H141.387V27.7C141.387 28.8627 141.025 29.7693 140.299 30.42C139.617 31.028 138.614 31.332 137.291 31.332ZM137.275 26.116C137.819 26.116 138.23 25.9293 138.507 25.556C138.795 25.172 138.939 24.676 138.939 24.068C138.939 23.492 138.79 23.012 138.491 22.628C138.203 22.2333 137.798 22.036 137.275 22.036C136.785 22.036 136.39 22.2227 136.091 22.596C135.803 22.9693 135.659 23.4653 135.659 24.084C135.659 24.7027 135.803 25.1987 136.091 25.572C136.39 25.9347 136.785 26.116 137.275 26.116Z" fill="black"/>
</svg>
