<svg width="669" height="685" viewBox="0 0 669 685" fill="none" xmlns="http://www.w3.org/2000/svg">
<g clip-path="url(#clip0_1328_136)">
<path d="M-435.68 14.0375C-405.649 -71.3242 -320.441 -123.963 -231.467 -106.685C-149.019 -90.674 -89.0835 -19.625 -80.3819 63.3422C-52.7281 37.8058 -15.162 25.3822 23.3183 32.8549C91.4972 46.095 136.725 116.777 124.338 190.729C119.602 219.001 107.13 243.658 89.7207 262.592C115.202 276.881 133.48 303.807 136.673 335.194C156.35 323.744 180.176 319.149 204.582 323.888C258.94 334.444 295.584 387.307 286.43 441.961C284.231 455.09 279.587 467.127 273.05 477.694C273.47 477.771 273.891 477.848 274.311 477.93C317.052 486.23 350.21 517.542 363.437 556.79C386.296 532.63 420.375 520.418 455.585 527.255C505.714 536.99 541.167 582.043 541.309 632.261C556.108 624.633 573.612 621.771 591.527 625.25C634.141 633.526 662.941 674.537 655.853 716.85C648.766 759.163 608.475 786.755 565.861 778.48C532.748 772.049 507.976 745.853 501.902 714.638C479.828 731.887 450.799 739.777 420.958 733.982C414.613 732.75 408.504 730.949 402.671 728.647C402.521 729.763 402.354 730.88 402.167 731.998C393.167 785.727 344.621 821.272 293.735 811.39C252.858 803.452 222.907 768.613 217.372 727.363C175.428 751.404 118.392 760.632 58.5166 749.004C8.89652 739.368 -34.2477 717.045 -65.501 687.88C-64.8065 699.88 -65.4287 712.162 -67.4991 724.522C-81.3819 807.403 -155.091 862.463 -232.133 847.502C-309.174 832.541 -360.375 753.224 -346.492 670.343C-345.862 666.579 -345.107 662.872 -344.234 659.226C-376.271 691.342 -421.891 707.362 -468.795 698.253C-547.121 683.043 -599.361 603.524 -585.479 520.643C-582.141 500.716 -575.284 482.41 -565.705 466.307C-630.343 441.826 -670.671 368.884 -657.931 292.822C-653.558 266.714 -643.443 243.303 -629.276 223.868C-643.852 194.142 -649.645 158.971 -643.638 123.106C-629.523 38.8435 -555.627 -17.3357 -478.585 -2.37459C-463.13 0.626674 -448.724 6.26428 -435.68 14.0375ZM-119.792 204.419C-131.742 219.823 -145.899 233.114 -161.673 243.864C-141.653 273.077 -129.008 315.516 -126.143 364.258C-114.386 368.905 -103.452 375.134 -93.5196 382.673C-84.2578 352.247 -61.8113 328.972 -33.8291 318.215C-32.2383 311.626 -29.9497 305.34 -27.0528 299.446C-72.9173 288.254 -107.553 250.763 -119.792 204.419ZM-381.811 227.936C-385.254 234.364 -389.099 240.475 -393.3 246.238C-392.176 248.529 -391.106 250.852 -390.088 253.205C-381.541 248.752 -372.55 245.184 -363.235 242.596C-369.74 238.102 -375.941 233.202 -381.811 227.936Z" fill="white"/>
</g>
<defs>
<clipPath id="clip0_1328_136">
<rect width="669" height="685" fill="white"/>
</clipPath>
</defs>
</svg>
