<svg width="45" height="42" viewBox="0 0 45 42" fill="none" xmlns="http://www.w3.org/2000/svg">
<rect width="45" height="42" rx="10" fill="white"/>
<g clip-path="url(#clip0_1306_675)">
<rect x="8.9375" y="11.2344" width="27.3438" height="18.375" fill="#336BEC"/>
<path d="M12.9384 10.0033L34.7261 10.0029C36.7084 10.0026 37.9605 10.8233 37.9768 12.8989L37.9775 26.8855C37.9779 27.4627 38.0268 28.1217 37.935 28.6908C37.6351 30.5504 36.1281 30.9426 34.5436 30.9422L33.0879 30.9409L11.4016 30.9414C11.0496 30.942 10.6941 30.9544 10.3446 30.9059C8.90039 30.7058 8.01359 29.4387 8.00761 28.0493L8.00776 13.9428C8.00798 12.7953 7.86789 11.683 8.76899 10.7954C9.57206 10.0043 10.3298 10.002 11.3863 10.002L12.9384 10.0033ZM27.0657 20.3296L27.0357 20.3472C26.8205 20.4742 26.6256 20.6385 26.4273 20.7895L25.4921 21.5028C24.2842 22.4321 22.8738 22.918 21.4076 22.1074C21.0734 21.9227 20.775 21.6671 20.4685 21.4409L18.9609 20.3296C18.5113 20.7666 18.1123 21.2549 17.6853 21.7136L11.2934 28.6278C11.1298 28.8048 10.9449 28.9705 10.7912 29.1552C11.4584 29.1723 12.1301 29.1551 12.7977 29.155L16.8574 29.1552H35.2547C35.0709 28.9445 34.873 28.7476 34.6831 28.5424L28.1904 21.5598C28.0359 21.3909 27.1251 20.3604 27.0657 20.3296ZM9.87461 13.1817C9.85393 14.8134 9.87455 16.4483 9.87454 18.0805L9.87461 27.4435C10.3676 26.963 10.8189 26.4232 11.2835 25.9151L13.5452 23.4776C14.8328 22.0835 16.1819 20.5145 17.5159 19.199C17.2784 18.976 17.0112 18.7847 16.7564 18.5815L10.4848 13.6364C10.302 13.4944 10.0872 13.2731 9.87461 13.1817ZM36.1196 13.1817C35.795 13.37 35.5023 13.6378 35.2107 13.8725L28.5023 19.199C28.7248 19.456 28.9678 19.6932 29.1973 19.9438L30.7043 21.5818C31.3154 22.2331 31.9123 22.8988 32.5309 23.543C33.739 24.8294 34.8851 26.183 36.1196 27.4435L36.1195 15.7201C36.1194 15.5009 36.1495 13.2377 36.1196 13.1817Z" fill="white"/>
<path d="M11.1519 11.8521C12.0237 11.8334 12.8999 11.8519 13.7721 11.8519L34.8498 11.8521C34.2798 12.3353 33.6576 12.763 33.0662 13.2208L29.9041 15.6997L24.8512 19.6033C24.2992 20.0381 23.7967 20.5113 23.0593 20.5811C22.2159 20.661 21.7532 20.0916 21.1391 19.6085L14.3366 14.3342C13.2757 13.5081 12.1881 12.7079 11.1519 11.8521Z" fill="#336BEC"/>
</g>
<defs>
<clipPath id="clip0_1306_675">
<rect width="30" height="21" fill="white" transform="translate(8 10)"/>
</clipPath>
</defs>
</svg>
