<svg width="104" height="103" viewBox="0 0 104 103" fill="none" xmlns="http://www.w3.org/2000/svg">
<path d="M52 2C79.6325 2 102 24.1801 102 51.5C102 78.8199 79.6325 101 52 101C24.3675 101 2 78.8199 2 51.5C2 24.1801 24.3675 2 52 2Z" fill="white" stroke="white" stroke-width="4"/>
<path fill-rule="evenodd" clip-rule="evenodd" d="M51.9418 32.5781C41.4697 32.5781 32.9756 41.2251 32.9756 51.8857C32.9756 60.4142 38.4444 67.6398 45.8913 70.2457C46.8221 70.3642 47.1712 69.7719 47.1712 69.2981C47.1712 68.8243 47.1712 67.6398 47.1712 65.9815C41.9351 67.166 40.7715 63.3755 40.7715 63.3755C39.957 61.125 38.6771 60.5327 38.6771 60.5327C36.9318 59.3482 38.7935 59.3482 38.7935 59.3482C40.6552 59.4666 41.7024 61.3619 41.7024 61.3619C43.4478 64.3231 46.124 63.494 47.1712 63.0202C47.2875 61.7172 47.8693 60.8881 48.3348 60.4142C44.1459 59.9404 39.7243 58.2821 39.7243 50.8197C39.7243 48.6875 40.4225 47.0292 41.7024 45.6078C41.586 45.2524 40.8879 43.2388 41.9351 40.6328C41.9351 40.6328 43.5641 40.159 47.1712 42.6465C48.6838 42.1727 50.3128 42.0543 51.9418 42.0543C53.5708 42.0543 55.1998 42.2912 56.7125 42.6465C60.3195 40.159 61.9485 40.6328 61.9485 40.6328C62.9958 43.2388 62.2976 45.2524 62.1813 45.7263C63.3448 47.0292 64.1593 48.806 64.1593 50.9381C64.1593 58.4006 59.7378 59.9404 55.5489 60.4142C56.247 61.0065 56.8288 62.191 56.8288 63.9678C56.8288 66.5737 56.8288 68.5874 56.8288 69.2981C56.8288 69.7719 57.1779 70.3642 58.1088 70.2457C65.672 67.6398 71.0244 60.4142 71.0244 51.8857C70.908 41.2251 62.414 32.5781 51.9418 32.5781Z" fill="#336BEC"/>
</svg>
