<svg width="103" height="103" viewBox="0 0 103 103" fill="none" xmlns="http://www.w3.org/2000/svg">
<path d="M51.5 2C78.8381 2 101 24.1619 101 51.5C101 78.8381 78.8381 101 51.5 101C24.1619 101 2 78.8381 2 51.5C2 24.1619 24.1619 2 51.5 2Z" fill="white" stroke="white" stroke-width="4"/>
<path d="M43.216 39C44.4283 39 45.5473 39.0919 46.5731 39.3675C47.5989 39.5512 48.4381 39.9187 49.1841 40.3781C49.9302 40.8375 50.4897 41.4806 50.8627 42.3074C51.2357 43.1343 51.4222 44.1449 51.4222 45.2474C51.4222 46.5336 51.1424 47.636 50.4897 48.4629C49.9302 49.2898 48.9976 50.0247 47.8786 50.576C49.4639 51.0353 50.6762 51.8622 51.4222 52.9647C52.1682 54.0671 52.6345 55.4452 52.6345 57.0071C52.6345 58.2933 52.3547 59.3958 51.8885 60.3145C51.4222 61.2332 50.6762 62.0601 49.8369 62.6113C48.9976 63.1625 47.9719 63.6219 46.8528 63.8975C45.7338 64.1731 44.6148 64.3569 43.4958 64.3569H31V39H43.216ZM42.47 49.2898C43.4958 49.2898 44.335 49.0141 44.9878 48.5548C45.6406 48.0954 45.9203 47.2686 45.9203 46.258C45.9203 45.7067 45.8271 45.1555 45.6406 44.788C45.4541 44.4205 45.1743 44.1449 44.8013 43.8693C44.4283 43.6855 44.0553 43.5018 43.589 43.4099C43.1228 43.318 42.6565 43.318 42.097 43.318H36.6884V49.2898H42.47ZM42.7498 60.1307C43.3093 60.1307 43.8688 60.0389 44.335 59.947C44.8013 59.8551 45.2676 59.6714 45.6406 59.3958C46.0136 59.1201 46.2933 58.8445 46.5731 58.3852C46.7596 57.9258 46.9461 57.3746 46.9461 56.7314C46.9461 55.4452 46.5731 54.5265 45.8271 53.8834C45.0811 53.3322 44.0553 53.0565 42.843 53.0565H36.6884V60.1307H42.7498ZM60.7474 60.0389C61.4934 60.7739 62.6124 61.1413 64.1045 61.1413C65.1302 61.1413 66.0628 60.8657 66.8088 60.4064C67.5548 59.8551 68.0211 59.3039 68.2076 58.7527H72.7769C72.0309 60.9576 70.9119 62.5194 69.4198 63.53C67.9278 64.4488 66.156 65 64.0112 65C62.5192 65 61.2137 64.7244 60.0014 64.265C58.7891 63.8057 57.8566 63.1625 57.0173 62.2438C56.1781 61.417 55.5253 60.4064 55.1523 59.212C54.686 58.0177 54.4995 56.7314 54.4995 55.2615C54.4995 53.8834 54.686 52.5972 55.1523 51.4028C55.6185 50.2085 56.2713 49.1979 57.1106 48.2792C57.9498 47.4523 58.9756 46.7173 60.0946 46.258C61.3069 45.7986 62.5192 45.523 64.0112 45.523C65.5965 45.523 66.9953 45.7986 68.2076 46.4417C69.4198 47.0848 70.3524 47.8198 71.0984 48.9223C71.8444 49.9329 72.4039 51.1272 72.7769 52.4134C72.9634 53.6996 73.0567 54.9859 72.9634 56.4558H59.4419C59.4419 57.9258 60.0014 59.3039 60.7474 60.0389ZM66.6223 50.3922C65.9695 49.7491 64.9437 49.3816 63.7315 49.3816C62.8922 49.3816 62.2394 49.5654 61.6799 49.841C61.1204 50.1166 60.7474 50.4841 60.3744 50.8516C60.0014 51.2191 59.8149 51.6784 59.7216 52.1378C59.6284 52.5972 59.5351 52.9647 59.5351 53.3322H67.9278C67.7413 51.9541 67.275 51.0353 66.6223 50.3922ZM58.4161 40.7456H68.8603V43.2261H58.4161V40.7456Z" fill="#336BEC"/>
</svg>
