<svg width="103" height="103" viewBox="0 0 103 103" fill="none" xmlns="http://www.w3.org/2000/svg">
<path d="M51.5 2C78.8381 2 101 24.1619 101 51.5C101 78.8381 78.8381 101 51.5 101C24.1619 101 2 78.8381 2 51.5C2 24.1619 24.1619 2 51.5 2Z" fill="#336BEC" stroke="white" stroke-width="4"/>
<path fill-rule="evenodd" clip-rule="evenodd" d="M53.4918 37.4502C57.0087 33.9333 62.8243 33.9333 66.3413 37.4502C69.8583 40.9672 69.8583 46.7828 66.3413 50.2998L59.9228 56.7182C56.8679 60.0261 51.8968 60.2 48.472 57.9168C47.2753 57.119 46.9519 55.5022 47.7497 54.3055C48.5475 53.1088 50.1644 52.7854 51.361 53.5832C52.9191 54.6219 54.9988 54.3923 56.1146 53.1649C56.1424 53.1344 56.1709 53.1045 56.2001 53.0752L62.6584 46.6169C64.1414 45.1339 64.1414 42.6161 62.6584 41.1331C61.2285 39.7032 58.8366 39.652 57.3378 40.9795L57.0833 41.3612C56.2855 42.5579 54.6687 42.8813 53.472 42.0835C52.2753 41.2857 51.9519 39.6688 52.7497 38.4721L53.1664 37.8471C53.2615 37.7044 53.3705 37.5715 53.4918 37.4502Z" fill="white"/>
<path fill-rule="evenodd" clip-rule="evenodd" d="M43.9981 47.1561C47.0653 44.3678 51.7855 43.6358 55.4374 46.3747C56.588 47.2377 56.8212 48.87 55.9582 50.0205C55.0953 51.1711 53.463 51.4043 52.3124 50.5414C50.9806 49.5425 49.0648 49.6294 47.5569 50.9605L41.162 57.5617L41.133 57.5911C39.65 59.0742 39.65 61.5919 41.133 63.075C42.616 64.558 45.1338 64.558 46.6168 63.075L48.4582 64.9164L46.6168 63.075L47.2418 62.45C48.2588 61.433 49.9076 61.433 50.9246 62.45C51.9416 63.467 51.9416 65.1158 50.9246 66.1328L50.2996 66.7578C46.7826 70.2748 40.9671 70.2748 37.4501 66.7578C33.9384 63.2461 33.9331 57.4428 37.4343 53.9242L43.8795 47.2711C43.9178 47.2315 43.9574 47.1932 43.9981 47.1561Z" fill="white"/>
</svg>
