<svg width="45" height="42" viewBox="0 0 45 42" fill="none" xmlns="http://www.w3.org/2000/svg">
<rect width="45" height="42" rx="10" fill="white"/>
<rect width="28" height="28" transform="translate(9 7)" fill="white"/>
<path d="M22.4167 15.1667C21.8334 16.1389 20.55 18.2 20.0834 18.6667V19.8333L21.8334 23.3333L23.5834 24.5L26.5 23.9167L28.25 24.5C29.0278 25.4722 30.5834 27.5333 30.5834 28C30.5834 28.4667 30.1945 30.1389 30 30.9167L26.5 32.0833L23 30.3333C20.2 29.4 17.1667 23.7222 16 21L14.8334 14.5833L16 11.6667L18.3334 10.5H20.6667C21.1334 10.5 21.6389 11.6667 21.8334 12.25L22.4167 15.1667Z" fill="#336BEC"/>
<path d="M19.2293 9.5563C20.4315 9.3918 21.4419 10.1274 21.9202 11.0835L23.0968 13.436C23.7495 14.7415 23.3745 16.2734 22.3851 17.237C21.8006 17.8058 21.2132 18.4556 20.8725 19.029C20.85 19.0699 20.8429 19.1176 20.8527 19.1632C21.1677 20.87 22.3245 22.5565 23.3564 23.7657C23.4083 23.8234 23.476 23.8645 23.5511 23.8839C23.6262 23.9033 23.7054 23.9001 23.7787 23.8748L26.0975 23.1503C26.7221 22.9551 27.3928 22.9651 28.0113 23.1788C28.6298 23.3925 29.1636 23.7988 29.5345 24.338L31.2127 26.7786C31.6677 27.4413 31.8981 28.3396 31.5493 29.2035C31.2378 29.9753 30.6352 31.0883 29.5391 31.8285C28.4016 32.5962 26.8436 32.8879 24.8048 32.189C22.5269 31.4074 20.375 29.4474 18.5905 26.9408C16.7956 24.4185 15.318 21.2679 14.422 17.9825C13.5756 14.8804 14.0866 12.792 15.2895 11.4475C16.4497 10.1501 18.1122 9.70972 19.2293 9.5563ZM20.6159 11.7356C20.3493 11.203 19.8739 10.94 19.4276 11.0012C18.4354 11.1377 17.1929 11.507 16.3768 12.4199C15.6033 13.285 15.0678 14.8086 15.8285 17.5987C16.683 20.73 18.09 23.7225 19.7788 26.095C21.478 28.4825 23.4089 30.1684 25.2779 30.8095C26.9433 31.3805 28.0137 31.0982 28.7231 30.6199C29.4732 30.113 29.9346 29.3074 30.1971 28.6575C30.3173 28.36 30.2654 27.975 30.0111 27.6052L28.3328 25.1645C28.1386 24.8821 27.859 24.6693 27.5351 24.5572C27.2111 24.4452 26.8598 24.4399 26.5326 24.5421L24.2139 25.2666C23.5209 25.483 22.7404 25.29 22.2475 24.7125C21.1735 23.4542 19.805 21.5245 19.4183 19.4275C19.3444 19.0344 19.4157 18.6279 19.619 18.2835C20.0611 17.5404 20.7611 16.7826 21.3672 16.1923C21.9593 15.616 22.1273 14.7585 21.7925 14.0882L20.6159 11.7362V11.7356Z" fill="#336BEC"/>
</svg>
