<svg width="103" height="103" viewBox="0 0 103 103" fill="none" xmlns="http://www.w3.org/2000/svg">
<path d="M51.5 2C78.8381 2 101 24.1619 101 51.5C101 78.8381 78.8381 101 51.5 101C24.1619 101 2 78.8381 2 51.5C2 24.1619 24.1619 2 51.5 2Z" fill="white" stroke="white" stroke-width="4"/>
<path d="M51.5 36.0633C56.4942 36.0633 57.1752 36.0633 59.2182 36.0633C61.0343 36.0633 61.9423 36.5173 62.6233 36.7443C63.5313 37.1983 64.2123 37.4253 64.8934 38.1063C65.5744 38.7874 66.0284 39.4684 66.2554 40.3764C66.4824 41.0574 66.7094 41.9654 66.9364 43.7815C66.9364 45.8245 66.9364 46.2785 66.9364 51.4997C66.9364 56.7208 66.9364 57.1748 66.9364 59.2179C66.9364 61.0339 66.4824 61.9419 66.2554 62.6229C65.8014 63.531 65.5744 64.212 64.8934 64.893C64.2123 65.574 63.5313 66.028 62.6233 66.255C61.9423 66.482 61.0343 66.709 59.2182 66.936C57.1752 66.936 56.7212 66.936 51.5 66.936C46.2789 66.936 45.8249 66.936 43.7818 66.936C41.9658 66.936 41.0578 66.482 40.3768 66.255C39.4687 65.801 38.7877 65.574 38.1067 64.893C37.4257 64.212 36.9717 63.531 36.7447 62.6229C36.5177 61.9419 36.2907 61.0339 36.0637 59.2179C36.0637 57.1748 36.0637 56.7208 36.0637 51.4997C36.0637 46.2785 36.0637 45.8245 36.0637 43.7815C36.0637 41.9654 36.5177 41.0574 36.7447 40.3764C37.1987 39.4684 37.4257 38.7874 38.1067 38.1063C38.7877 37.4253 39.4687 36.9713 40.3768 36.7443C41.0578 36.5173 41.9658 36.2903 43.7818 36.0633C45.8249 36.0633 46.5059 36.0633 51.5 36.0633ZM51.5 32.6582C46.2789 32.6582 45.8249 32.6582 43.7818 32.6582C41.7388 32.6582 40.3768 33.1122 39.2417 33.5662C38.1067 34.0202 36.9717 34.7013 35.8366 35.8363C34.7016 36.9713 34.2476 37.8793 33.5666 39.2414C33.1126 40.3764 32.8856 41.7384 32.6586 43.7815C32.6586 45.8245 32.6586 46.5055 32.6586 51.4997C32.6586 56.7208 32.6586 57.1748 32.6586 59.2179C32.6586 61.2609 33.1126 62.6229 33.5666 63.758C34.0206 64.893 34.7016 66.028 35.8366 67.1631C36.9717 68.2981 37.8797 68.7521 39.2417 69.4331C40.3768 69.8871 41.7388 70.1141 43.7818 70.3411C45.8249 70.3411 46.5059 70.3411 51.5 70.3411C56.4942 70.3411 57.1752 70.3411 59.2182 70.3411C61.2613 70.3411 62.6233 69.8871 63.7583 69.4331C64.8934 68.9791 66.0284 68.2981 67.1634 67.1631C68.2984 66.028 68.7525 65.12 69.4335 63.758C69.8875 62.6229 70.1145 61.2609 70.3415 59.2179C70.3415 57.1748 70.3415 56.4938 70.3415 51.4997C70.3415 46.5055 70.3415 45.8245 70.3415 43.7815C70.3415 41.7384 69.8875 40.3764 69.4335 39.2414C68.9795 38.1063 68.2984 36.9713 67.1634 35.8363C66.0284 34.7013 65.1204 34.2472 63.7583 33.5662C62.6233 33.1122 61.2613 32.8852 59.2182 32.6582C57.1752 32.6582 56.7212 32.6582 51.5 32.6582Z" fill="#336BEC"/>
<path d="M51.5 41.7384C46.0519 41.7384 41.7388 46.0515 41.7388 51.4997C41.7388 56.9478 46.0519 61.2609 51.5 61.2609C56.9482 61.2609 61.2613 56.9478 61.2613 51.4997C61.2613 46.0515 56.9482 41.7384 51.5 41.7384ZM51.5 57.8558C48.095 57.8558 45.1439 55.1318 45.1439 51.4997C45.1439 48.0946 47.8679 45.1435 51.5 45.1435C54.9051 45.1435 57.8562 47.8676 57.8562 51.4997C57.8562 54.9048 54.9051 57.8558 51.5 57.8558Z" fill="#336BEC"/>
<path d="M61.4883 43.7815C62.742 43.7815 63.7583 42.7651 63.7583 41.5114C63.7583 40.2577 62.742 39.2414 61.4883 39.2414C60.2346 39.2414 59.2182 40.2577 59.2182 41.5114C59.2182 42.7651 60.2346 43.7815 61.4883 43.7815Z" fill="#336BEC"/>
</svg>
