<svg width="103" height="103" viewBox="0 0 103 103" fill="none" xmlns="http://www.w3.org/2000/svg">
<path d="M51.5 2C78.8381 2 101 24.1619 101 51.5C101 78.8381 78.8381 101 51.5 101C24.1619 101 2 78.8381 2 51.5C2 24.1619 24.1619 2 51.5 2Z" fill="#336BEC" stroke="white" stroke-width="4"/>
<path d="M45.6666 70.9986C49.1644 70.9986 51.9999 68.1631 51.9999 64.6653V58.332H45.6666C42.1688 58.332 39.3333 61.1675 39.3333 64.6653C39.3333 68.1631 42.1688 70.9986 45.6666 70.9986Z" fill="white"/>
<path d="M39.3333 52.0013C39.3333 48.5035 42.1688 45.668 45.6666 45.668H51.9999V58.3346H45.6666C42.1688 58.3346 39.3333 55.4991 39.3333 52.0013Z" fill="white"/>
<path d="M39.3334 39.3333C39.3334 35.8355 42.1689 33 45.6667 33H52V45.6666H45.6667C42.1689 45.6666 39.3334 42.8311 39.3334 39.3333Z" fill="white"/>
<path d="M52 33H58.3333C61.8311 33 64.6666 35.8355 64.6666 39.3333C64.6666 42.8311 61.8311 45.6666 58.3333 45.6666H52V33Z" fill="white"/>
<path d="M64.6666 52.0013C64.6666 55.4991 61.8311 58.3346 58.3333 58.3346C54.8355 58.3346 52 55.4991 52 52.0013C52 48.5035 54.8355 45.668 58.3333 45.668C61.8311 45.668 64.6666 48.5035 64.6666 52.0013Z" fill="white"/>
</svg>
