<svg width="861" height="838" viewBox="0 0 861 838" fill="none" xmlns="http://www.w3.org/2000/svg">
<ellipse cx="296.084" cy="294.712" rx="191.524" ry="190.948" transform="rotate(-47.5976 296.084 294.712)" fill="white"/>
<path d="M142.378 155.91C221.011 69.8032 354.559 63.745 440.666 142.378C517.325 212.383 530.538 325.914 477.028 410.744L494.83 427.001C498.385 430.248 498.635 435.763 495.388 439.318L494.316 440.493L730.397 656.083C733.952 659.33 734.203 664.844 730.956 668.4L706.147 695.566C702.9 699.122 697.386 699.372 693.83 696.126L457.749 480.535L455.807 482.661C452.561 486.217 447.046 486.467 443.49 483.22L425.533 466.822C345.939 527.059 232.271 523.93 155.91 454.198C69.8036 375.565 63.7449 242.017 142.378 155.91ZM165.204 176.755C98.0836 250.255 103.255 364.251 176.756 431.372C250.256 498.492 364.252 493.321 431.372 419.821C498.493 346.32 493.321 232.325 419.821 165.204C346.32 98.0837 232.325 103.255 165.204 176.755Z" fill="black"/>
<path d="M142.378 155.91L140.768 154.44V154.44L142.378 155.91ZM440.666 142.378L442.135 140.768V140.768L440.666 142.378ZM477.028 410.744L475.185 409.581L474.212 411.124L475.558 412.354L477.028 410.744ZM494.316 440.493L492.706 439.023L491.236 440.633L492.846 442.102L494.316 440.493ZM730.397 656.083L731.867 654.474L731.867 654.474L730.397 656.083ZM730.956 668.4L732.566 669.869L732.566 669.869L730.956 668.4ZM693.83 696.126L692.361 697.735L692.361 697.735L693.83 696.126ZM457.749 480.535L459.219 478.926L457.609 477.456L456.139 479.065L457.749 480.535ZM443.49 483.22L442.02 484.829L443.49 483.22ZM425.533 466.822L427.003 465.212L425.664 463.99L424.218 465.084L425.533 466.822ZM155.91 454.198L154.441 455.808V455.808L155.91 454.198ZM165.204 176.755L163.595 175.285V175.285L165.204 176.755ZM176.756 431.372L175.286 432.981V432.981L176.756 431.372ZM431.372 419.821L432.982 421.29V421.29L431.372 419.821ZM419.821 165.204L421.29 163.595V163.595L419.821 165.204ZM142.378 155.91L143.987 157.379C221.809 72.1618 353.978 66.1662 439.196 143.987L440.666 142.378L442.135 140.768C355.14 61.3238 220.213 67.4445 140.768 154.44L142.378 155.91ZM440.666 142.378L439.196 143.987C515.062 213.269 528.141 325.628 475.185 409.581L477.028 410.744L478.871 411.907C532.934 326.2 519.588 211.498 442.135 140.768L440.666 142.378ZM477.028 410.744L475.558 412.354L493.36 428.61L494.83 427.001L496.299 425.391L478.498 409.135L477.028 410.744ZM494.83 427.001L493.36 428.61C496.026 431.045 496.214 435.182 493.779 437.848L495.388 439.318L496.998 440.788C501.057 436.343 500.744 429.45 496.299 425.391L494.83 427.001ZM495.388 439.318L493.779 437.848L492.706 439.023L494.316 440.493L495.925 441.963L496.998 440.788L495.388 439.318ZM494.316 440.493L492.846 442.102L728.927 657.693L730.397 656.083L731.867 654.474L495.785 438.883L494.316 440.493ZM730.397 656.083L728.927 657.693C731.594 660.128 731.781 664.263 729.346 666.93L730.956 668.4L732.566 669.869C736.624 665.425 736.311 658.533 731.867 654.474L730.397 656.083ZM730.956 668.4L729.347 666.93L704.538 694.097L706.147 695.566L707.757 697.036L732.566 669.869L730.956 668.4ZM706.147 695.566L704.538 694.097C702.102 696.763 697.967 696.951 695.3 694.516L693.83 696.126L692.361 697.735C696.805 701.794 703.698 701.48 707.757 697.036L706.147 695.566ZM693.83 696.126L695.3 694.516L459.219 478.926L457.749 480.535L456.279 482.145L692.361 697.735L693.83 696.126ZM457.749 480.535L456.139 479.065L454.198 481.191L455.807 482.661L457.417 484.131L459.358 482.005L457.749 480.535ZM455.807 482.661L454.198 481.191C451.763 483.858 447.626 484.046 444.96 481.61L443.49 483.22L442.02 484.829C446.465 488.888 453.358 488.575 457.417 484.131L455.807 482.661ZM443.49 483.22L444.96 481.61L427.003 465.212L425.533 466.822L424.064 468.431L442.02 484.829L443.49 483.22ZM425.533 466.822L424.218 465.084C345.447 524.698 232.95 521.599 157.38 452.589L155.91 454.198L154.441 455.808C231.591 526.261 346.432 529.419 426.849 468.56L425.533 466.822ZM155.91 454.198L157.38 452.589C72.1622 374.767 66.1661 242.597 143.987 157.379L142.378 155.91L140.768 154.44C61.3237 241.436 67.4449 376.363 154.441 455.808L155.91 454.198ZM165.204 176.755L163.595 175.285C95.6624 249.674 100.897 365.049 175.286 432.981L176.756 431.372L178.225 429.762C105.614 363.453 100.505 250.836 166.814 178.225L165.204 176.755ZM176.756 431.372L175.286 432.981C249.675 500.914 365.05 495.679 432.982 421.29L431.372 419.821L429.763 418.351C363.454 490.962 250.837 496.071 178.225 429.762L176.756 431.372ZM431.372 419.821L432.982 421.29C500.914 346.901 495.679 231.527 421.29 163.595L419.821 165.204L418.351 166.814C490.962 233.123 496.072 345.739 429.763 418.351L431.372 419.821ZM419.821 165.204L421.29 163.595C346.901 95.6625 231.527 100.896 163.595 175.285L165.204 176.755L166.814 178.225C233.123 105.614 345.74 100.505 418.351 166.814L419.821 165.204Z" fill="black"/>
</svg>
