<svg width="78" height="38" viewBox="0 0 78 38" fill="none" xmlns="http://www.w3.org/2000/svg">
<path d="M34.2666 0C27.554 0 21.9907 4.91876 20.9834 11.3486C20.2727 11.0252 19.4831 10.8438 18.6514 10.8438C15.5372 10.8438 13.0128 13.3683 13.0127 16.4824C13.0127 17.3041 13.1899 18.0841 13.5059 18.7881C12.9209 18.6981 12.3211 18.6514 11.7109 18.6514C5.24314 18.6515 0.000228882 23.8945 0 30.3623C3.05176e-05 32.9606 0.847527 35.3601 2.2793 37.3027H70.4707C74.5161 34.7734 77.208 30.2798 77.208 25.1572C77.2078 17.2523 70.7994 10.8442 62.8945 10.8438C62.8391 10.8438 62.7829 10.8451 62.7275 10.8457C61.9181 6.64414 58.2229 3.46992 53.7852 3.46973C50.6736 3.46976 47.9283 5.03141 46.2852 7.41211C44.0739 3.01641 39.5226 0.000255663 34.2666 0Z" fill="white"/>
</svg>
