<svg width="507" height="276" viewBox="0 0 507 276" fill="none" xmlns="http://www.w3.org/2000/svg">
<path d="M343.778 88.7887C327.322 112.442 269.158 117.869 265.071 121.024C275.447 127.981 284.274 137.44 289.706 147.612C308.151 142.513 349.917 132.731 367.455 117.342C384.994 101.953 392.595 64.2737 395.934 43.9158C387.617 49.756 363.937 51.0191 359.081 43.1027C359.122 49.9693 356.942 69.8657 343.778 88.7887Z" fill="black" stroke="black" stroke-width="3" stroke-linejoin="round"/>
<path d="M61.119 203.76L66.2602 199.531C67.376 194.019 63.0128 186.926 63.0128 186.926C56.7554 187.435 49.1909 187.818 46.1614 187.467C44.1456 186.761 35.8945 182.952 34.0371 182.497C32.8675 182.21 30.7312 182.967 31.8023 185.111C32.5047 186.517 37.0298 190.738 42.3878 192.648C37.468 191.794 30.8582 189.278 27.4478 188.693C24.7424 188.23 23.2156 190.416 24.8464 192.075C26.9071 194.171 40.8627 196.125 40.8627 196.125C40.8627 196.125 26.6389 195.74 24.6815 195.78C21.3115 195.849 21.3256 198.887 23.3431 199.519C24.6498 199.929 35.1914 200.725 41.6677 201.205C38.7661 202.08 32.7905 202.55 29.0908 202.705C24.8207 202.884 25.644 206.467 28.3863 207.319C30.3836 207.94 43.0029 207.348 49.4869 207.399C50.226 209.848 49.1071 211.769 46.725 212.917C43.3975 214.52 43.7744 218.242 45.1196 218.228C46.4647 218.215 52.3414 216.542 54.7993 213.857L54.8981 213.733C57.4649 210.513 60.7597 206.381 61.119 203.76Z" fill="white" stroke="black" stroke-width="3" stroke-linejoin="round"/>
<path d="M66.5167 240.633L71.8269 242.383C73.8115 247.645 79.0268 255.591 79.0268 255.591C68.2368 260.045 56.2944 260.399 53.3603 261.231C51.4837 262.251 40.739 265.503 38.0088 263.867C36.9758 263.248 36.2496 261.753 37.2601 259.774C37.9749 258.374 43.8207 259.679 48.8033 256.936C44.0839 258.567 34.9259 257.617 32.7902 257.256C30.0837 256.799 29.6672 253.394 31.554 252.615C35.2209 251.102 37.6957 252.324 46.2472 251.701C43.8227 251.878 32.4402 251.474 30.6999 250.547C27.7248 248.962 27.4782 246.031 29.3683 245.084C32.2086 243.661 41.7257 246.496 46.2557 246.546C41.2528 245.957 34.1756 243.366 32.616 242.028C31.0565 240.69 30.7838 238.486 32.6493 237.716C35.9413 236.357 46.4497 241.263 52.8417 240.173C53.1786 237.637 51.7664 235.92 49.2311 235.169C45.6897 234.12 45.4131 231.492 46.7953 230.184C48.1775 228.875 54.0893 230.226 58.3207 232.152C62.5522 234.079 65.011 236.985 66.5167 240.633Z" fill="white" stroke="black" stroke-width="3" stroke-linejoin="round"/>
<path d="M69.7198 238.286C99.9208 228.693 147.911 211.213 162.764 200.116C167.458 193.019 167.421 186.107 167.421 186.107C167.421 186.107 174.248 185.217 175.572 178.992C177.18 171.433 173.491 166.177 172.787 160.78C204.071 140.382 263.67 120.679 263.67 120.679C289.727 115.44 311.053 142.538 315.285 176.129C282.929 187.61 211.636 212.79 183.027 224.378C155.435 242.805 103.085 261.273 80.7611 258.96C69.9277 258.419 61.606 240.863 69.7198 238.286Z" fill="#336BEC" stroke="black" stroke-width="3" stroke-linejoin="round"/>
<path d="M67.5894 207.898C87.4202 197.745 105.165 187.297 133.883 182.459C139.415 181.527 153.004 181.566 153.004 181.566L151.138 152.855C138.465 151.502 121.864 154.882 105.814 159.497C88.5615 164.458 68.2231 178.609 62.6203 184.581C56.7426 188.338 58.7061 206.953 67.5894 207.898Z" fill="#336BEC" stroke="black" stroke-width="3" stroke-linejoin="round"/>
<path d="M116.256 193.665C110.649 189.129 108.09 186.788 107.012 177.263C103.9 149.763 137.685 149.376 150.795 155.874C159.509 160.193 162.752 168.574 162.752 168.574C162.752 168.574 164.197 166.342 166.367 165.102L169.696 161.904L173.059 166.1C173.643 166.669 174.233 167.392 174.82 168.297C176.139 171.418 178.947 185.318 167.84 186.335C168.127 190.821 165.439 197.634 162.595 200.207C157.29 204.095 146.405 209.381 139.623 212.476C122.69 213.108 117.152 196.896 116.256 193.665Z" fill="white"/>
<path d="M162.752 168.574C162.752 168.574 159.509 160.193 150.795 155.874C137.685 149.376 103.9 149.763 107.012 177.263C108.09 186.788 110.649 189.129 116.256 193.665C117.152 196.896 122.69 213.108 139.623 212.476C146.405 209.381 157.29 204.095 162.595 200.207C165.439 197.634 168.127 190.821 167.84 186.335C178.947 185.318 176.139 171.418 174.82 168.297M162.752 168.574C162.752 168.574 168.869 159.13 174.82 168.297M162.752 168.574L169.696 161.904L174.82 168.297" stroke="black" stroke-width="3" stroke-linejoin="round"/>
<path d="M129.713 184.846C130.241 186.123 131.469 189.435 132.158 192.474C132.847 195.514 135.139 196.359 136.199 196.401" stroke="black" stroke-width="2.5" stroke-linecap="round"/>
<path d="M167.273 169.87C159.06 172.23 127.607 182.8 111.344 161.417C104.446 165.1 104.283 178.714 109.949 188.562C106.25 187.165 99.0114 180.567 96.6124 173.011C92.2828 159.375 96.721 150.234 100.091 146.645C101.751 114.346 142.575 104.121 154.891 113.36C167.494 74.7216 192.279 74.5454 198.789 86.067C216.683 44.5447 257.076 22.4451 263.194 51.6707C269.798 83.2176 216.107 139.226 194.621 155.264C188.253 160.018 175.487 167.509 167.273 169.87Z" fill="black" stroke="black" stroke-width="3" stroke-linejoin="round"/>
<path d="M387.229 106.439C367.86 123.664 311.048 138.856 304.894 141.388C312.536 151.236 316.707 174.843 316.707 174.843C316.707 174.843 393.928 152.702 411.393 137.454C420.708 129.322 436.156 94.8693 448.089 72.562C439.809 75.3712 426.32 74.5368 419.279 70.2676C414.812 67.5594 414.956 63.4821 414.938 60.026C412.036 64.2953 401.954 93.3439 387.229 106.439Z" fill="black" stroke="black" stroke-width="3" stroke-linejoin="round"/>
<path d="M304.951 128.411C316.983 121.221 330.234 123.384 336.832 124.252C336.832 124.252 371.089 121.285 387.478 101.953" stroke="white" stroke-width="3" stroke-linecap="round"/>
<ellipse cx="122.979" cy="189.379" rx="1.95861" ry="3.13378" transform="rotate(-19.7902 122.979 189.379)" fill="black"/>
<ellipse cx="138.141" cy="182.067" rx="1.95861" ry="3.13378" transform="rotate(-19.7902 138.141 182.067)" fill="black"/>
<path d="M364.491 29.037C356.866 32.6964 356.271 40.6774 360.956 44.8238C364.975 48.381 372.785 49.504 379.384 49.0261C388.521 48.3644 395.237 46.1232 406.674 40.3833C418.933 34.2312 429.342 24.1435 422.247 17.7943C414.821 11.1489 389.173 25.0563 387.277 25.3036C386.138 25.4521 372.115 25.3777 364.491 29.037Z" fill="white" stroke="black" stroke-width="3" stroke-linejoin="round"/>
<path d="M420.03 50.9794C412.533 54.4007 412.626 61.041 416.483 66.0548C419.932 70.5394 425.526 73.5661 433.749 73.7048C444.697 73.8896 454.084 70.7532 466.571 64.0841C479.804 57.017 489.733 45.6344 482.192 38.9025C474.298 31.8566 447.968 47.0007 445.952 47.2637C444.741 47.4215 426.813 47.8843 420.03 50.9794Z" fill="white" stroke="black" stroke-width="3" stroke-linejoin="round"/>
<path d="M140.91 204.073C143.449 204.175 148.509 199.089 148.786 194.727" stroke="black" stroke-width="2.5" stroke-linecap="round"/>
<path d="M116.769 178.919C115.439 180.553 114.743 181.706 114.644 184.181" stroke="black" stroke-width="2.5" stroke-linecap="round"/>
</svg>
