<svg width="244" height="244" viewBox="0 0 244 244" fill="none" xmlns="http://www.w3.org/2000/svg">
<path d="M121.344 53.9521C138.234 40.2621 163.61 49.99 167.021 71.4623L180.324 155.205C183.735 176.677 162.622 193.79 142.321 186.008L63.1466 155.657C42.8454 147.875 38.5823 121.034 55.4725 107.344L121.344 53.9521Z" fill="#F5FE8E" stroke="black" stroke-width="11.2973"/>
<path d="M113.663 127.241L122.475 100.514L131.653 76.5731L141.267 80.2589L132.09 104.2L120.778 129.969L113.663 127.241ZM109.245 149.698C107.514 149.035 106.253 147.817 105.463 146.043C104.672 144.27 104.609 142.518 105.272 140.787C106.034 138.8 107.213 137.451 108.809 136.739C110.405 136.028 112.196 136.053 114.184 136.815C115.85 137.453 117.079 138.66 117.869 140.433C118.724 142.231 118.819 143.995 118.156 145.726C117.419 147.649 116.208 148.986 114.523 149.737C112.863 150.424 111.103 150.411 109.245 149.698Z" fill="black"/>
</svg>
