<svg width="189" height="107" viewBox="0 0 189 107" fill="none" xmlns="http://www.w3.org/2000/svg">
<path d="M105.118 0C121.549 5.67653e-05 135.165 14.106 137.633 32.5459C139.373 31.6184 141.307 31.1016 143.343 31.1016C150.966 31.1016 157.146 38.3432 157.146 47.2754C157.146 49.6309 156.715 51.8682 155.942 53.8867C157.373 53.6292 158.84 53.4961 160.332 53.4961C176.165 53.4964 189 68.5355 189 87.0869C189 94.5376 186.928 101.42 183.425 106.991H16.4912C6.58881 99.737 9.80643e-05 86.8494 0 72.1572C0 49.4834 15.6877 31.102 35.0391 31.1016C35.1738 31.1016 35.309 31.1056 35.4434 31.1074C37.4249 19.0565 46.4734 9.95346 57.3369 9.95312C64.9528 9.95312 71.6757 14.4279 75.6982 21.2549C81.112 8.64915 92.2528 0.000177809 105.118 0Z" fill="white"/>
</svg>
