<svg width="87" height="120" viewBox="0 0 87 120" fill="none" xmlns="http://www.w3.org/2000/svg">
<path d="M23.1963 95.0321C28.6527 98.6662 29.9146 104.814 28.183 109.665C26.4345 114.565 21.562 118.275 15.0515 116.823L15.0512 116.822C12.008 116.172 8.4732 114.631 5.85097 112.261C3.18591 109.851 1.28262 106.378 2.2647 102.128L2.26677 102.115L2.26734 102.114C3.35221 97.5536 6.87893 94.5814 10.8713 93.3604C14.8433 92.1456 19.498 92.5806 23.1923 95.0293L23.1963 95.0321ZM53.3089 3.58514C63.2547 6.69132 72.5808 12.992 78.3005 21.3186C84.0642 29.7093 86.152 40.1688 81.4525 51.2329L81.4505 51.2374C74.1968 68.2047 54.3312 76.6758 37.0763 71.5559C37.0261 71.8171 36.9735 72.0943 36.9171 72.3853C36.6497 73.7664 36.3223 75.4206 35.9684 77.0517C35.6159 78.6759 35.2299 80.3106 34.8423 81.6436C34.6491 82.3077 34.4453 82.9327 34.2333 83.4594C34.0504 83.9135 33.767 84.5456 33.3329 85.013C32.7119 85.6814 31.9162 85.8855 31.3468 85.942C30.7667 85.9996 30.1805 85.9308 29.6688 85.8311C28.6387 85.6304 27.4923 85.2167 26.4552 84.7846C24.4284 83.9401 22.3091 82.8006 21.7538 82.5268C21.5925 82.4536 21.4277 82.396 21.0107 82.2239C20.661 82.0796 20.2079 81.8806 19.7702 81.6241C19.3526 81.3793 18.804 80.9998 18.3872 80.4326C17.9231 79.8008 17.6284 78.9309 17.8538 77.9408L17.857 77.9263L17.8608 77.911C19.4822 71.2602 21.0705 64.5943 22.6247 57.913L22.9329 56.5713C23.0286 56.1609 23.1182 55.7887 23.204 55.4604C23.3682 54.833 23.5647 54.1732 23.8598 53.6314C24.1864 53.0318 24.772 52.3316 25.7815 52.1054C26.6197 51.9177 27.3876 52.1583 27.8378 52.3209L27.8429 52.3221C32.2881 53.9409 36.9146 55.7018 41.5404 56.4474C46.1184 57.1853 50.4829 56.8877 54.4403 54.5609C61.7726 50.2384 64.595 42.4808 63.2671 35.6037C61.9551 28.809 56.5661 22.771 47.0337 21.8788C41.8733 21.6371 36.7891 23.1791 32.635 26.2441L32.6261 26.2498L32.6186 26.2552C32.3908 26.4199 31.9581 26.7095 31.4181 26.8839C30.8858 27.0559 29.8739 27.2238 28.9256 26.5428L28.7796 26.438L28.6556 26.3092C25.5166 23.0655 22.7546 19.4773 20.4215 15.6138C20.3139 15.4368 20.123 15.1277 20.0021 14.7932C19.8388 14.3414 19.7658 13.7636 19.9891 13.1404C20.1484 12.6961 20.4301 12.354 20.5026 12.2612C20.6319 12.0957 20.7253 11.9829 20.8617 11.7929L20.8771 11.7715C28.3491 1.6545 42.7709 0.310175 53.3067 3.5848L53.3089 3.58514Z" fill="#79C475" stroke="black" stroke-width="4"/>
</svg>
