<svg width="348" height="351" viewBox="0 0 348 351" fill="none" xmlns="http://www.w3.org/2000/svg">
<path d="M300.684 219.896C296.917 224.145 294.796 231.23 297.047 236.773C299.091 241.805 304.956 244.934 310.357 244.046C317.548 242.864 322.639 238.657 328.597 230.639C334.91 222.144 337.664 209.875 330.556 204.286C323.117 198.436 310.907 216.39 309.68 216.896C308.943 217.199 304.092 216.053 300.684 219.896Z" fill="white" stroke="black" stroke-width="3" stroke-linejoin="round"/>
<path d="M257.407 304.96C251.496 303.533 243.968 304.966 240.272 309.67C236.916 313.941 237.404 320.804 241.225 325.329C246.311 331.354 252.928 334.013 263.438 335.651C274.576 337.386 287.094 334.062 288.111 324.887C289.174 315.284 266.272 312.654 265.132 311.77C264.447 311.24 262.755 306.25 257.407 304.96Z" fill="white" stroke="black" stroke-width="3" stroke-linejoin="round"/>
<path d="M106.005 165.307C105.607 164.726 100.93 157.145 99.9357 155.693C108.853 153.721 116.215 153.121 121.108 147.141C122.744 148.41 123.146 150.591 124.886 152.386C127.086 155.601 128.75 161.493 122.328 165.824C117.071 169.371 110.703 171.214 106.005 165.307Z" fill="white" stroke="black" stroke-width="3"/>
<path d="M108.128 95.6296C99.8787 87.1263 87.6349 86.1508 77.3045 90.3555C63.7956 95.8539 54.961 106.688 53.4902 119.92C52.7988 126.141 57.6864 144.175 63.8827 151.811C69.5362 158.779 79.1421 159.974 84.5997 156.709C87.1865 158.274 98.1893 160.639 109.986 155.824C121.782 151.008 126.678 141.725 126.152 132.107C125.625 122.488 119.081 117.239 118.863 116.876C118.645 116.512 118.44 106.259 108.128 95.6296Z" fill="white" stroke="black" stroke-width="3"/>
<ellipse cx="96.6858" cy="126.049" rx="2.08994" ry="3.3439" transform="rotate(-22.5769 96.6858 126.049)" fill="black"/>
<path d="M61.7739 115.944C60.9189 121.144 58.2124 140.01 58.6754 158.126C67.7073 170.146 83.7141 171.82 90.702 170.096C95.4249 167.449 98.6266 166.229 103.97 162.805C106.486 165.797 112.994 170.31 122.047 164.923C127.636 161.116 126.761 154.527 124.386 150.699C127 148.233 128.5 147.233 130.922 144.899C132.5 142.733 136.231 138.498 134.973 127.979C128.642 115.34 108.625 94.3411 106.386 87.6189C111.736 81.1974 110.238 82.2603 112.206 78.2669C131.767 87.6557 156.455 107.061 163.407 127.503C166.145 140.675 163.567 160.178 159.486 171.933C161.708 179.002 176.552 200.658 185.926 202.2C191.784 207.921 157.583 275.441 145.081 281.116C125.988 270.883 103.083 243.303 86.7287 207.171C71.5092 204.668 32.3687 190.576 27.5255 163.992C24.1358 145.386 37.7303 117.921 42.1726 109.919C48.7509 111 55.4956 114.914 61.7739 115.944Z" fill="#336BEC" stroke="black" stroke-width="3"/>
<ellipse cx="111.037" cy="119.42" rx="2.08994" ry="3.3439" transform="rotate(-22.5769 111.037 119.42)" fill="black"/>
<path d="M118.145 109.893C112.784 94.3257 97.5042 90.4236 95.9941 88.5602C102.587 107.838 82.3143 134.789 78.9154 139.293C59.2183 132.796 64.1255 162.469 85.1474 156.315C73.6811 161.594 58.8919 152.801 52.8533 147.39C39.9842 135.856 38.2019 122.142 38.9593 111.039C40.5644 87.5076 62.1879 65.5117 73.8119 74.949C85.1474 40.2329 112 34.2334 116.249 45.1615C135.847 15.1558 155.593 14.9083 167.296 19.5148C178.999 24.1212 189.822 36.2248 181.776 54.2349C176.54 65.9541 159.301 68.3239 149.549 75.1467C139.797 81.9695 159.532 89.0431 148.826 113.276C141.426 130.025 125.468 126.263 125.764 122.627C126 119.719 121.747 117.29 119.591 116.439L118.145 109.893Z" fill="black" stroke="black" stroke-width="3"/>
<path d="M218.723 216.71C219.087 211.166 224.389 195.868 240.935 202.469C258.533 209.49 261.036 237.403 262.706 261.114C263.942 278.675 263.903 298.263 263.646 307.674C262.201 316.46 247.981 316.7 241.001 312.115C239.151 309.881 217.236 239.378 218.723 216.71Z" fill="black" stroke="black" stroke-width="3"/>
<path d="M169.713 276.21C164.672 275.548 150.565 267.514 155.775 243.781C161.317 218.54 186.492 215.612 207.898 213.785C223.751 212.431 216.28 207.858 224.818 208.462C232.846 210.765 231.204 231.86 227.375 241.827C225.437 244.443 190.32 278.916 169.713 276.21Z" fill="black" stroke="black" stroke-width="3"/>
<path d="M219.791 216.393C210.282 235.025 204.119 267.298 186.113 285.389C175.647 295.905 158.712 293.889 148.385 288.754C134.294 281.747 133.079 273.199 140.587 256.057C147.488 240.3 186.633 180.527 204.374 174.322C217.809 170.946 279.61 200.024 306.764 217.809C308.586 221.336 304.15 233.706 298.791 237.552C288.47 234.995 269.782 225.903 259.248 222.024C254.486 211.788 247.85 203.704 240.67 201.779C229.785 198.863 223.23 209.655 219.791 216.393Z" fill="black" stroke="black" stroke-width="3"/>
<path d="M98.2064 141.015C99.7838 142.988 107.475 144.036 111.857 141.174" stroke="black" stroke-width="2.5" stroke-linecap="round"/>
<path d="M104.65 122.293C105.179 123.262 106.625 125.69 108.171 127.644C109.717 129.598 109.092 131.45 108.587 132.131" stroke="black" stroke-width="2.5" stroke-linecap="round"/>
<path d="M262.359 231.57C255.884 203.006 232.515 195.816 222.227 208.734C211.939 221.652 214.5 245.233 199 273.733" stroke="white" stroke-width="3" stroke-linecap="round"/>
<path d="M105.981 111.19C107.949 110.11 111.062 110.264 111.934 110.866" stroke="black" stroke-width="2.5" stroke-linecap="round"/>
</svg>
