<svg width="150" height="81" viewBox="0 0 150 81" fill="none" xmlns="http://www.w3.org/2000/svg">
<path d="M95.8486 0C84.6739 0 74.9013 5.99659 69.5684 14.9463C65.8943 12.7988 61.6194 11.5674 57.0566 11.5674C44.312 11.5674 33.8125 21.1692 32.3916 33.5332C30.7319 33.2176 29.0192 33.0508 27.2676 33.0508C12.2083 33.0508 0 45.2591 0 60.3184C0.00012207 68.2939 3.42509 75.4691 8.88379 80.4551H141.485C146.426 76.2878 149.557 70.1081 149.557 63.21C149.557 50.6606 139.198 40.4874 126.421 40.4873C125.861 40.4873 125.306 40.5075 124.756 40.5459C125.834 37.4199 126.421 34.0646 126.421 30.5723C126.421 13.6877 112.733 7.21612e-05 95.8486 0Z" fill="white"/>
</svg>
