<svg width="1920" height="1242" viewBox="0 0 1920 1242" fill="none" xmlns="http://www.w3.org/2000/svg">
<g clip-path="url(#clip0_1438_4011)">
<path d="M906.377 54C951.579 54 988.757 87.4362 992.636 130.026C999.808 128.056 1007.38 127 1015.22 127C1055.21 127 1088.6 154.492 1096.07 190.92C1104.41 189.008 1113.1 187.994 1122.05 187.994C1183.74 187.994 1233.88 236.156 1234.03 295.566C1234.12 329.511 1217.87 359.782 1192.42 379.497C1205.69 387.803 1215.5 401.284 1218.47 417.663C1218.95 420.273 1219.23 422.875 1219.34 425.454C1231.12 420.652 1244.06 418 1257.64 418C1312.67 418 1357.4 461.538 1357.54 515.244C1357.6 540.097 1348.11 562.771 1332.43 579.962C1362.83 597.717 1385.44 627.713 1392.12 664.463C1394.89 679.692 1394.68 694.783 1391.91 709.17C1403.58 701.726 1416.92 696.376 1431.47 693.771C1489.73 683.342 1545.31 720.857 1555.61 777.562C1560.58 804.864 1554.13 831.636 1539.62 853.225C1573.6 858.958 1601.98 884.001 1609.91 918.329C1616.12 915.663 1622.74 913.654 1629.7 912.409C1652.1 908.398 1674.03 913.016 1691.88 923.841C1713.76 896.702 1745.5 876.914 1782.99 870.202C1864.17 855.669 1941.62 907.945 1955.98 986.964C1970.34 1065.98 1916.17 1141.82 1834.98 1156.35C1796.48 1163.25 1758.82 1155.11 1728.33 1136.23C1706.08 1206.24 1631.27 1266.3 1534.21 1283.67C1407.05 1306.43 1289.87 1247.31 1272.49 1151.61C1270.83 1142.5 1270.14 1133.39 1270.35 1124.34C1258.36 1129.28 1245.65 1133.02 1232.34 1135.41C1184.65 1143.94 1138.03 1133.45 1100.67 1109.45C1096.67 1189.8 1036.25 1260.06 951.558 1275.22C863.309 1291.02 778.702 1241.63 749.72 1162.14C712.346 1163.84 675.64 1152.55 642.923 1131.23C589.983 1155.79 520.643 1177.24 443.375 1191.08C299.041 1216.91 171.261 1208.24 122.16 1173.5C98.4443 1200.74 65.2975 1220.49 26.5078 1227.44C-62.2298 1243.32 -146.889 1186.18 -162.583 1099.81C-178.277 1013.43 -119.064 930.537 -30.3272 914.651C31.365 903.607 91.0858 927.86 127.032 972.692C142.751 955.264 164.366 942.662 189.548 938.154C200.427 936.207 211.214 935.907 221.641 937.07C209.155 844.273 273.825 756.957 369.429 739.842C385.19 737.02 400.835 736.281 416.067 737.418C411.037 682.118 449.379 631.188 505.525 621.137C526.882 617.313 547.907 619.926 566.574 627.578C570.818 616.319 578.989 606.741 589.73 600.78C572.578 589.409 559.924 571.412 555.976 549.682C550.29 518.394 564.237 488.098 589.095 471.242C580.906 458.693 575.037 444.36 572.196 428.728C560.713 365.528 603.065 305.046 666.792 293.638C685.199 290.342 703.376 291.5 720.197 296.339C725.733 287.094 734.325 279.642 744.891 275.514C740.148 267.334 736.713 258.206 734.925 248.365C726.682 203.002 756.548 159.685 801.633 151.614C808.28 150.424 814.887 150.067 821.348 150.468C820.615 146.142 820.228 141.704 820.216 137.182C820.097 91.2418 858.672 54.0002 906.377 54Z" fill="white"/>
<rect x="-46" y="1063" width="2084" height="195" fill="white"/>
</g>
<defs>
<clipPath id="clip0_1438_4011">
<rect width="1920" height="1242" fill="white"/>
</clipPath>
</defs>
</svg>
