<svg width="788" height="1847" viewBox="0 0 788 1847" fill="none" xmlns="http://www.w3.org/2000/svg">
<rect x="2" y="2" width="784" height="1843" rx="18" fill="#E6E6E6" stroke="black" stroke-width="4"/>
<path d="M60 326L399 326" stroke="white" stroke-width="6" stroke-linecap="round"/>
<path d="M60 809L149 809" stroke="white" stroke-width="6" stroke-linecap="round"/>
<path d="M60 913L240 913" stroke="white" stroke-width="6" stroke-linecap="round"/>
<path d="M60 1129H213" stroke="white" stroke-width="6" stroke-linecap="round"/>
<path d="M60 476L399 476" stroke="white" stroke-width="6" stroke-linecap="round"/>
<path d="M423 326L728 326" stroke="white" stroke-width="6" stroke-linecap="round"/>
<path d="M264 913L728 913" stroke="white" stroke-width="6" stroke-linecap="round"/>
<path d="M175 809L728 809" stroke="white" stroke-width="6" stroke-linecap="round"/>
<path d="M237 1129L461 1129" stroke="white" stroke-width="6" stroke-linecap="round"/>
<path d="M485 1129L728 1129" stroke="white" stroke-width="6" stroke-linecap="round"/>
<path d="M423 476L728 476" stroke="white" stroke-width="6" stroke-linecap="round"/>
<path d="M60 965L351 965" stroke="white" stroke-width="6" stroke-linecap="round"/>
<path d="M60 378L175 378" stroke="white" stroke-width="6" stroke-linecap="round"/>
<path d="M574 378L728 378" stroke="white" stroke-width="6" stroke-linecap="round"/>
<path d="M60 861L351 861" stroke="white" stroke-width="6" stroke-linecap="round"/>
<path d="M60 1181L351 1181" stroke="white" stroke-width="6" stroke-linecap="round"/>
<path d="M60 528L351 528" stroke="white" stroke-width="6" stroke-linecap="round"/>
<path d="M375 965L728 965" stroke="white" stroke-width="6" stroke-linecap="round"/>
<path d="M60 580L594 580" stroke="white" stroke-width="6" stroke-linecap="round"/>
<path d="M199 378L550 378" stroke="white" stroke-width="6" stroke-linecap="round"/>
<path d="M219 1281L570 1281" stroke="white" stroke-width="6" stroke-linecap="round"/>
<path d="M293 1321H497" stroke="white" stroke-width="6" stroke-linecap="round"/>
<path d="M349 1361H441" stroke="white" stroke-width="6" stroke-linecap="round"/>
<path d="M375 861L728 861" stroke="white" stroke-width="6" stroke-linecap="round"/>
<path d="M375 1181L728 1181" stroke="white" stroke-width="6" stroke-linecap="round"/>
<path d="M375 528L728 528" stroke="white" stroke-width="6" stroke-linecap="round"/>
<path d="M620 580L728 580" stroke="white" stroke-width="6" stroke-linecap="round"/>
<path d="M260 160H527" stroke="white" stroke-width="20" stroke-linecap="round"/>
</svg>
