<svg width="1920" height="329" viewBox="0 0 1920 329" fill="none" xmlns="http://www.w3.org/2000/svg">
<g clip-path="url(#clip0_1504_4092)">
<rect width="1920" height="329" fill="white"/>
<mask id="path-1-inside-1_1504_4092" fill="white">
<path d="M1877.5 20C1944.6 20 1999 79.9938 1999 154C1999 228.006 1944.6 288 1877.5 288C1834.75 288 1797.16 263.646 1775.5 226.833C1753.84 263.646 1716.25 288 1673.5 288C1630.75 288 1593.16 263.646 1571.5 226.833C1549.84 263.646 1512.25 288 1469.5 288C1426.75 288 1389.16 263.646 1367.5 226.833C1345.84 263.646 1308.25 288 1265.5 288C1222.75 288 1185.16 263.646 1163.5 226.833C1141.84 263.646 1104.25 288 1061.5 288C1018.75 288 981.155 263.646 959.5 226.833C937.845 263.646 900.252 288 857.5 288C814.748 288 777.155 263.646 755.5 226.833C733.845 263.646 696.252 288 653.5 288C610.748 288 573.155 263.646 551.5 226.833C529.845 263.646 492.252 288 449.5 288C406.748 288 369.155 263.646 347.5 226.833C325.845 263.646 288.252 288 245.5 288C202.748 288 165.155 263.646 143.5 226.833C121.845 263.646 84.252 288 41.5 288C-25.6026 288 -80 228.006 -80 154C-80 79.9938 -25.6026 20 41.5 20C84.2517 20 121.845 44.3531 143.5 81.166C165.155 44.3531 202.748 20 245.5 20C288.252 20 325.845 44.3531 347.5 81.166C369.155 44.3531 406.748 20 449.5 20C492.252 20 529.845 44.3531 551.5 81.166C573.155 44.3531 610.748 20 653.5 20C696.252 20 733.845 44.3531 755.5 81.166C777.155 44.3531 814.748 20 857.5 20C900.252 20 937.845 44.3531 959.5 81.166C981.155 44.3531 1018.75 20 1061.5 20C1104.25 20 1141.84 44.3531 1163.5 81.166C1185.16 44.3531 1222.75 20 1265.5 20C1308.25 20 1345.84 44.3531 1367.5 81.166C1389.16 44.3531 1426.75 20 1469.5 20C1512.25 20 1549.84 44.3531 1571.5 81.166C1593.16 44.3531 1630.75 20 1673.5 20C1716.25 20 1753.84 44.3531 1775.5 81.166C1797.16 44.3531 1834.75 20 1877.5 20Z"/>
</mask>
<path d="M1877.5 20C1944.6 20 1999 79.9938 1999 154C1999 228.006 1944.6 288 1877.5 288C1834.75 288 1797.16 263.646 1775.5 226.833C1753.84 263.646 1716.25 288 1673.5 288C1630.75 288 1593.16 263.646 1571.5 226.833C1549.84 263.646 1512.25 288 1469.5 288C1426.75 288 1389.16 263.646 1367.5 226.833C1345.84 263.646 1308.25 288 1265.5 288C1222.75 288 1185.16 263.646 1163.5 226.833C1141.84 263.646 1104.25 288 1061.5 288C1018.75 288 981.155 263.646 959.5 226.833C937.845 263.646 900.252 288 857.5 288C814.748 288 777.155 263.646 755.5 226.833C733.845 263.646 696.252 288 653.5 288C610.748 288 573.155 263.646 551.5 226.833C529.845 263.646 492.252 288 449.5 288C406.748 288 369.155 263.646 347.5 226.833C325.845 263.646 288.252 288 245.5 288C202.748 288 165.155 263.646 143.5 226.833C121.845 263.646 84.252 288 41.5 288C-25.6026 288 -80 228.006 -80 154C-80 79.9938 -25.6026 20 41.5 20C84.2517 20 121.845 44.3531 143.5 81.166C165.155 44.3531 202.748 20 245.5 20C288.252 20 325.845 44.3531 347.5 81.166C369.155 44.3531 406.748 20 449.5 20C492.252 20 529.845 44.3531 551.5 81.166C573.155 44.3531 610.748 20 653.5 20C696.252 20 733.845 44.3531 755.5 81.166C777.155 44.3531 814.748 20 857.5 20C900.252 20 937.845 44.3531 959.5 81.166C981.155 44.3531 1018.75 20 1061.5 20C1104.25 20 1141.84 44.3531 1163.5 81.166C1185.16 44.3531 1222.75 20 1265.5 20C1308.25 20 1345.84 44.3531 1367.5 81.166C1389.16 44.3531 1426.75 20 1469.5 20C1512.25 20 1549.84 44.3531 1571.5 81.166C1593.16 44.3531 1630.75 20 1673.5 20C1716.25 20 1753.84 44.3531 1775.5 81.166C1797.16 44.3531 1834.75 20 1877.5 20Z" fill="#336BEC"/>
<path d="M1775.5 226.833L1778.95 224.805L1775.5 218.944L1772.05 224.805L1775.5 226.833ZM1571.5 226.833L1574.95 224.805L1571.5 218.944L1568.05 224.805L1571.5 226.833ZM1367.5 226.833L1370.95 224.805L1367.5 218.944L1364.05 224.805L1367.5 226.833ZM1163.5 226.833L1166.95 224.805L1163.5 218.944L1160.05 224.805L1163.5 226.833ZM959.5 226.833L962.948 224.805L959.5 218.944L956.052 224.805L959.5 226.833ZM755.5 226.833L758.948 224.805L755.5 218.944L752.052 224.805L755.5 226.833ZM551.5 226.833L554.948 224.805L551.5 218.944L548.052 224.805L551.5 226.833ZM347.5 226.833L350.948 224.805L347.5 218.944L344.052 224.805L347.5 226.833ZM143.5 226.833L146.948 224.805L143.5 218.944L140.052 224.805L143.5 226.833ZM143.5 81.166L140.052 83.1942L143.5 89.055L146.948 83.1942L143.5 81.166ZM347.5 81.166L344.052 83.1942L347.5 89.055L350.948 83.1942L347.5 81.166ZM551.5 81.166L548.052 83.1942L551.5 89.055L554.948 83.1942L551.5 81.166ZM755.5 81.166L752.052 83.1942L755.5 89.055L758.948 83.1942L755.5 81.166ZM959.5 81.166L956.052 83.1942L959.5 89.055L962.948 83.1942L959.5 81.166ZM1163.5 81.166L1160.05 83.1942L1163.5 89.055L1166.95 83.1942L1163.5 81.166ZM1367.5 81.166L1364.05 83.1942L1367.5 89.055L1370.95 83.1942L1367.5 81.166ZM1571.5 81.166L1568.05 83.1942L1571.5 89.055L1574.95 83.1942L1571.5 81.166ZM1775.5 81.166L1772.05 83.1942L1775.5 89.055L1778.95 83.1942L1775.5 81.166ZM1877.5 20V24C1942.03 24 1995 81.8254 1995 154H1999H2003C2003 78.1623 1947.17 16 1877.5 16V20ZM1999 154H1995C1995 226.175 1942.03 284 1877.5 284V288V292C1947.17 292 2003 229.838 2003 154H1999ZM1877.5 288V284C1836.35 284 1799.98 260.56 1778.95 224.805L1775.5 226.833L1772.05 228.861C1794.33 266.732 1833.15 292 1877.5 292V288ZM1775.5 226.833L1772.05 224.805C1751.02 260.56 1714.65 284 1673.5 284V288V292C1717.85 292 1756.67 266.732 1778.95 228.861L1775.5 226.833ZM1673.5 288V284C1632.35 284 1595.98 260.56 1574.95 224.805L1571.5 226.833L1568.05 228.861C1590.33 266.732 1629.15 292 1673.5 292V288ZM1571.5 226.833L1568.05 224.805C1547.02 260.56 1510.65 284 1469.5 284V288V292C1513.85 292 1552.67 266.732 1574.95 228.861L1571.5 226.833ZM1469.5 288V284C1428.35 284 1391.98 260.56 1370.95 224.805L1367.5 226.833L1364.05 228.861C1386.33 266.732 1425.15 292 1469.5 292V288ZM1367.5 226.833L1364.05 224.805C1343.02 260.56 1306.65 284 1265.5 284V288V292C1309.85 292 1348.67 266.732 1370.95 228.861L1367.5 226.833ZM1265.5 288V284C1224.35 284 1187.98 260.56 1166.95 224.805L1163.5 226.833L1160.05 228.861C1182.33 266.732 1221.15 292 1265.5 292V288ZM1163.5 226.833L1160.05 224.805C1139.02 260.56 1102.65 284 1061.5 284V288V292C1105.85 292 1144.67 266.732 1166.95 228.861L1163.5 226.833ZM1061.5 288V284C1020.35 284 983.981 260.56 962.948 224.805L959.5 226.833L956.052 228.861C978.33 266.732 1017.15 292 1061.5 292V288ZM959.5 226.833L956.052 224.805C935.019 260.56 898.654 284 857.5 284V288V292C901.85 292 940.67 266.732 962.948 228.861L959.5 226.833ZM857.5 288V284C816.346 284 779.981 260.56 758.948 224.805L755.5 226.833L752.052 228.861C774.33 266.732 813.15 292 857.5 292V288ZM755.5 226.833L752.052 224.805C731.019 260.56 694.654 284 653.5 284V288V292C697.85 292 736.67 266.732 758.948 228.861L755.5 226.833ZM653.5 288V284C612.346 284 575.981 260.56 554.948 224.805L551.5 226.833L548.052 228.861C570.33 266.732 609.15 292 653.5 292V288ZM551.5 226.833L548.052 224.805C527.019 260.56 490.654 284 449.5 284V288V292C493.85 292 532.67 266.732 554.948 228.861L551.5 226.833ZM449.5 288V284C408.346 284 371.981 260.56 350.948 224.805L347.5 226.833L344.052 228.861C366.33 266.732 405.15 292 449.5 292V288ZM347.5 226.833L344.052 224.805C323.019 260.56 286.654 284 245.5 284V288V292C289.85 292 328.67 266.732 350.948 228.861L347.5 226.833ZM245.5 288V284C204.346 284 167.981 260.56 146.948 224.805L143.5 226.833L140.052 228.861C162.33 266.732 201.15 292 245.5 292V288ZM143.5 226.833L140.052 224.805C119.019 260.56 82.6543 284 41.5 284V288V292C85.8497 292 124.67 266.732 146.948 228.861L143.5 226.833ZM41.5 288V284C-23.0339 284 -76 226.175 -76 154H-80H-84C-84 229.838 -28.1713 292 41.5 292V288ZM-80 154H-76C-76 81.8254 -23.0339 24 41.5 24V20V16C-28.1713 16 -84 78.1623 -84 154H-80ZM41.5 20V24C82.6541 24 119.019 47.4393 140.052 83.1942L143.5 81.166L146.948 79.1379C124.67 41.267 85.8494 16 41.5 16V20ZM143.5 81.166L146.948 83.1942C167.981 47.4393 204.346 24 245.5 24V20V16C201.151 16 162.33 41.267 140.052 79.1379L143.5 81.166ZM245.5 20V24C286.654 24 323.019 47.4393 344.052 83.1942L347.5 81.166L350.948 79.1379C328.67 41.267 289.849 16 245.5 16V20ZM347.5 81.166L350.948 83.1942C371.981 47.4393 408.346 24 449.5 24V20V16C405.151 16 366.33 41.267 344.052 79.1379L347.5 81.166ZM449.5 20V24C490.654 24 527.019 47.4393 548.052 83.1942L551.5 81.166L554.948 79.1379C532.67 41.267 493.849 16 449.5 16V20ZM551.5 81.166L554.948 83.1942C575.981 47.4393 612.346 24 653.5 24V20V16C609.151 16 570.33 41.267 548.052 79.1379L551.5 81.166ZM653.5 20V24C694.654 24 731.019 47.4393 752.052 83.1942L755.5 81.166L758.948 79.1379C736.67 41.267 697.849 16 653.5 16V20ZM755.5 81.166L758.948 83.1942C779.981 47.4393 816.346 24 857.5 24V20V16C813.151 16 774.33 41.267 752.052 79.1379L755.5 81.166ZM857.5 20V24C898.654 24 935.019 47.4393 956.052 83.1942L959.5 81.166L962.948 79.1379C940.67 41.267 901.849 16 857.5 16V20ZM959.5 81.166L962.948 83.1942C983.981 47.4393 1020.35 24 1061.5 24V20V16C1017.15 16 978.33 41.267 956.052 79.1379L959.5 81.166ZM1061.5 20V24C1102.65 24 1139.02 47.4393 1160.05 83.1942L1163.5 81.166L1166.95 79.1379C1144.67 41.267 1105.85 16 1061.5 16V20ZM1163.5 81.166L1166.95 83.1942C1187.98 47.4393 1224.35 24 1265.5 24V20V16C1221.15 16 1182.33 41.267 1160.05 79.1379L1163.5 81.166ZM1265.5 20V24C1306.65 24 1343.02 47.4393 1364.05 83.1942L1367.5 81.166L1370.95 79.1379C1348.67 41.267 1309.85 16 1265.5 16V20ZM1367.5 81.166L1370.95 83.1942C1391.98 47.4393 1428.35 24 1469.5 24V20V16C1425.15 16 1386.33 41.267 1364.05 79.1379L1367.5 81.166ZM1469.5 20V24C1510.65 24 1547.02 47.4393 1568.05 83.1942L1571.5 81.166L1574.95 79.1379C1552.67 41.267 1513.85 16 1469.5 16V20ZM1571.5 81.166L1574.95 83.1942C1595.98 47.4393 1632.35 24 1673.5 24V20V16C1629.15 16 1590.33 41.267 1568.05 79.1379L1571.5 81.166ZM1673.5 20V24C1714.65 24 1751.02 47.4393 1772.05 83.1942L1775.5 81.166L1778.95 79.1379C1756.67 41.267 1717.85 16 1673.5 16V20ZM1775.5 81.166L1778.95 83.1942C1799.98 47.4393 1836.35 24 1877.5 24V20V16C1833.15 16 1794.33 41.267 1772.05 79.1379L1775.5 81.166Z" fill="black" mask="url(#path-1-inside-1_1504_4092)"/>
<rect y="154" width="1920" height="748" fill="#336BEC"/>
</g>
<defs>
<clipPath id="clip0_1504_4092">
<rect width="1920" height="329" fill="white"/>
</clipPath>
</defs>
</svg>
