<svg width="381" height="347" viewBox="0 0 381 347" fill="none" xmlns="http://www.w3.org/2000/svg">
<g clip-path="url(#clip0_1242_1087)">
<rect width="381" height="347" rx="10" fill="#336BEC"/>
<path d="M190.5 253.941C259.386 253.941 321.676 262.075 366.68 275.181C389.195 281.738 407.269 289.507 419.67 298.045C432.133 306.626 438.446 315.678 438.446 324.731C438.446 333.784 432.133 342.836 419.67 351.417C407.269 359.955 389.194 367.725 366.68 374.281C321.676 387.388 259.386 395.521 190.5 395.521C121.613 395.521 59.3238 387.388 14.3202 374.281C-8.19461 367.725 -26.2694 359.955 -38.67 351.417C-51.1331 342.836 -57.4464 333.784 -57.4464 324.731C-57.4463 315.678 -51.133 306.626 -38.67 298.045C-26.2694 289.507 -8.1947 281.738 14.3202 275.181C59.3238 262.075 121.613 253.941 190.5 253.941Z" fill="white" stroke="black" stroke-width="4"/>
<path d="M91.5702 66.5325C98.7632 66.5325 104.724 71.8035 105.804 78.6936C106.565 78.347 107.411 78.1526 108.303 78.1526C111.64 78.1526 114.345 80.8576 114.345 84.1946C114.345 85.0749 114.154 85.91 113.815 86.6643C114.442 86.5678 115.085 86.5188 115.739 86.5188C122.67 86.5188 128.289 92.137 128.289 99.0676C128.289 101.852 127.381 104.424 125.847 106.505H52.7753C48.4399 103.795 45.5556 98.98 45.5555 93.4905C45.5556 85.0196 52.4226 78.1528 60.8934 78.1526C60.9527 78.1526 61.0121 78.1539 61.0712 78.1545C61.9385 73.6522 65.8987 70.2513 70.6542 70.2512C73.988 70.2512 76.9305 71.9233 78.6913 74.4739C81.061 69.764 85.9382 66.5325 91.5702 66.5325Z" fill="white"/>
<path d="M304.242 154.916C312.658 154.916 319.507 161.631 319.724 169.995C321.517 169.181 323.51 168.728 325.608 168.728C333.477 168.728 339.856 175.107 339.857 182.977C339.857 188.397 336.83 193.11 332.375 195.52H279.049C276.538 193.408 274.941 190.244 274.941 186.706C274.941 180.349 280.094 175.196 286.451 175.195C287.567 175.195 288.646 175.356 289.666 175.652C289.076 174.014 288.754 172.246 288.754 170.404C288.754 161.851 295.688 154.916 304.242 154.916Z" fill="white"/>
<path d="M163.238 298.883C169.624 274.85 203.387 259.625 213.469 277.505C225.523 298.883 184.651 310.892 163.238 298.883Z" fill="black"/>
</g>
<rect x="2" y="2" width="377" height="343" rx="8" stroke="black" stroke-width="4"/>
<defs>
<clipPath id="clip0_1242_1087">
<rect width="381" height="347" rx="10" fill="white"/>
</clipPath>
</defs>
</svg>
