<svg width="150" height="150" viewBox="0 0 150 150" fill="none" xmlns="http://www.w3.org/2000/svg">
<g clip-path="url(#clip0_1496_151)">
<g clip-path="url(#clip1_1496_151)">
<path d="M7.67189 -29.25H142.328C147.178 -29.2547 151.981 -28.2784 156.463 -26.377C160.945 -24.4755 165.017 -21.6863 168.446 -18.169C171.875 -14.6516 174.595 -10.4752 176.449 -5.87862C178.303 -1.28208 179.255 3.64431 179.25 8.6186V141.381C179.255 146.356 178.303 151.282 176.449 155.879C174.595 160.475 171.875 164.652 168.446 168.169C165.017 171.686 160.945 174.476 156.463 176.377C151.981 178.278 147.178 179.255 142.328 179.25H7.67189C2.82195 179.255 -1.98128 178.278 -6.46291 176.377C-10.9445 174.476 -15.0166 171.686 -18.446 168.169C-21.8754 164.652 -24.5949 160.475 -26.4488 155.879C-28.3027 151.282 -29.2546 146.356 -29.25 141.381V8.6186C-29.2546 3.64431 -28.3027 -1.28208 -26.4488 -5.87862C-24.5949 -10.4752 -21.8754 -14.6516 -18.446 -18.169C-15.0166 -21.6863 -10.9445 -24.4755 -6.46291 -26.377C-1.98128 -28.2784 2.82195 -29.2547 7.67189 -29.25Z" fill="#F3F3F3"/>
<g clip-path="url(#clip2_1496_151)">
<path d="M75 84.9167C80.7594 84.9167 85.4283 80.3083 85.4283 74.6234C85.4283 68.9386 80.7594 64.3301 75 64.3301C69.2407 64.3301 64.5718 68.9386 64.5718 74.6234C64.5718 80.3083 69.2407 84.9167 75 84.9167Z" fill="#C9C9C9"/>
<path fill-rule="evenodd" clip-rule="evenodd" d="M25.0739 68.2009C22.5437 70.4554 21.4807 72.6299 21.4807 74.6237C21.4807 76.6174 22.5437 78.7919 25.0739 81.0464C27.6038 83.3007 31.4016 85.4411 36.302 87.288C46.0859 90.9753 59.767 93.3065 74.9997 93.3065C90.2325 93.3065 103.914 90.9753 113.698 87.288C118.598 85.4411 122.396 83.3007 124.926 81.0464C127.456 78.7919 128.519 76.6174 128.519 74.6237C128.519 72.6299 127.456 70.4554 124.926 68.2009C122.396 65.9466 118.598 63.8062 113.698 61.9593C103.914 58.272 90.2325 55.9408 74.9997 55.9408C59.767 55.9408 46.0859 58.272 36.302 61.9593C31.4016 63.8062 27.6038 65.9466 25.0739 68.2009ZM34.563 57.4639C45.0314 53.5187 59.3286 51.1289 74.9997 51.1289C90.6709 51.1289 104.968 53.5187 115.436 57.4639C120.662 59.4334 125.059 61.8373 128.192 64.629C131.325 67.4206 133.394 70.7939 133.394 74.6237C133.394 78.4534 131.325 81.8268 128.192 84.6183C125.059 87.41 120.662 89.8139 115.436 91.7834C104.968 95.7287 90.6709 98.1184 74.9997 98.1184C59.3286 98.1184 45.0314 95.7287 34.563 91.7834C29.3373 89.8139 24.9404 87.41 21.8072 84.6183C18.6743 81.8268 16.6057 78.4534 16.6057 74.6237C16.6057 70.7939 18.6743 67.4206 21.8072 64.629C24.9404 61.8373 29.3373 59.4334 34.563 57.4639Z" fill="#C9C9C9"/>
<path fill-rule="evenodd" clip-rule="evenodd" d="M55.672 28.7357C52.4289 27.7001 49.9895 27.8787 48.2402 28.8756C46.4909 29.8725 45.1146 31.8683 44.4016 35.1585C43.6887 38.4483 43.7097 42.7649 44.5395 47.8772C46.1962 58.0844 50.9915 70.9448 58.6079 83.9661C66.2243 96.9874 75.1101 107.517 83.2372 114.037C87.3078 117.302 91.0846 119.478 94.3275 120.514C97.5707 121.549 100.01 121.371 101.759 120.374C103.509 119.377 104.885 117.381 105.598 114.091C106.311 110.801 106.29 106.485 105.46 101.372C103.803 91.165 99.008 78.3046 91.3916 65.2833C83.7753 52.262 74.8894 41.7327 66.7623 35.2129C62.6917 31.9474 58.9149 29.7712 55.672 28.7357ZM69.837 31.4787C78.5326 38.4546 87.7779 49.4813 95.6135 62.8773C103.449 76.2734 108.501 89.6898 110.274 100.611C111.159 106.063 111.248 111.023 110.365 115.097C109.482 119.171 107.557 122.626 104.197 124.541C100.837 126.456 96.8426 126.374 92.8269 125.092C88.8109 123.81 84.5034 121.253 80.1626 117.771C71.4669 110.795 62.2216 99.7681 54.386 86.3721C46.5504 72.9761 41.4985 59.5596 39.7259 48.6385C38.8409 43.1866 38.7516 38.2262 39.6344 34.152C40.5172 30.0782 42.4426 26.6232 45.8027 24.7083C49.1629 22.7935 53.1569 22.8751 57.1726 24.1574C61.1886 25.4398 65.4961 27.9964 69.837 31.4787Z" fill="#C9C9C9"/>
<path fill-rule="evenodd" clip-rule="evenodd" d="M105.598 35.1598C104.885 31.8697 103.509 29.8738 101.759 28.8769C100.01 27.88 97.5707 27.7014 94.3275 28.737C91.0847 29.7725 87.3078 31.9487 83.2373 35.2142C75.1101 41.7341 66.2243 52.2634 58.6079 65.2847C50.9915 78.3059 46.1963 91.1663 44.5395 101.374C43.7097 106.486 43.6888 110.803 44.4016 114.092C45.1146 117.382 46.491 119.378 48.2403 120.375C49.9896 121.372 52.4289 121.551 55.6721 120.515C58.9149 119.48 62.6917 117.303 66.7623 114.038C74.8895 107.518 83.7753 96.9888 91.3917 83.9675C99.0081 70.9462 103.803 58.0858 105.46 47.8786C106.29 42.7662 106.311 38.4496 105.598 35.1598ZM110.274 48.6398C108.501 59.561 103.449 72.9774 95.6135 86.3734C87.778 99.7695 78.5326 110.796 69.837 117.772C65.4961 121.254 61.1886 123.811 57.1726 125.093C53.1569 126.376 49.1629 126.457 45.8028 124.542C42.4427 122.628 40.5173 119.173 39.6345 115.099C38.7516 111.025 38.841 106.064 39.7259 100.612C41.4985 89.6911 46.5504 76.2747 54.386 62.8787C62.2216 49.4827 71.4669 38.456 80.1626 31.4801C84.5034 27.9977 88.811 25.4411 92.827 24.1587C96.8426 22.8764 100.837 22.7948 104.197 24.7097C107.557 26.6245 109.482 30.0795 110.365 34.1533C111.248 38.2275 111.159 43.188 110.274 48.6398Z" fill="#C9C9C9"/>
</g>
</g>
</g>
<defs>
<clipPath id="clip0_1496_151">
<rect width="150" height="150" rx="15" fill="white"/>
</clipPath>
<clipPath id="clip1_1496_151">
<rect width="150" height="150" fill="white"/>
</clipPath>
<clipPath id="clip2_1496_151">
<rect width="117" height="102.75" fill="white" transform="translate(16.5 23.25)"/>
</clipPath>
</defs>
</svg>
