<svg width="150" height="150" viewBox="0 0 150 150" fill="none" xmlns="http://www.w3.org/2000/svg">
<g clip-path="url(#clip0_1496_182)">
<path d="M133.012 -14.25H16.9875C-0.264495 -14.25 -14.25 -0.264495 -14.25 16.9875V133.012C-14.25 150.264 -0.264495 164.25 16.9875 164.25H133.012C150.264 164.25 164.25 150.264 164.25 133.012V16.9875C164.25 -0.264495 150.264 -14.25 133.012 -14.25Z" fill="#F3F3F3"/>
<path d="M63.1176 87.676H42.3432L36.9789 104.842C36.9138 105.362 36.5887 105.622 36.0035 105.622H26.2503C25.6 105.622 25.3725 105.297 25.5675 104.647L44.3913 47.1996C44.8465 45.9641 45.1066 44.176 45.1716 41.8352C45.1716 41.4451 45.3667 41.25 45.7568 41.25H59.4114C59.8015 41.25 60.0291 41.4126 60.0941 41.7377L81.1612 104.744C81.3562 105.33 81.1937 105.622 80.6735 105.622H69.7499C69.2947 105.622 68.9696 105.427 68.7745 105.037L63.1176 87.676ZM44.6839 78.4103H60.8744C60.4842 77.0448 59.6715 74.3789 58.4361 70.4126C57.2006 66.4462 56.0628 62.7399 55.0224 59.2937C53.9821 55.8475 53.2018 53.1166 52.6816 51.1009H52.5841C51.8688 54.4821 49.2355 63.5852 44.6839 78.4103Z" fill="#C9C9C9"/>
<path d="M113.381 83.9697H95.5328C95.5978 88.1312 96.7682 91.4148 99.044 93.8206C101.32 96.2265 104.733 97.4294 109.285 97.4294C113.446 97.4294 117.153 96.7141 120.404 95.2836C120.794 95.0235 120.989 95.1536 120.989 95.6738V102.794C120.989 103.249 120.794 103.639 120.404 103.964C116.697 105.655 112.146 106.5 106.749 106.5C98.7514 106.5 92.8669 104.224 89.0956 99.6726C85.3894 95.0561 83.5363 89.3016 83.5363 82.4092C83.5363 75.2567 85.4869 69.2747 89.3882 64.463C93.2895 59.6513 98.6213 57.2455 105.384 57.2455C111.821 57.2455 116.6 59.2287 119.721 63.1951C122.907 67.1614 124.5 71.8105 124.5 77.1424C124.5 79.8083 124.37 81.6939 124.11 82.7993C124.045 83.2545 123.785 83.5146 123.33 83.5796C121.639 83.8397 118.323 83.9697 113.381 83.9697ZM95.5328 76.4596H108.407C111.203 76.4596 112.796 76.3946 113.186 76.2646C113.251 76.0045 113.284 75.5493 113.284 74.8991C113.284 72.4282 112.634 70.2175 111.333 68.2668C110.033 66.3161 107.919 65.3408 104.993 65.3408C102.132 65.3408 99.9217 66.3812 98.3612 68.4619C96.8007 70.5426 95.8579 73.2085 95.5328 76.4596Z" fill="#C9C9C9"/>
</g>
<defs>
<clipPath id="clip0_1496_182">
<rect width="150" height="150" rx="15" fill="white"/>
</clipPath>
</defs>
</svg>
