<svg width="150" height="150" viewBox="0 0 150 150" fill="none" xmlns="http://www.w3.org/2000/svg">
<g clip-path="url(#clip0_1496_186)">
<path d="M140.325 -25.5H9.675C-9.75162 -25.5 -25.5 -9.75162 -25.5 9.675V140.325C-25.5 159.752 -9.75162 175.5 9.675 175.5H140.325C159.752 175.5 175.5 159.752 175.5 140.325V9.675C175.5 -9.75162 159.752 -25.5 140.325 -25.5Z" fill="#F3F3F3"/>
<path d="M36.75 106.568V43.6269C36.75 43.1722 36.9457 42.9449 37.3371 42.9449C41.5119 42.815 47.3828 42.75 54.9497 42.75C63.5602 42.75 69.8877 44.7311 73.9321 48.6934C78.0417 52.5906 80.0965 57.4947 80.0965 63.4056C80.0965 70.5506 77.5851 75.9418 72.5622 79.5793C67.6046 83.1518 61.3097 84.9381 53.6776 84.9381C52.7644 84.9381 51.6881 84.9381 50.4487 84.9381C49.2745 84.8731 48.6548 84.8406 48.5896 84.8406V106.568C48.5896 107.023 48.3286 107.25 47.8068 107.25H37.4349C36.9783 107.25 36.75 107.023 36.75 106.568ZM48.5896 51.8112V75.7795C49.5028 75.9094 51.3945 75.9743 54.2647 75.9743C58.3743 75.9743 61.7338 75.0325 64.343 73.1488C66.9523 71.2002 68.2569 68.0174 68.2569 63.6005C68.2569 59.8331 67.0828 56.9101 64.7344 54.8316C62.4513 52.6881 59.1897 51.6163 54.9497 51.6163C51.4924 51.6163 49.3723 51.6813 48.5896 51.8112Z" fill="#C9C9C9"/>
<path d="M86.3419 59.8006H95.5396C96.0614 59.8006 96.4202 60.0604 96.6159 60.5801C97.1378 61.8792 97.4639 63.7628 97.5944 66.2311C101.378 61.3595 106.368 58.9237 112.565 58.9237C113.022 58.9237 113.25 59.1511 113.25 59.6057V69.4464C113.25 69.966 112.989 70.1934 112.467 70.1284C106.792 69.8036 102.324 71.2651 99.0621 74.5128C98.475 75.0974 98.1815 75.8769 98.1815 76.8512V106.568C98.1815 107.023 97.9205 107.25 97.3987 107.25H87.1247C86.5376 107.25 86.2441 106.99 86.2441 106.471V73.5385C86.2441 68.2772 86.081 63.9252 85.7548 60.4826C85.6896 60.0279 85.8853 59.8006 86.3419 59.8006Z" fill="#C9C9C9"/>
</g>
<defs>
<clipPath id="clip0_1496_186">
<rect width="150" height="150" rx="15" fill="white"/>
</clipPath>
</defs>
</svg>
