<svg width="150" height="150" viewBox="0 0 150 150" fill="none" xmlns="http://www.w3.org/2000/svg">
<g clip-path="url(#clip0_1496_190)">
<path d="M141.788 -27.75H8.2125C-11.649 -27.75 -27.75 -11.649 -27.75 8.2125V141.788C-27.75 161.649 -11.649 177.75 8.2125 177.75H141.788C161.649 177.75 177.75 161.649 177.75 141.788V8.2125C177.75 -11.649 161.649 -27.75 141.788 -27.75Z" fill="#F3F3F3"/>
<path d="M33.75 106.345V42.8761C33.75 42.4218 33.9775 42.1947 34.4325 42.1947C39.3722 42.0649 45.6444 42 53.249 42C62.2185 42 68.7832 44.0118 72.943 48.0354C77.1677 52.059 79.2801 57.0236 79.2801 62.9292C79.2801 70.2625 76.6803 75.7139 71.4805 79.2832C66.2808 82.8525 59.7486 84.6372 51.8841 84.6372H46.1319V106.248C46.1319 106.767 45.8719 107.027 45.3519 107.027H34.53C34.01 107.027 33.75 106.799 33.75 106.345ZM46.1319 51.3451V75.292C47.0418 75.4218 49.1542 75.4867 52.469 75.4867C56.8238 75.4867 60.3336 74.5457 62.9985 72.6637C65.7283 70.7168 67.0933 67.5693 67.0933 63.2212C67.0933 59.3923 65.8908 56.4395 63.486 54.3628C61.1461 52.2861 57.7337 51.2478 53.249 51.2478C52.144 51.2478 51.0391 51.2802 49.9342 51.3451C48.8942 51.3451 48.0168 51.3451 47.3018 51.3451C46.6518 51.3451 46.2618 51.3451 46.1319 51.3451Z" fill="#C9C9C9"/>
<path d="M113.295 70.8142C109.655 68.5428 105.853 67.4071 101.888 67.4071C99.6134 67.4071 97.9235 67.8289 96.8186 68.6726C95.7786 69.5162 95.2586 70.5221 95.2586 71.6903C95.2586 72.8584 95.7136 73.8968 96.6236 74.8053C97.5335 75.649 99.4509 76.6549 102.376 77.823C107.77 79.8997 111.54 82.1062 113.685 84.4425C115.895 86.7139 117 89.6667 117 93.3009C117 97.7139 115.31 101.283 111.93 104.009C108.615 106.67 104.098 108 98.3785 108C92.6588 108 87.979 106.962 84.3392 104.885C83.9492 104.755 83.7542 104.431 83.7542 103.912V94.8584C83.7542 94.5988 83.8192 94.4366 83.9492 94.3717C84.1442 94.2419 84.3067 94.2419 84.4367 94.3717C88.6615 97.4867 93.1787 99.0443 97.9885 99.0443C100.263 99.0443 101.986 98.6549 103.156 97.8761C104.391 97.0324 105.008 95.9617 105.008 94.6637C105.008 93.3009 104.521 92.1652 103.546 91.2566C102.571 90.2832 100.653 89.2448 97.7935 88.1416C92.5938 86.1298 88.954 83.9882 86.8741 81.7168C84.8592 79.3805 83.8517 76.4602 83.8517 72.9558C83.8517 68.9322 85.3791 65.5575 88.434 62.8319C91.4888 60.1062 95.8436 58.7434 101.498 58.7434C106.763 58.7434 110.825 59.4572 113.685 60.885C114.01 61.0796 114.173 61.5015 114.173 62.1504V70.2301C114.173 71.0089 113.88 71.2035 113.295 70.8142Z" fill="#C9C9C9"/>
</g>
<defs>
<clipPath id="clip0_1496_190">
<rect width="150" height="150" rx="15" fill="white"/>
</clipPath>
</defs>
</svg>
