<svg width="150" height="150" viewBox="0 0 150 150" fill="none" xmlns="http://www.w3.org/2000/svg">
<g clip-path="url(#clip0_1496_160)">
<path d="M9.60939 -26.25H140.391C145.101 -26.2545 149.766 -25.3063 154.119 -23.4596C158.471 -21.6129 162.426 -18.904 165.757 -15.4879C169.088 -12.0717 171.729 -8.01545 173.529 -3.55118C175.33 0.91309 176.254 5.69771 176.25 10.5289V139.471C176.254 144.302 175.33 149.087 173.529 153.551C171.729 158.015 169.088 162.072 165.757 165.488C162.426 168.904 158.471 171.613 154.119 173.46C149.766 175.306 145.101 176.255 140.391 176.25H9.60939C4.89902 176.255 0.234012 175.306 -4.11865 173.46C-8.47132 171.613 -12.4262 168.904 -15.7569 165.488C-19.0877 162.072 -21.7289 158.015 -23.5294 153.551C-25.3299 149.087 -26.2544 144.302 -26.25 139.471V10.5289C-26.2544 5.69771 -25.3299 0.91309 -23.5294 -3.55118C-21.7289 -8.01545 -19.0877 -12.0717 -15.7569 -15.4879C-12.4262 -18.904 -8.47132 -21.6129 -4.11865 -23.4596C0.234012 -25.3063 4.89902 -26.2545 9.60939 -26.25V-26.25Z" fill="#F3F3F3"/>
<path d="M129.129 69.9892L80.0074 20.8718C77.1811 18.0427 72.5933 18.0427 69.7634 20.8718L59.5639 31.0727L72.5016 44.011C75.5094 42.9955 78.9568 43.6764 81.3532 46.0733C83.762 48.4852 84.438 51.9622 83.3971 54.9801L95.8668 67.4504C98.8836 66.4107 102.364 67.0824 104.773 69.4957C108.141 72.8627 108.141 78.3186 104.773 81.6865C101.405 85.0554 95.9492 85.0554 92.579 81.6865C90.0467 79.152 89.4203 75.4311 90.7029 72.3109L79.0735 60.681L79.0725 91.2848C79.8936 91.6913 80.6685 92.2338 81.3527 92.9151C84.7196 96.2817 84.7196 101.737 81.3527 105.109C77.9848 108.475 72.5267 108.475 69.1624 105.109C65.7951 101.737 65.7951 96.282 69.1624 92.9151C69.9946 92.0844 70.9575 91.4556 71.985 91.0341V60.1459C70.957 59.7262 69.9953 59.1021 69.1618 58.2647C66.6112 55.7159 65.9969 51.9723 67.305 48.84L54.5509 36.0834L20.8723 69.7623C18.0426 72.5935 18.0426 77.1815 20.8723 80.0107L69.9909 129.128C72.8188 131.957 77.405 131.957 80.2369 129.128L129.128 80.2427C131.957 77.4123 131.957 72.823 129.128 69.9934" fill="#C9C9C9"/>
</g>
<defs>
<clipPath id="clip0_1496_160">
<rect width="150" height="150" rx="15" fill="white"/>
</clipPath>
</defs>
</svg>
