<svg width="150" height="150" viewBox="0 0 150 150" fill="none" xmlns="http://www.w3.org/2000/svg">
<g clip-path="url(#clip0_1496_164)">
<path d="M14.4531 -18.75H135.547C139.908 -18.7542 144.228 -17.8762 148.258 -16.1663C152.288 -14.4564 155.95 -11.9482 159.034 -8.78506C162.118 -5.62197 164.564 -1.86616 166.231 2.26742C167.898 6.40101 168.754 10.8312 168.75 15.3045V134.696C168.754 139.169 167.898 143.599 166.231 147.733C164.564 151.866 162.118 155.622 159.034 158.785C155.95 161.948 152.288 164.456 148.258 166.166C144.228 167.876 139.908 168.754 135.547 168.75H14.4531C10.0917 168.754 5.77223 167.876 1.74199 166.166C-2.28825 164.456 -5.95017 161.948 -9.03418 158.785C-12.1182 155.622 -14.5638 151.866 -16.2309 147.733C-17.8981 143.599 -18.7541 139.169 -18.75 134.696V15.3045C-18.7541 10.8312 -17.8981 6.40101 -16.2309 2.26742C-14.5638 -1.86616 -12.1182 -5.62197 -9.03418 -8.78506C-5.95017 -11.9482 -2.28825 -14.4564 1.74199 -16.1663C5.77223 -17.8762 10.0917 -18.7542 14.4531 -18.75V-18.75Z" fill="#F3F3F3"/>
<path d="M60.6252 120.75C69.2547 120.75 76.2502 113.754 76.2502 105.125V89.5H60.6252C51.9958 89.5 45.0002 96.4955 45.0002 105.125C45.0002 113.754 51.9958 120.75 60.6252 120.75Z" fill="#C9C9C9"/>
<path d="M45.0002 73.875C45.0002 65.2455 51.9958 58.25 60.6252 58.25H76.2502V89.5H60.6252C51.9958 89.5 45.0002 82.5045 45.0002 73.875Z" fill="#C9C9C9"/>
<path d="M45.0002 42.625C45.0002 33.9955 51.9958 27 60.6252 27H76.2502V58.25H60.6252C51.9958 58.25 45.0002 51.2545 45.0002 42.625Z" fill="#C9C9C9"/>
<path d="M76.2502 27H91.8752C100.505 27 107.5 33.9955 107.5 42.625C107.5 51.2545 100.505 58.25 91.8752 58.25H76.2502V27Z" fill="#C9C9C9"/>
<path d="M107.5 73.875C107.5 82.5045 100.505 89.5 91.8752 89.5C83.2458 89.5 76.2502 82.5045 76.2502 73.875C76.2502 65.2455 83.2458 58.25 91.8752 58.25C100.505 58.25 107.5 65.2455 107.5 73.875Z" fill="#C9C9C9"/>
</g>
<defs>
<clipPath id="clip0_1496_164">
<rect width="150" height="150" rx="15" fill="white"/>
</clipPath>
</defs>
</svg>
