<svg width="150" height="150" viewBox="0 0 150 150" fill="none" xmlns="http://www.w3.org/2000/svg">
<g clip-path="url(#clip0_1496_146)">
<path d="M18.3281 -12.75H131.672C135.754 -12.7539 139.797 -11.9322 143.569 -10.3317C147.342 -8.73121 150.769 -6.38347 153.656 -3.42282C156.543 -0.462164 158.832 3.05328 160.392 6.92231C161.953 10.7913 162.754 14.938 162.75 19.125V130.875C162.754 135.062 161.953 139.209 160.392 143.078C158.832 146.947 156.543 150.462 153.656 153.423C150.769 156.383 147.342 158.731 143.569 160.332C139.797 161.932 135.754 162.754 131.672 162.75H18.3281C14.2458 162.754 10.2028 161.932 6.4305 160.332C2.65819 158.731 -0.76936 156.383 -3.656 153.423C-6.54263 150.462 -8.83168 146.947 -10.3921 143.078C-11.9526 139.209 -12.7538 135.062 -12.75 130.875V19.125C-12.7538 14.938 -11.9526 10.7913 -10.3921 6.92231C-8.83168 3.05328 -6.54263 -0.462164 -3.656 -3.42282C-0.76936 -6.38347 2.65819 -8.73121 6.4305 -10.3317C10.2028 -11.9322 14.2458 -12.7539 18.3281 -12.75Z" fill="#F3F3F3"/>
<path d="M51.7497 44.9701H75.0493V28.5H33.75L34.144 32.9186L38.1923 78.3058H75.0493V61.8357H53.255L51.7497 44.9701V44.9701ZM55.4617 86.5411H38.9282L41.2355 112.402L74.9735 121.767L75.0493 121.746V104.61L74.9771 104.63L56.6344 99.6767L55.4617 86.5411V86.5411Z" fill="#C9C9C9"/>
<path d="M74.9925 78.3058H95.2736L93.3614 99.6664L74.9919 104.624V121.759L108.757 112.402L109.004 109.619L112.875 66.2584L113.277 61.8357H74.9925V78.3058ZM74.9925 44.9299V44.9701H114.776L115.106 41.2684L115.856 32.9186L116.25 28.5H74.9925V44.9304V44.9299Z" fill="#C9C9C9"/>
</g>
<defs>
<clipPath id="clip0_1496_146">
<rect width="150" height="150" rx="15" fill="white"/>
</clipPath>
</defs>
</svg>
