<svg width="150" height="150" viewBox="0 0 150 150" fill="none" xmlns="http://www.w3.org/2000/svg">
<g clip-path="url(#clip0_1496_141)">
<path d="M11.0625 -24H138.937C143.543 -24.0044 148.105 -23.0773 152.36 -21.2716C156.616 -19.466 160.483 -16.8172 163.74 -13.477C166.997 -10.1368 169.579 -6.17066 171.34 -1.8056C173.1 2.55947 174.004 7.23776 174 11.9616V138.038C174.004 142.762 173.1 147.441 171.34 151.806C169.579 156.171 166.997 160.137 163.74 163.477C160.483 166.817 156.616 169.466 152.36 171.272C148.105 173.077 143.543 174.004 138.937 174H11.0625C6.45682 174.004 1.89548 173.077 -2.36046 171.272C-6.6164 169.466 -10.4834 166.817 -13.7401 163.477C-16.9968 160.137 -19.5793 156.171 -21.3399 151.806C-23.1004 147.441 -24.0043 142.762 -24 138.038V11.9616C-24.0043 7.23776 -23.1004 2.55947 -21.3399 -1.8056C-19.5793 -6.17066 -16.9968 -10.1368 -13.7401 -13.477C-10.4834 -16.8172 -6.6164 -19.466 -2.36046 -21.2716C1.89548 -23.0773 6.45682 -24.0044 11.0625 -24V-24Z" fill="#F3F3F3"/>
<path d="M36.7163 61.8357L38.1923 78.3058H75.0493V61.8357H36.7163ZM33.75 28.5L35.2471 44.9701H75.0493V28.5H33.75V28.5ZM75.0493 104.61L74.9771 104.63L56.6344 99.6767L55.4617 86.5411H38.9282L41.2355 112.402L74.9735 121.767L75.0493 121.746V104.61Z" fill="#C9C9C9"/>
<path d="M113.277 61.8357L116.25 28.5H74.9925V44.9701H98.2002L96.7016 61.8357H74.9925V78.3058H95.2736L93.3614 99.6664L74.9919 104.624V121.759L108.757 112.402L109.004 109.619L112.875 66.2584L113.277 61.8357V61.8357Z" fill="#C9C9C9"/>
</g>
<defs>
<clipPath id="clip0_1496_141">
<rect width="150" height="150" rx="15" fill="white"/>
</clipPath>
</defs>
</svg>
