<svg width="150" height="150" viewBox="0 0 150 150" fill="none" xmlns="http://www.w3.org/2000/svg">
<g clip-path="url(#clip0_1496_129)">
<path d="M11.0625 -24H138.937C143.543 -24.0044 148.105 -23.0773 152.36 -21.2716C156.616 -19.466 160.483 -16.8172 163.74 -13.477C166.997 -10.1368 169.579 -6.17066 171.34 -1.8056C173.1 2.55946 174.004 7.23776 174 11.9615V138.038C174.004 142.762 173.1 147.441 171.34 151.806C169.579 156.171 166.997 160.137 163.74 163.477C160.483 166.817 156.616 169.466 152.36 171.272C148.105 173.077 143.543 174.004 138.937 174H11.0625C6.45682 174.004 1.89548 173.077 -2.36046 171.272C-6.6164 169.466 -10.4834 166.817 -13.7401 163.477C-16.9968 160.137 -19.5793 156.171 -21.3399 151.806C-23.1004 147.441 -24.0043 142.762 -24 138.038V11.9615C-24.0043 7.23776 -23.1004 2.55946 -21.3399 -1.8056C-19.5793 -6.17066 -16.9968 -10.1368 -13.7401 -13.477C-10.4834 -16.8172 -6.6164 -19.466 -2.36046 -21.2716C1.89548 -23.0773 6.45682 -24.0044 11.0625 -24V-24Z" fill="#F3F3F3" style="fill:#F3F3F3;fill:color(display-p3 0.9519 0.9519 0.9519);fill-opacity:1;"/>
<path fill-rule="evenodd" clip-rule="evenodd" d="M96.6926 126.308C98.3312 126.946 100.2 126.905 101.853 126.109L123.273 115.803C125.524 114.72 126.955 112.442 126.955 109.943V40.0576C126.955 37.5585 125.524 35.2807 123.273 34.1976L101.853 23.8907C99.6831 22.8463 97.1428 23.1022 95.2378 24.4871C94.9657 24.6849 94.7065 24.9058 94.4632 25.1492L53.4584 62.5587L35.5976 49.0009C33.935 47.7387 31.6093 47.8422 30.0651 49.2468L24.3365 54.4578C22.4476 56.1761 22.4455 59.1476 24.3318 60.8686L39.8213 75L24.3318 89.1315C22.4455 90.8524 22.4476 93.824 24.3365 95.5422L30.0651 100.753C31.6093 102.158 33.935 102.261 35.5976 100.999L53.4584 87.4413L94.4632 124.851C95.1119 125.5 95.8736 125.989 96.6926 126.308ZM100.962 51.3826L69.8483 75L100.962 98.6175V51.3826Z" fill="#C9C9C9" style="fill:#C9C9C9;fill:color(display-p3 0.7885 0.7885 0.7885);fill-opacity:1;"/>
</g>
<defs>
<clipPath id="clip0_1496_129">
<rect width="150" height="150" rx="15" fill="white" style="fill:white;fill-opacity:1;"/>
</clipPath>
</defs>
</svg>
