<svg width="150" height="150" viewBox="0 0 150 150" fill="none" xmlns="http://www.w3.org/2000/svg">
<g clip-path="url(#clip0_1496_194)">
<path d="M137.4 -21H12.6C-5.95677 -21 -21 -5.95677 -21 12.6V137.4C-21 155.957 -5.95677 171 12.6 171H137.4C155.957 171 171 155.957 171 137.4V12.6C171 -5.95677 155.957 -21 137.4 -21Z" fill="#F3F3F3"/>
<path d="M76.2455 91.5894H53.6757L48.0333 108.717C47.9684 109.239 47.6117 109.5 46.9631 109.5H36.7483C36.0998 109.5 35.8728 109.174 36.0674 108.521L56.3024 50.3851C56.7564 49.4064 57.0482 47.5794 57.1779 44.9043C57.1779 44.5128 57.4049 44.317 57.8589 44.317H71.8678C72.1921 44.317 72.4515 44.4801 72.646 44.8064L95.2159 108.619C95.4104 109.206 95.2159 109.5 94.6322 109.5H83.1527C82.6987 109.5 82.3744 109.272 82.1799 108.815L76.2455 91.5894ZM56.2051 82.0957H73.7162C73.4567 81.1823 72.0948 77.039 69.6302 69.666C67.2306 62.2277 65.6416 57.1383 64.8633 54.3979H64.7661C63.9878 57.7255 61.1341 66.9582 56.2051 82.0957Z" fill="#C9C9C9"/>
<path d="M101.256 108.619V62.6191C101.256 62.0972 101.515 61.8362 102.034 61.8362H112.833C113.351 61.8362 113.611 62.0972 113.611 62.6191V108.717C113.611 109.239 113.351 109.5 112.833 109.5H102.131C101.548 109.5 101.256 109.206 101.256 108.619ZM112.249 51.9511C111.081 53.1255 109.493 53.7128 107.482 53.7128C105.471 53.7128 103.882 53.1255 102.715 51.9511C101.548 50.7766 100.964 49.178 100.964 47.1553C100.964 45.1979 101.58 43.5993 102.812 42.3596C104.045 41.1199 105.634 40.5 107.579 40.5C109.525 40.5 111.081 41.1199 112.249 42.3596C113.416 43.5993 114 45.1979 114 47.1553C114 49.178 113.416 50.7766 112.249 51.9511Z" fill="#C9C9C9"/>
</g>
<defs>
<clipPath id="clip0_1496_194">
<rect width="150" height="150" rx="15" fill="white"/>
</clipPath>
</defs>
</svg>
