<svg width="150" height="150" viewBox="0 0 150 150" fill="none" xmlns="http://www.w3.org/2000/svg">
<g clip-path="url(#clip0_1496_208)">
<path d="M11.0625 -24H138.937C143.543 -24.0044 148.105 -23.0773 152.36 -21.2716C156.616 -19.466 160.483 -16.8172 163.74 -13.477C166.997 -10.1368 169.579 -6.17066 171.34 -1.8056C173.1 2.55946 174.004 7.23776 174 11.9615V138.038C174.004 142.762 173.1 147.441 171.34 151.806C169.579 156.171 166.997 160.137 163.74 163.477C160.483 166.817 156.616 169.466 152.36 171.272C148.105 173.077 143.543 174.004 138.937 174H11.0625C6.45682 174.004 1.89548 173.077 -2.36046 171.272C-6.6164 169.466 -10.4834 166.817 -13.7401 163.477C-16.9968 160.137 -19.5793 156.171 -21.3399 151.806C-23.1004 147.441 -24.0043 142.762 -24 138.038V11.9615C-24.0043 7.23776 -23.1004 2.55946 -21.3399 -1.8056C-19.5793 -6.17066 -16.9968 -10.1368 -13.7401 -13.477C-10.4834 -16.8172 -6.6164 -19.466 -2.36046 -21.2716C1.89548 -23.0773 6.45682 -24.0044 11.0625 -24V-24Z" fill="#F3F3F3"/>
<path d="M88.4136 90.9856C91.8368 96.6086 96.2905 100.742 104.167 100.742C110.784 100.742 115.012 97.4146 115.012 92.8174C115.012 87.3084 110.668 85.3572 103.385 82.1522L99.3927 80.429C87.8687 75.4898 80.213 69.3024 80.213 56.2219C80.213 44.1726 89.3389 35 103.601 35C113.754 35 121.054 38.5551 126.314 47.8634L113.879 55.8962C111.141 50.9571 108.187 49.0113 103.601 49.0113C98.9233 49.0113 95.9587 51.9965 95.9587 55.8962C95.9587 60.7159 98.926 62.6672 105.778 65.6523L109.77 67.3729C123.339 73.2265 131 79.1942 131 92.6112C131 107.076 119.705 115 104.537 115C89.7057 115 80.124 107.89 75.4357 98.5707L88.4136 90.9856ZM31.9995 92.3778C34.5083 96.8556 36.7904 100.641 42.2772 100.641C47.524 100.641 50.8339 98.5761 50.8339 90.546V35.9173H66.8035V90.7631C66.8035 107.399 57.1084 114.97 42.957 114.97C30.1706 114.97 22.7658 108.313 19 100.295L31.9995 92.3778Z" fill="#C9C9C9"/>
</g>
<defs>
<clipPath id="clip0_1496_208">
<rect width="150" height="150" rx="15" fill="white"/>
</clipPath>
</defs>
</svg>
