<svg width="433" height="370" viewBox="0 0 433 370" fill="none" xmlns="http://www.w3.org/2000/svg">
<path d="M208.135 33.8236C175.656 51.8095 200.773 92.9173 210.264 94.2245C239.28 102.479 286.734 101.473 307.266 97.5923C328.165 71.7034 328.541 24.8107 289.041 7.65968C232.541 -16.8731 208.135 24.558 208.135 33.8236Z" fill="black"/>
<path d="M299.917 155.498C299.917 155.498 295.929 135.887 297.992 111.435C287.711 125.829 282.292 131.496 275.412 139.572C269.908 146.033 261.209 148.226 256.723 148.825L256.723 167.991C256.723 173.155 261.979 180.108 277.063 180.108C291.377 180.108 298.561 169.359 299.917 155.498Z" fill="white" stroke="black" stroke-width="4" stroke-linecap="round"/>
<path d="M210.122 107.177C211.076 97.6076 211.961 103.182 208.021 81.4138C198.295 27.6787 244.051 4.97721 270.311 25.5548C296.512 46.0862 290.118 66.5469 291.872 82.4601C296.746 77.2684 303.023 70.6859 310.586 74.4677C323.505 80.9272 318.412 96.4055 311.906 103.835C307.473 108.897 300.864 111.044 297.701 111.044C291.72 135.016 270.455 151.965 247.842 151.965C227.903 151.965 208.021 128.264 210.122 107.177Z" fill="white"/>
<path d="M208.021 81.4138L209.989 81.0576L208.021 81.4138ZM210.122 107.177L208.132 106.979V106.979L210.122 107.177ZM297.701 111.044V109.044H296.138L295.76 110.56L297.701 111.044ZM270.311 25.5548L271.545 23.9806V23.9806L270.311 25.5548ZM311.906 103.835L310.402 102.517V102.517L311.906 103.835ZM310.586 74.4677L311.481 72.6788V72.6788L310.586 74.4677ZM291.872 82.4601L289.884 82.6793L290.36 86.9934L293.331 83.8289L291.872 82.4601ZM208.021 81.4138L206.053 81.77C208.041 92.7553 208.768 96.6222 208.91 98.9901C208.976 100.077 208.914 100.819 208.768 101.91C208.618 103.029 208.375 104.542 208.132 106.979L210.122 107.177L212.112 107.375C212.346 105.027 212.571 103.648 212.733 102.441C212.898 101.206 212.99 100.186 212.903 98.7496C212.742 96.0702 211.941 91.8402 209.989 81.0576L208.021 81.4138ZM210.122 107.177L208.132 106.979C207.015 118.189 211.733 129.903 219.186 138.766C226.63 147.616 237.098 153.965 247.842 153.965V151.965V149.965C238.647 149.965 229.205 144.463 222.248 136.191C215.301 127.931 211.128 117.252 212.112 107.375L210.122 107.177ZM247.842 151.965V153.965C271.44 153.965 293.454 136.325 299.641 111.529L297.701 111.044L295.76 110.56C289.985 133.707 269.471 149.965 247.842 149.965V151.965ZM270.311 25.5548L271.545 23.9806C257.64 13.085 238.648 13.7088 224.495 23.9994C210.271 34.342 201.076 54.2737 206.053 81.77L208.021 81.4138L209.989 81.0576C205.24 54.8188 214.06 36.5322 226.847 27.2346C239.706 17.8852 256.722 17.447 269.078 27.129L270.311 25.5548ZM297.701 111.044V113.044C299.644 113.044 302.371 112.41 305.147 111.162C307.954 109.901 310.968 107.942 313.411 105.152L311.906 103.835L310.402 102.517C308.412 104.79 305.904 106.436 303.507 107.514C301.08 108.605 298.92 109.044 297.701 109.044V111.044ZM311.906 103.835L313.411 105.152C316.891 101.179 320.01 95.0623 320.524 88.9553C320.783 85.8738 320.384 82.7169 318.947 79.8424C317.499 76.9469 315.063 74.4702 311.481 72.6788L310.586 74.4677L309.692 76.2565C312.569 77.695 314.341 79.5754 315.369 81.631C316.407 83.7075 316.75 86.0957 316.538 88.6199C316.108 93.7243 313.428 99.0616 310.402 102.517L311.906 103.835ZM310.586 74.4677L311.481 72.6788C306.933 70.4047 302.743 71.3125 299.213 73.3712C295.794 75.3653 292.812 78.5374 290.414 81.0913L291.872 82.4601L293.331 83.8289C295.807 81.1911 298.4 78.4762 301.228 76.8265C303.946 75.2415 306.677 74.7489 309.692 76.2565L310.586 74.4677ZM291.872 82.4601L293.86 82.241C293.436 78.3897 293.505 74.2818 293.448 69.7172C293.391 65.2127 293.206 60.3738 292.222 55.3545C290.232 45.2067 285.018 34.5386 271.545 23.9806L270.311 25.5548L269.078 27.129C281.805 37.1023 286.494 46.9303 288.297 56.124C289.208 60.7755 289.392 65.3187 289.448 69.7678C289.504 74.1568 289.432 78.574 289.884 82.6793L291.872 82.4601Z" fill="black"/>
<path d="M323.54 334.527C312.487 342.505 292.73 359.022 288.514 362.184C286.698 345.327 285.248 333.305 284.44 325.575L295.373 325.99L323.54 334.527Z" fill="#D9D9D9" stroke="black" stroke-width="4" stroke-linecap="round"/>
<path d="M281.467 83.8336C250.416 85.1091 229.597 67.4135 219.63 46.6151C203.111 60.2282 209.192 87.4543 209.192 90.6574C199.572 78.0292 201.823 65.8336 199.572 57.8259C197.32 49.8182 205.666 52.8114 211.806 34.1935C217.947 15.5756 215.537 14.9845 259.134 8.17793C302.731 1.37139 309.588 67.5535 307.541 74.1597C301.041 73.6597 295.452 78.4125 292.041 83.8336C288.63 89.2547 288.823 93.0831 288.823 98.3359C285.615 92.6491 283.685 89.7715 281.467 83.8336Z" fill="black" stroke="black" stroke-width="4" stroke-linecap="round"/>
<path d="M30.8301 212.78L15.7186 115.017L117.212 128.621L107.958 233.64L30.8301 212.78Z" fill="white" stroke="black" stroke-width="4" stroke-linecap="round"/>
<path d="M169.953 182.698C183.743 166.354 251.055 160.962 256.341 160.962C256.341 167.069 254.153 179.981 276.217 179.981C292.096 179.981 297.871 169.587 300.18 155.44C329.633 163.101 370.557 170.017 386.298 182.698C402.04 195.379 444.047 284.635 426.682 314.258C412.79 337.956 328.28 342.859 287.761 342.348L116.153 314.258C112.237 303.532 105.325 280.242 109.002 272.888C113.599 263.694 156.163 199.042 169.953 182.698Z" fill="#336BEC" stroke="black" stroke-width="4"/>
<path d="M34.361 222.327L4.53357 128.008L106.914 125.992L113.767 231.195L34.361 222.327Z" fill="white" stroke="black" stroke-width="4" stroke-linecap="round"/>
<path d="M190.541 189.16C188.041 207.66 192.041 220.16 194.041 224.16" stroke="black" stroke-width="4" stroke-linecap="round"/>
<path d="M377.041 191.66C372.041 197.66 368.448 213.16 368.447 224.16C368.447 227.14 368.447 261.904 368.447 281.775" stroke="black" stroke-width="4" stroke-linecap="round"/>
<path d="M278.075 300.776C295.215 298.069 327.744 296.462 339.02 291.951C350.297 287.441 380.969 274.811 391.343 283.381" stroke="black" stroke-width="4" stroke-linecap="round"/>
<path d="M56.8735 198.143V204.093L66.0162 208.342L67.6618 214.632L63.0906 217.181V221.771L58.885 224.491L61.4449 226.53L64.1877 245.228L47.1826 252.537L42.7941 242.508L28.7146 233.16L23.5948 220.241L20.3035 210.722L18.8405 206.473V196.444V189.814L30.6832 186.042L44.9883 194.404L56.8735 198.143Z" fill="white"/>
<path d="M44.386 194.239C42.3057 192.921 41.5483 188.164 35.2154 186.473C22.1308 182.981 18.7617 192.543 18.8678 197.062C17.5271 199.087 15.65 204.368 18.8678 209.3C18.1885 211.5 18.0418 216.662 22.8901 219.709C22.7557 222.764 24.088 229.678 30.4923 232.891C30.4923 232.891 42.3171 240.563 43.2366 242.208C44.1561 243.852 46.9083 249.534 48.1694 252.169C52.9888 250.641 62.8318 247.046 63.6483 244.896C64.6688 242.208 65.3876 229 60.1146 226.312" stroke="black" stroke-width="4" stroke-linecap="round"/>
<path d="M66.4583 239.024C62.2063 247.244 50.3021 249.652 46.0923 248.781C58.4941 288.111 68.9598 325.364 86.6764 333.868C93.0009 336.904 99.4323 335.64 103.684 333.868C107.936 332.097 96.2433 270.443 92.3457 266.191C89.2276 262.789 74.1355 247.528 66.4583 239.024Z" fill="#336BEC" stroke="black" stroke-width="4"/>
<path d="M30.1501 197.974C30.8397 197.12 44.865 192.905 52.4583 194.579C58.9209 196.004 59.7831 202.313 56.9916 203.948C54.2002 205.583 40.7725 202.638 32.5619 208.985" stroke="black" stroke-width="4" stroke-linecap="round"/>
<path d="M36.9904 206.396C37.7465 205.634 57.4933 202.276 63.8764 206.616C69.5289 210.458 67.8368 216.054 63.8764 216.579C56.4555 214.828 44.5489 214.916 38.6569 218.656" stroke="black" stroke-width="4" stroke-linecap="round"/>
<path d="M38.5561 218.656C42.485 215.835 55.7228 214.288 60.9204 216.667C65.4897 218.758 63.1367 223.491 60.9204 225.305C58.7042 227.118 46.5188 223.859 44.2701 228.382" stroke="black" stroke-width="4" stroke-linecap="round"/>
<path d="M94.0186 350.486L75.4258 229.782C74.1442 221.461 78.4333 219.822 80.7381 220.043C138.975 222.601 257.042 227.775 263.417 228.011C269.791 228.247 272.369 233.619 272.86 236.275C278.269 275.111 286.874 348.956 287.927 359.634C288.484 365.278 283.5 366.914 281.434 367.012C222.411 363.668 107.358 357.037 101.692 357.273C96.0253 357.509 94.2153 352.847 94.0186 350.486Z" fill="#EFEFEF" stroke="black" stroke-width="4" stroke-linecap="round"/>
<path d="M226.521 81.3169C222.627 81.3169 218.025 84.1489 217.202 85.7918" stroke="black" stroke-width="4" stroke-linecap="round"/>
<ellipse cx="3.18327" cy="5.09323" rx="3.18327" ry="5.09323" transform="matrix(-0.999511 0.0312782 0.0312782 0.999511 251.398 91.7158)" fill="black"/>
<ellipse cx="3.18327" cy="5.09323" rx="3.18327" ry="5.09323" transform="matrix(-0.999627 0.0272955 0.0272955 0.999627 227.103 92.3179)" fill="black"/>
<path d="M259.904 125.854C256.447 128.937 245.985 133.477 240.083 133.477" stroke="black" stroke-width="4" stroke-linecap="round"/>
<path d="M234.277 98.3359C233.899 100.213 232.754 104.976 231.199 109.008C229.644 113.04 231.631 115.784 232.819 116.652" stroke="black" stroke-width="4" stroke-linecap="round"/>
</svg>
